<svg width="309" height="309" viewBox="0 0 309 309" fill="none" xmlns="http://www.w3.org/2000/svg">
<path d="M309 154.5C309 239.828 239.828 309 154.5 309C69.172 309 0 239.828 0 154.5C0 69.172 69.172 0 154.5 0C239.828 0 309 69.172 309 154.5Z" fill="url(#paint0_linear_4_311)"/>
<path d="M156.873 177.8C156.873 188.883 153.607 197.05 147.073 202.3C140.657 207.433 130.507 210 116.623 210H71.2984V100.275H116.623C129.223 100.275 138.148 102.492 143.398 106.925C148.765 111.242 151.448 118.533 151.448 128.8C151.448 135.333 150.573 140.35 148.823 143.85C147.073 147.233 143.573 149.858 138.323 151.725C144.623 153.008 149.29 155.808 152.323 160.125C155.357 164.442 156.873 170.333 156.873 177.8ZM126.423 132.825C126.423 128.975 125.665 126.292 124.148 124.775C122.748 123.258 120.24 122.5 116.623 122.5H98.4234V144.725H116.623C120.24 144.725 122.748 143.85 124.148 142.1C125.665 140.233 126.423 137.142 126.423 132.825ZM130.623 176.05C130.623 171.85 129.573 168.933 127.473 167.3C125.373 165.55 121.757 164.675 116.623 164.675H98.4234V186.9H116.623C121.757 186.9 125.373 186.083 127.473 184.45C129.573 182.817 130.623 180.017 130.623 176.05ZM188.836 211.75C179.969 211.75 173.436 209.533 169.236 205.1C165.152 200.667 163.111 193.667 163.111 184.1C163.111 174.3 165.561 167.417 170.461 163.45C175.477 159.483 184.052 157.5 196.186 157.5C198.986 157.5 201.844 157.675 204.761 158.025C207.794 158.258 210.419 158.608 212.636 159.075V152.775C212.636 149.975 211.411 147.933 208.961 146.65C206.627 145.25 203.011 144.55 198.111 144.55C192.511 144.55 187.494 144.725 183.061 145.075C178.744 145.308 174.777 145.775 171.161 146.475V124.95C175.477 123.9 180.494 123.142 186.211 122.675C191.927 122.092 198.577 121.8 206.161 121.8C216.894 121.8 225.002 124.192 230.486 128.975C236.086 133.758 238.886 140.817 238.886 150.15V210H214.386L213.511 202.65H212.986C209.369 205.45 205.402 207.667 201.086 209.3C196.769 210.933 192.686 211.75 188.836 211.75ZM199.686 174.825C195.019 174.825 191.869 175.35 190.236 176.4C188.602 177.333 187.786 179.375 187.786 182.525C187.786 185.442 188.427 187.483 189.711 188.65C191.111 189.7 193.502 190.225 196.886 190.225C199.452 190.225 202.136 189.875 204.936 189.175C207.736 188.475 210.302 187.6 212.636 186.55V175.875C211.236 175.525 209.486 175.292 207.386 175.175C205.286 174.942 202.719 174.825 199.686 174.825Z" fill="white"/>
<defs>
<linearGradient id="paint0_linear_4_311" x1="0" y1="0" x2="309" y2="309" gradientUnits="userSpaceOnUse">
<stop offset="0.1875" stop-color="#DD1E12"/>
<stop offset="0.854167" stop-color="#4E008B"/>
</linearGradient>
</defs>
</svg>
