<svg width="309" height="309" viewBox="0 0 309 309" fill="none" xmlns="http://www.w3.org/2000/svg">
<path d="M309 154.5C309 239.828 239.828 309 154.5 309C69.172 309 0 239.828 0 154.5C0 69.172 69.172 0 154.5 0C239.828 0 309 69.172 309 154.5Z" fill="url(#paint0_linear_4_307)"/>
<path d="M154.523 100.275V210H128.623L85.2232 146.65V210H59.8482V100.275H85.5732L129.148 166.075V100.275H154.523ZM223.774 93.625H250.024V210H226.749L225.349 201.95H224.824C221.674 205.217 217.941 207.667 213.624 209.3C209.307 210.933 204.407 211.75 198.924 211.75C187.491 211.75 179.324 208.308 174.424 201.425C169.641 194.542 167.249 182.992 167.249 166.775C167.249 151.025 170.282 139.592 176.349 132.475C182.532 125.358 192.507 121.8 206.274 121.8C209.657 121.8 212.807 122.033 215.724 122.5C218.757 122.85 221.441 123.375 223.774 124.075V93.625ZM209.949 145.425C202.949 145.425 198.457 146.767 196.474 149.45C194.491 152.017 193.499 157.792 193.499 166.775C193.499 175.292 194.374 180.892 196.124 183.575C197.874 186.142 201.957 187.425 208.374 187.425C211.407 187.425 214.207 187.192 216.774 186.725C219.457 186.258 221.791 185.558 223.774 184.625V147.7C222.024 146.883 219.982 146.3 217.649 145.95C215.432 145.6 212.866 145.425 209.949 145.425Z" fill="white"/>
<defs>
<linearGradient id="paint0_linear_4_307" x1="0" y1="0" x2="309" y2="309" gradientUnits="userSpaceOnUse">
<stop offset="0.1875" stop-color="#DD1E12"/>
<stop offset="0.854167" stop-color="#4E008B"/>
</linearGradient>
</defs>
</svg>
