<svg width="309" height="309" viewBox="0 0 309 309" fill="none" xmlns="http://www.w3.org/2000/svg">
<path d="M309 154.5C309 239.828 239.828 309 154.5 309C69.172 309 0 239.828 0 154.5C0 69.172 69.172 0 154.5 0C239.828 0 309 69.172 309 154.5Z" fill="url(#paint0_linear_4_177)"/>
<path d="M158.74 155.05C158.74 175 154.656 189.467 146.49 198.45C138.44 207.317 125.315 211.75 107.115 211.75C88.098 211.75 74.7396 207.55 67.0396 199.15C59.3396 190.75 55.4896 176.05 55.4896 155.05C55.4896 135.1 59.5146 120.692 67.5646 111.825C75.7313 102.958 88.9147 98.525 107.115 98.525C126.131 98.525 139.49 102.725 147.19 111.125C154.89 119.525 158.74 134.167 158.74 155.05ZM86.2897 178.5C87.8063 181.417 90.023 183.458 92.9397 184.625C95.973 185.792 100.698 186.375 107.115 186.375C113.531 186.375 118.198 185.792 121.115 184.625C124.148 183.458 126.423 181.417 127.94 178.5C129.106 176.167 129.923 173.133 130.39 169.4C130.973 165.667 131.265 160.883 131.265 155.05C131.265 149.1 130.973 144.258 130.39 140.525C129.923 136.675 129.106 133.583 127.94 131.25C126.54 128.217 124.323 126.117 121.29 124.95C118.373 123.667 113.648 123.025 107.115 123.025C100.581 123.025 95.798 123.667 92.7647 124.95C89.848 126.117 87.6896 128.217 86.2897 131.25C85.123 133.583 84.248 136.675 83.6646 140.525C83.198 144.258 82.9647 149.1 82.9647 155.05C82.9647 160.883 83.198 165.667 83.6646 169.4C84.248 173.133 85.123 176.167 86.2897 178.5ZM209.937 238.35C203.753 238.35 197.803 237.942 192.087 237.125C186.487 236.308 181.878 235.258 178.262 233.975V211.75C181.062 212.567 185.262 213.267 190.862 213.85C196.578 214.433 202.237 214.725 207.837 214.725C214.137 214.725 218.453 213.792 220.787 211.925C223.12 210.058 224.345 206.617 224.462 201.6V197.4C219.795 199.617 215.303 201.308 210.987 202.475C206.67 203.525 202.47 204.05 198.387 204.05C187.303 204.05 179.428 200.958 174.762 194.775C170.212 188.475 167.937 177.858 167.937 162.925C167.937 148.108 171.203 137.55 177.737 131.25C184.387 124.95 195.528 121.8 211.162 121.8C217.345 121.8 224.462 122.15 232.512 122.85C240.678 123.55 246.745 124.308 250.712 125.125V193.375C250.712 210.058 247.678 221.725 241.612 228.375C235.545 235.025 224.987 238.35 209.937 238.35ZM211.162 145.425C203.345 145.425 198.562 146.3 196.812 148.05C195.062 149.8 194.187 154.758 194.187 162.925C194.187 170.275 194.945 174.942 196.462 176.925C197.978 178.792 201.653 179.725 207.487 179.725C209.703 179.725 212.212 179.492 215.012 179.025C217.928 178.558 221.078 177.917 224.462 177.1V146.475C222.712 146.125 220.728 145.892 218.512 145.775C216.295 145.542 213.845 145.425 211.162 145.425Z" fill="white"/>
<defs>
<linearGradient id="paint0_linear_4_177" x1="0" y1="0" x2="309" y2="309" gradientUnits="userSpaceOnUse">
<stop offset="0.1875" stop-color="#DD1E12"/>
<stop offset="0.854167" stop-color="#4E008B"/>
</linearGradient>
</defs>
</svg>
