<svg width="309" height="309" viewBox="0 0 309 309" fill="none" xmlns="http://www.w3.org/2000/svg">
<path d="M309 154.5C309 239.828 239.828 309 154.5 309C69.172 309 0 239.828 0 154.5C0 69.172 69.172 0 154.5 0C239.828 0 309 69.172 309 154.5Z" fill="url(#paint0_linear_4_48)"/>
<path d="M158.967 100.275V210H133.067L89.6666 146.65V210H64.2916V100.275H90.0166L133.592 166.075V100.275H158.967ZM195.842 211.75C186.976 211.75 180.442 209.533 176.242 205.1C172.159 200.667 170.117 193.667 170.117 184.1C170.117 174.3 172.567 167.417 177.467 163.45C182.484 159.483 191.059 157.5 203.192 157.5C205.992 157.5 208.851 157.675 211.767 158.025C214.801 158.258 217.426 158.608 219.642 159.075V152.775C219.642 149.975 218.417 147.933 215.967 146.65C213.634 145.25 210.017 144.55 205.117 144.55C199.517 144.55 194.501 144.725 190.067 145.075C185.751 145.308 181.784 145.775 178.167 146.475V124.95C182.484 123.9 187.501 123.142 193.217 122.675C198.934 122.092 205.584 121.8 213.167 121.8C223.901 121.8 232.009 124.192 237.492 128.975C243.092 133.758 245.892 140.817 245.892 150.15V210H221.392L220.517 202.65H219.992C216.376 205.45 212.409 207.667 208.092 209.3C203.776 210.933 199.692 211.75 195.842 211.75ZM206.692 174.825C202.026 174.825 198.876 175.35 197.242 176.4C195.609 177.333 194.792 179.375 194.792 182.525C194.792 185.442 195.434 187.483 196.717 188.65C198.117 189.7 200.509 190.225 203.892 190.225C206.459 190.225 209.142 189.875 211.942 189.175C214.742 188.475 217.309 187.6 219.642 186.55V175.875C218.242 175.525 216.492 175.292 214.392 175.175C212.292 174.942 209.726 174.825 206.692 174.825Z" fill="white"/>
<defs>
<linearGradient id="paint0_linear_4_48" x1="0" y1="0" x2="309" y2="309" gradientUnits="userSpaceOnUse">
<stop offset="0.1875" stop-color="#DD1E12"/>
<stop offset="0.854167" stop-color="#4E008B"/>
</linearGradient>
</defs>
</svg>
