<svg height="512pt" viewBox="0 0 512 512" width="512pt" xmlns="http://www.w3.org/2000/svg"><path d="m74.96875 470.710938c0 18.601562-15.082031 33.683593-33.683594 33.683593-18.601562 0-33.679687-15.082031-33.679687-33.683593 0-18.601563 15.078125-33.679688 33.679687-33.679688 18.601563 0 33.683594 15.078125 33.683594 33.679688zm0 0" fill="#ffbd03"/><path d="m192.75 348.570312c0 18.605469-15.078125 33.683594-33.679688 33.683594-18.601562 0-33.683593-15.078125-33.683593-33.683594 0-18.601562 15.082031-33.679687 33.683593-33.679687 18.601563 0 33.679688 15.078125 33.679688 33.679687zm0 0" fill="#00a5ff"/><path d="m74.96875 159.070312c0 18.601563-15.082031 33.683594-33.683594 33.683594-18.601562 0-33.679687-15.082031-33.679687-33.683594 0-18.601562 15.078125-33.679687 33.679687-33.679687 18.601563 0 33.683594 15.078125 33.683594 33.679687zm0 0" fill="#00a5ff"/><path d="m192.75 41.289062c0 18.601563-15.078125 33.679688-33.679688 33.679688-18.601562 0-33.683593-15.078125-33.683593-33.679688 0-18.601562 15.082031-33.683593 33.683593-33.683593 18.601563 0 33.679688 15.082031 33.679688 33.683593zm0 0" fill="#ffbd03"/><path d="m504.390625 41.289062c0 18.601563-15.082031 33.679688-33.683594 33.679688-18.601562 0-33.679687-15.078125-33.679687-33.679688 0-18.601562 15.078125-33.683593 33.679687-33.683593 18.601563 0 33.683594 15.082031 33.683594 33.683593zm0 0" fill="#00a5ff"/><path d="m386.609375 159.070312c0 18.601563-15.082031 33.683594-33.683594 33.683594-18.601562 0-33.683593-15.082031-33.683593-33.683594 0-18.601562 15.082031-33.679687 33.683593-33.679687 18.601563 0 33.683594 15.078125 33.683594 33.679687zm0 0" fill="#ffbd03"/><path d="m386.609375 470.710938c0 18.601562-15.082031 33.683593-33.683594 33.683593-18.601562 0-33.683593-15.082031-33.683593-33.683593 0-18.601563 15.082031-33.679688 33.683593-33.679688 18.601563 0 33.683594 15.078125 33.683594 33.679688zm0 0" fill="#00a5ff"/><path d="m504.390625 348.570312c0 18.605469-15.082031 33.683594-33.683594 33.683594-18.601562 0-33.679687-15.078125-33.679687-33.683594 0-18.601562 15.078125-33.679687 33.679687-33.679687 18.601563 0 33.683594 15.078125 33.683594 33.679687zm0 0" fill="#ffbd03"/><path d="m41.207031 437.03125c-4.605469 0-8.996093.925781-12.996093 2.601562 12.148437 5.085938 20.6875 17.082032 20.6875 31.078126 0 13.992187-8.539063 25.992187-20.6875 31.078124 4 1.675782 8.390624 2.601563 12.996093 2.601563 18.601563 0 33.683594-15.078125 33.683594-33.679687 0-18.605469-15.082031-33.679688-33.683594-33.679688zm0 0" fill="#ffa008"/><path d="m158.992188 314.890625c-4.609376 0-9 .929687-13 2.601563 12.152343 5.085937 20.6875 17.085937 20.6875 31.078124 0 13.996094-8.535157 25.996094-20.6875 31.082032 4 1.671875 8.390624 2.601562 13 2.601562 18.601562 0 33.679687-15.082031 33.679687-33.683594 0-18.601562-15.078125-33.679687-33.679687-33.679687zm0 0" fill="#0c90ea"/><path d="m41.207031 125.390625c-4.605469 0-8.996093.925781-12.996093 2.601563 12.148437 5.085937 20.6875 17.085937 20.6875 31.078124 0 13.996094-8.539063 25.992188-20.6875 31.078126 4 1.675781 8.390624 2.601562 12.996093 2.601562 18.601563 0 33.683594-15.078125 33.683594-33.679688 0-18.601562-15.082031-33.679687-33.683594-33.679687zm0 0" fill="#0c90ea"/><path d="m158.992188 7.609375c-4.609376 0-9 .925781-13 2.601563 12.152343 5.085937 20.6875 17.082031 20.6875 31.078124 0 13.992188-8.535157 25.992188-20.6875 31.078126 4 1.675781 8.390624 2.601562 13 2.601562 18.601562 0 33.679687-15.078125 33.679687-33.679688 0-18.601562-15.078125-33.679687-33.679687-33.679687zm0 0" fill="#ffa008"/><path d="m470.628906 7.609375c-4.605468 0-8.996094.925781-12.996094 2.601563 12.148438 5.085937 20.683594 17.082031 20.683594 31.078124 0 13.992188-8.535156 25.992188-20.683594 31.078126 4 1.675781 8.390626 2.601562 12.996094 2.601562 18.601563 0 33.683594-15.078125 33.683594-33.679688 0-18.601562-15.082031-33.679687-33.683594-33.679687zm0 0" fill="#0c90ea"/><path d="m352.847656 125.390625c-4.609375 0-8.996094.925781-12.996094 2.601563 12.148438 5.085937 20.683594 17.085937 20.683594 31.078124 0 13.996094-8.535156 25.992188-20.683594 31.078126 4 1.675781 8.386719 2.601562 12.996094 2.601562 18.601563 0 33.683594-15.078125 33.683594-33.679688 0-18.601562-15.082031-33.679687-33.683594-33.679687zm0 0" fill="#ffa008"/><path d="m352.847656 437.03125c-4.609375 0-8.996094.925781-12.996094 2.601562 12.148438 5.085938 20.683594 17.082032 20.683594 31.078126 0 13.992187-8.535156 25.992187-20.683594 31.078124 4 1.675782 8.386719 2.601563 12.996094 2.601563 18.601563 0 33.683594-15.078125 33.683594-33.679687 0-18.605469-15.082031-33.679688-33.683594-33.679688zm0 0" fill="#0c90ea"/><path d="m470.628906 314.890625c-4.605468 0-8.996094.929687-12.996094 2.601563 12.148438 5.085937 20.683594 17.085937 20.683594 31.078124 0 13.996094-8.535156 25.996094-20.683594 31.082032 4 1.671875 8.390626 2.601562 12.996094 2.601562 18.601563 0 33.683594-15.082031 33.683594-33.683594 0-18.601562-15.082031-33.679687-33.683594-33.679687zm0 0" fill="#ffa008"/><path d="m478.324219 307.996094v-226.128906c19.140625-3.582032 33.675781-20.410157 33.675781-40.582032 0-4.132812-.609375-8.21875-1.816406-12.136718-1.234375-4.019532-5.5-6.273438-9.507813-5.039063-4.019531 1.234375-6.273437 5.492187-5.039062 9.511719.757812 2.46875 1.144531 5.046875 1.144531 7.664062 0 14.378906-11.695312 26.078125-26.066406 26.078125-6.972656 0-13.523438-2.710937-18.445313-7.632812-4.921875-4.925781-7.632812-11.472657-7.632812-18.445313 0-14.371094 11.699219-26.066406 26.078125-26.066406 3.976562 0 7.792968.871094 11.339844 2.585938 3.78125 1.835937 8.332031.25 10.164062-3.53125s.25-8.335938-3.53125-10.167969c-5.632812-2.722657-11.679688-4.105469-17.972656-4.105469-20.171875 0-37 14.535156-40.585938 33.675781h-230.488281c-3.585937-19.140625-20.40625-33.675781-40.570313-33.675781-22.765624 0-41.285156 18.519531-41.285156 41.285156 0 8.445313 2.527344 16.5 7.214844 23.320313l-60.398438 60.386719c-6.820312-4.683594-14.875-7.210938-23.316406-7.210938-22.765625 0-41.285156 18.523438-41.285156 41.289062 0 20.167969 14.535156 36.996094 33.675781 40.582032v168.636718c0 4.203126 3.40625 7.609376 7.609375 7.609376s7.609375-3.40625 7.609375-7.609376v-168.636718c16.675781-3.125 29.84375-16.296875 32.964844-32.972656h69.597656v141.316406c-19.140625 3.582031-33.675781 20.40625-33.675781 40.570312 0 9.511719 3.246094 18.566406 9.070312 25.816406l-62.246093 62.25c-4.730469-3.253906-10.0625-5.464843-15.710938-6.511718v-26.316406c0-4.203126-3.40625-7.613282-7.609375-7.613282s-7.609375 3.410156-7.609375 7.613282v26.328124c-19.140625 3.582032-33.675781 20.410157-33.675781 40.582032 0 22.765625 18.519531 41.285156 41.285156 41.285156 20.164063 0 36.988282-14.535156 40.574219-33.675781h230.488281c3.585938 19.140625 20.410156 33.675781 40.582032 33.675781 22.765624 0 41.285156-18.519531 41.285156-41.285156 0-8.441406-2.527344-16.496094-7.210938-23.316406l63.066406-63.0625c6.234376 3.59375 13.363282 5.527343 20.640626 5.527343 22.765624 0 41.285156-18.523437 41.285156-41.296875.003906-20.164062-14.53125-36.988281-33.671875-40.570312zm-117.785157 122.125v-69.582032h70.652344c1.523438 5.050782 3.996094 9.742188 7.296875 13.855469l-62.238281 62.238281c-4.730469-3.253906-10.0625-5.464843-15.710938-6.511718zm-48.191406 32.980468h-230.480468c-1.046876-5.640624-3.253907-10.96875-6.503907-15.703124l63.070313-63.066407c6.230468 3.597657 13.355468 5.535157 20.632812 5.535157 18.410156 0 34.355469-12.230469 39.515625-29.324219h146.738281v69.589843c-16.675781 3.117188-29.851562 16.292969-32.972656 32.96875zm117.207032-117.78125h-69.015626v-145.667968c19.144532-3.585938 33.675782-20.414063 33.675782-40.582032 0-8.4375-2.523438-16.492187-7.210938-23.3125l60.382813-60.382812c4.734375 3.25 10.066406 5.457031 15.71875 6.503906v226.117188c-18.109375 3.386718-32.085938 18.621094-33.550781 37.324218zm-58.195313-204.691406c0 .003906.003906.003906.003906.007813h.003907c4.921874 4.933593 7.628906 11.480469 7.628906 18.433593 0 14.378907-11.691406 26.074219-26.066406 26.074219-14.378907 0-26.074219-11.695312-26.074219-26.074219 0-14.375 11.695312-26.066406 26.074219-26.066406 6.957031 0 13.503906 2.710938 18.429687 7.625zm-171.71875-91.730468h230.480469c1.042968 5.648437 3.253906 10.980468 6.503906 15.714843l-60.382812 60.378907c-6.816407-4.683594-14.871094-7.210938-23.3125-7.210938-20.167969 0-36.996094 14.535156-40.582032 33.679688h-145.667968v-69.59375c16.671874-3.121094 29.839843-16.292969 32.960937-32.96875zm-40.570313-33.679688c14.371094 0 26.066407 11.695312 26.066407 26.066406 0 14.378906-11.695313 26.078125-26.066407 26.078125-6.871093 0-13.328124-2.636719-18.230468-7.429687-.0625-.070313-.132813-.140625-.199219-.210938-4.925781-4.933594-7.636719-11.480468-7.636719-18.4375 0-14.371094 11.691406-26.066406 26.066406-26.066406zm-117.785156 169.925781c-14.371094 0-26.066406-11.695312-26.066406-26.074219 0-14.375 11.695312-26.066406 26.066406-26.066406 6.953125 0 13.5 2.710938 18.425782 7.625.003906 0 .003906.003906.007812.007813 0 0 .003906 0 .003906.003906 4.921875 4.933594 7.628906 11.476563 7.628906 18.429687 0 14.378907-11.691406 26.074219-26.066406 26.074219zm40.582032-33.683593c-1.046876-5.640626-3.253907-10.96875-6.507813-15.703126l60.394531-60.382812c4.730469 3.25 10.058594 5.457031 15.707032 6.503906v69.582032zm230.480468 15.21875c3.121094 16.679687 16.292969 29.851562 32.972656 32.972656v145.667968h-145.105468c-1.464844-18.703124-15.433594-33.9375-33.535156-37.324218v-141.316406zm-153.277344 155.820312c14.371094 0 26.066407 11.695312 26.066407 26.066406 0 1.160156-.074219 2.285156-.222657 3.390625-1.664062 12.933594-12.777343 22.6875-25.847656 22.6875-6.171875 0-11.929687-2.082031-16.667968-6.035156-5.972657-4.960937-9.398438-12.265625-9.398438-20.042969.003906-14.371094 11.695312-26.066406 26.070312-26.066406zm-117.785156 174.28125c-14.371094 0-26.066406-11.695312-26.066406-26.066406 0-14.378906 11.695312-26.078125 26.066406-26.078125 6.964844 0 13.503906 2.710937 18.421875 7.632812.003907.003907.007813.007813.011719.011719s.003906.003906.007812.007812c4.917969 4.933594 7.625 11.476563 7.625 18.425782 0 14.371094-11.691406 26.066406-26.066406 26.066406zm311.644532 0c-14.378907 0-26.074219-11.695312-26.074219-26.066406 0-14.378906 11.695312-26.078125 26.074219-26.078125 6.96875 0 13.511718 2.710937 18.429687 7.636719 0 .003906.003906.003906.003906.007812h.003907c4.921874 4.933594 7.628906 11.480469 7.628906 18.433594 0 14.371094-11.691406 26.066406-26.066406 26.066406zm117.785156-122.136719c-6.09375 0-12.011719-2.136719-16.671875-6.019531-5.082031-4.230469-8.34375-10.152344-9.191407-16.714844-.144531-1.0625-.21875-2.191406-.21875-3.34375 0-14.375 11.699219-26.066406 26.078126-26.066406 14.375 0 26.066406 11.691406 26.066406 26.066406.003906 14.378906-11.691406 26.078125-26.0625 26.078125zm0 0"/></svg>