<?xml version="1.0" encoding="UTF-8"?>
<svg xmlns="http://www.w3.org/2000/svg" xmlns:xlink="http://www.w3.org/1999/xlink" version="1.1" width="512" height="512" x="0" y="0" viewBox="0 0 512 512" style="enable-background:new 0 0 512 512" xml:space="preserve" class="">
  <g>
    <path fill="#ffbd03" d="M74.969 470.71c0 18.603-15.082 33.685-33.684 33.685-18.601 0-33.68-15.082-33.68-33.684 0-18.602 15.079-33.68 33.68-33.68 18.602 0 33.684 15.078 33.684 33.68zm0 0" opacity="1" data-original="#ffbd03"/>
    <path fill="#00a5ff" d="M192.75 348.57c0 18.606-15.078 33.684-33.68 33.684-18.601 0-33.683-15.078-33.683-33.684 0-18.601 15.082-33.68 33.683-33.68 18.602 0 33.68 15.079 33.68 33.68zM74.969 159.07c0 18.602-15.082 33.684-33.684 33.684-18.601 0-33.68-15.082-33.68-33.684 0-18.601 15.079-33.68 33.68-33.68 18.602 0 33.684 15.079 33.684 33.68zm0 0" opacity="1" data-original="#00a5ff"/>
    <path fill="#ffbd03" d="M192.75 41.29c0 18.6-15.078 33.679-33.68 33.679-18.601 0-33.683-15.078-33.683-33.68S140.469 7.605 159.07 7.605c18.602 0 33.68 15.082 33.68 33.684zm0 0" opacity="1" data-original="#ffbd03"/>
    <path fill="#00a5ff" d="M504.39 41.29c0 18.6-15.081 33.679-33.683 33.679s-33.68-15.078-33.68-33.68 15.078-33.684 33.68-33.684 33.684 15.082 33.684 33.684zm0 0" opacity="1" data-original="#00a5ff"/>
    <path fill="#ffbd03" d="M386.61 159.07c0 18.602-15.083 33.684-33.684 33.684-18.602 0-33.684-15.082-33.684-33.684 0-18.601 15.082-33.68 33.684-33.68 18.601 0 33.683 15.079 33.683 33.68zm0 0" opacity="1" data-original="#ffbd03"/>
    <path fill="#00a5ff" d="M386.61 470.71c0 18.603-15.083 33.685-33.684 33.685-18.602 0-33.684-15.082-33.684-33.684 0-18.602 15.082-33.68 33.684-33.68 18.601 0 33.683 15.078 33.683 33.68zm0 0" opacity="1" data-original="#00a5ff"/>
    <path fill="#ffbd03" d="M504.39 348.57c0 18.606-15.081 33.684-33.683 33.684s-33.68-15.078-33.68-33.684c0-18.601 15.078-33.68 33.68-33.68s33.684 15.079 33.684 33.68zm0 0" opacity="1" data-original="#ffbd03"/>
    <path fill="#ffa008" d="M41.207 437.031c-4.605 0-8.996.926-12.996 2.602 12.148 5.086 20.687 17.082 20.687 31.078 0 13.992-8.539 25.992-20.687 31.078 4 1.676 8.39 2.602 12.996 2.602 18.602 0 33.684-15.079 33.684-33.68 0-18.606-15.082-33.68-33.684-33.68zm0 0" opacity="1" data-original="#ffa008" class=""/>
    <path fill="#0c90ea" d="M158.992 314.89c-4.61 0-9 .93-13 2.602 12.153 5.086 20.688 17.086 20.688 31.078 0 13.996-8.535 25.996-20.688 31.082 4 1.672 8.39 2.602 13 2.602 18.602 0 33.68-15.082 33.68-33.684 0-18.601-15.078-33.68-33.68-33.68zM41.207 125.39c-4.605 0-8.996.926-12.996 2.602 12.148 5.086 20.687 17.086 20.687 31.078 0 13.996-8.539 25.993-20.687 31.078 4 1.676 8.39 2.602 12.996 2.602 18.602 0 33.684-15.078 33.684-33.68 0-18.601-15.082-33.68-33.684-33.68zm0 0" opacity="1" data-original="#0c90ea" class=""/>
    <path fill="#ffa008" d="M158.992 7.61c-4.61 0-9 .925-13 2.6 12.153 5.087 20.688 17.083 20.688 31.08 0 13.991-8.535 25.991-20.688 31.077a33.56 33.56 0 0 0 13 2.602c18.602 0 33.68-15.078 33.68-33.68s-15.078-33.68-33.68-33.68zm0 0" opacity="1" data-original="#ffa008" class=""/>
    <path fill="#0c90ea" d="M470.629 7.61c-4.606 0-8.996.925-12.996 2.6 12.148 5.087 20.683 17.083 20.683 31.08 0 13.991-8.535 25.991-20.683 31.077 4 1.676 8.39 2.602 12.996 2.602 18.601 0 33.683-15.078 33.683-33.68S489.23 7.61 470.63 7.61zm0 0" opacity="1" data-original="#0c90ea" class=""/>
    <path fill="#ffa008" d="M352.848 125.39c-4.61 0-8.996.926-12.996 2.602 12.148 5.086 20.683 17.086 20.683 31.078 0 13.996-8.535 25.993-20.683 31.078a33.54 33.54 0 0 0 12.996 2.602c18.601 0 33.683-15.078 33.683-33.68 0-18.601-15.082-33.68-33.683-33.68zm0 0" opacity="1" data-original="#ffa008" class=""/>
    <path fill="#0c90ea" d="M352.848 437.031c-4.61 0-8.996.926-12.996 2.602 12.148 5.086 20.683 17.082 20.683 31.078 0 13.992-8.535 25.992-20.683 31.078a33.54 33.54 0 0 0 12.996 2.602c18.601 0 33.683-15.079 33.683-33.68 0-18.606-15.082-33.68-33.683-33.68zm0 0" opacity="1" data-original="#0c90ea" class=""/>
    <path fill="#ffa008" d="M470.629 314.89c-4.606 0-8.996.93-12.996 2.602 12.148 5.086 20.683 17.086 20.683 31.078 0 13.996-8.535 25.996-20.683 31.082 4 1.672 8.39 2.602 12.996 2.602 18.601 0 33.683-15.082 33.683-33.684 0-18.601-15.082-33.68-33.683-33.68zm0 0" opacity="1" data-original="#ffa008" class=""/>
    <path d="M478.324 307.996V81.867C497.464 78.285 512 61.457 512 41.285c0-4.133-.61-8.219-1.816-12.137a7.61 7.61 0 1 0-14.547 4.473 26.091 26.091 0 0 1 1.144 7.664c0 14.38-11.695 26.078-26.066 26.078-6.973 0-13.524-2.71-18.445-7.633-4.922-4.925-7.633-11.472-7.633-18.445 0-14.37 11.699-26.066 26.078-26.066 3.976 0 7.793.87 11.34 2.586 3.78 1.836 8.332.25 10.164-3.532s.25-8.335-3.532-10.168C483.055 1.383 477.007 0 470.715 0c-20.172 0-37 14.535-40.586 33.676H199.64C196.055 14.536 179.234 0 159.07 0c-22.766 0-41.286 18.52-41.286 41.285 0 8.445 2.527 16.5 7.215 23.32l-60.398 60.387c-6.82-4.683-14.875-7.21-23.317-7.21C18.52 117.781 0 136.304 0 159.07c0 20.168 14.535 36.996 33.676 40.582V368.29c0 4.203 3.406 7.61 7.61 7.61s7.609-3.407 7.609-7.61V199.652c16.675-3.125 29.843-16.297 32.964-32.972h69.598v141.316c-19.14 3.582-33.676 20.406-33.676 40.57a41.138 41.138 0 0 0 9.07 25.817l-62.246 62.25a40.782 40.782 0 0 0-15.71-6.512v-26.316c0-4.203-3.407-7.614-7.61-7.614s-7.61 3.41-7.61 7.614v26.328C14.536 433.715 0 450.543 0 470.715 0 493.48 18.52 512 41.285 512c20.164 0 36.988-14.535 40.574-33.676h230.489c3.586 19.14 20.41 33.676 40.582 33.676 22.765 0 41.285-18.52 41.285-41.285 0-8.442-2.528-16.496-7.211-23.317l63.066-63.062a41.382 41.382 0 0 0 20.64 5.527c22.767 0 41.286-18.523 41.286-41.297.004-20.164-14.531-36.988-33.672-40.57zM360.54 430.121V360.54h70.652a41.054 41.054 0 0 0 7.297 13.856l-62.238 62.238a40.782 40.782 0 0 0-15.71-6.512zm-48.191 32.98H81.868a40.87 40.87 0 0 0-6.505-15.703l63.07-63.066a41.31 41.31 0 0 0 20.633 5.535c18.41 0 34.356-12.23 39.516-29.324H345.32v69.59c-16.675 3.117-29.851 16.293-32.972 32.969zm117.207-117.78h-69.016V199.651c19.145-3.586 33.676-20.414 33.676-40.582 0-8.437-2.524-16.492-7.211-23.312l60.383-60.383a40.863 40.863 0 0 0 15.718 6.504v226.117c-18.109 3.387-32.085 18.621-33.55 37.324zm-58.196-204.692c0 .004.004.004.004.008h.004c4.922 4.933 7.63 11.48 7.63 18.433 0 14.38-11.692 26.075-26.067 26.075-14.38 0-26.075-11.696-26.075-26.075 0-14.375 11.696-26.066 26.075-26.066 6.957 0 13.504 2.71 18.43 7.625zm-171.718-91.73h230.48a40.81 40.81 0 0 0 6.504 15.714l-60.383 60.38c-6.816-4.684-14.87-7.212-23.312-7.212-20.168 0-36.996 14.535-40.582 33.68H166.68V81.867c16.672-3.12 29.84-16.293 32.96-32.969zm-40.57-33.68c14.37 0 26.066 11.695 26.066 26.066 0 14.38-11.696 26.078-26.067 26.078-6.87 0-13.328-2.636-18.23-7.43-.063-.07-.133-.14-.2-.21-4.925-4.934-7.636-11.48-7.636-18.438 0-14.37 11.691-26.066 26.066-26.066zM41.284 185.145c-14.37 0-26.066-11.696-26.066-26.075 0-14.375 11.695-26.066 26.066-26.066 6.953 0 13.5 2.71 18.426 7.625.004 0 .004.004.008.008 0 0 .004 0 .004.004 4.922 4.933 7.629 11.476 7.629 18.43 0 14.378-11.692 26.074-26.067 26.074zm40.582-33.684a40.816 40.816 0 0 0-6.508-15.703l60.395-60.383a40.811 40.811 0 0 0 15.707 6.504v69.582zm230.48 15.219c3.122 16.68 16.294 29.851 32.973 32.972V345.32H200.215c-1.465-18.703-15.434-33.937-33.535-37.324V166.68zM159.07 322.5c14.371 0 26.067 11.695 26.067 26.066 0 1.16-.074 2.286-.223 3.391-1.664 12.934-12.777 22.688-25.848 22.688-6.171 0-11.93-2.082-16.668-6.036A25.976 25.976 0 0 1 133 348.566c.004-14.37 11.695-26.066 26.07-26.066zM41.285 496.781c-14.37 0-26.066-11.695-26.066-26.066 0-14.38 11.695-26.078 26.066-26.078 6.965 0 13.504 2.71 18.422 7.633l.012.011.008.008c4.918 4.934 7.625 11.477 7.625 18.426 0 14.37-11.692 26.066-26.067 26.066zm311.645 0c-14.38 0-26.075-11.695-26.075-26.066 0-14.38 11.696-26.078 26.075-26.078 6.968 0 13.511 2.71 18.43 7.636 0 .004.003.004.003.008h.004c4.922 4.934 7.63 11.48 7.63 18.434 0 14.37-11.692 26.066-26.067 26.066zm117.785-122.136a26.08 26.08 0 0 1-16.672-6.02 25.997 25.997 0 0 1-9.191-16.715 24.958 24.958 0 0 1-.22-3.344c0-14.375 11.7-26.066 26.079-26.066 14.375 0 26.066 11.691 26.066 26.066.004 14.38-11.691 26.079-26.062 26.079zm0 0" fill="#ffffff" opacity="1" data-original="#000000" class=""/>
  </g>
</svg>
