<svg width="309" height="309" viewBox="0 0 309 309" fill="none" xmlns="http://www.w3.org/2000/svg">
<path d="M309 154.5C309 239.828 239.828 309 154.5 309C69.172 309 0 239.828 0 154.5C0 69.172 69.172 0 154.5 0C239.828 0 309 69.172 309 154.5Z" fill="url(#paint0_linear_4_130)"/>
<path d="M166.158 100.275V124.775H136.233V210H109.108V124.775H79.183V100.275H166.158ZM228.643 183.575V205.275C225.843 207.025 221.293 208.542 214.993 209.825C208.693 211.108 202.218 211.75 195.568 211.75C182.968 211.75 174.101 208.425 168.968 201.775C163.951 195.008 161.443 183.342 161.443 166.775C161.443 150.208 164.709 138.6 171.243 131.95C177.776 125.183 189.209 121.8 205.543 121.8C209.509 121.8 213.068 121.917 216.218 122.15C219.368 122.267 222.751 122.558 226.368 123.025V146.3C220.651 145.833 216.509 145.6 213.943 145.6C211.376 145.483 208.576 145.425 205.543 145.425C197.493 145.425 192.476 146.592 190.493 148.925C188.626 151.142 187.693 157.092 187.693 166.775C187.693 175.525 188.451 181.125 189.968 183.575C191.601 186.025 195.276 187.25 200.993 187.25C205.659 187.25 210.501 186.9 215.518 186.2C220.651 185.5 225.026 184.625 228.643 183.575Z" fill="white"/>
<defs>
<linearGradient id="paint0_linear_4_130" x1="0" y1="0" x2="309" y2="309" gradientUnits="userSpaceOnUse">
<stop offset="0.1875" stop-color="#DD1E12"/>
<stop offset="0.854167" stop-color="#4E008B"/>
</linearGradient>
</defs>
</svg>
