<svg width="309" height="309" viewBox="0 0 309 309" fill="none" xmlns="http://www.w3.org/2000/svg">
<path d="M309 154.5C309 239.828 239.828 309 154.5 309C69.172 309 0 239.828 0 154.5C0 69.172 69.172 0 154.5 0C239.828 0 309 69.172 309 154.5Z" fill="url(#paint0_linear_4_227)"/>
<path d="M107.823 174.65V210H80.6979V100.275H120.773C137.69 100.275 149.706 103.133 156.823 108.85C163.94 114.567 167.498 124.075 167.498 137.375C167.498 146.358 165.573 153.708 161.723 159.425C157.99 165.025 152.273 169.108 144.573 171.675L171.348 210H138.798L116.048 174.65H107.823ZM140.023 137.375C140.023 132.708 138.623 129.442 135.823 127.575C133.023 125.708 128.006 124.775 120.773 124.775H107.823V152.775H120.773C128.006 152.775 133.023 151.667 135.823 149.45C138.623 147.117 140.023 143.092 140.023 137.375ZM187.299 145.425H177.149V123.55H187.299C187.415 113.05 190.274 105.175 195.874 99.925C201.59 94.5583 209.932 91.875 220.899 91.875C223.465 91.875 226.207 92.05 229.124 92.4C232.157 92.6333 235.015 93.0417 237.699 93.625V113.75C236.182 113.517 234.315 113.342 232.099 113.225C229.882 112.992 227.899 112.875 226.149 112.875C220.549 112.875 217.049 113.4 215.649 114.45C214.249 115.5 213.549 117.717 213.549 121.1V123.55H235.074V145.425H213.549V210H187.299V145.425Z" fill="white"/>
<defs>
<linearGradient id="paint0_linear_4_227" x1="0" y1="0" x2="309" y2="309" gradientUnits="userSpaceOnUse">
<stop offset="0.1875" stop-color="#DD1E12"/>
<stop offset="0.854167" stop-color="#4E008B"/>
</linearGradient>
</defs>
</svg>
