<svg width="309" height="309" viewBox="0 0 309 309" fill="none" xmlns="http://www.w3.org/2000/svg">
<path d="M309 154.5C309 239.828 239.828 309 154.5 309C69.172 309 0 239.828 0 154.5C0 69.172 69.172 0 154.5 0C239.828 0 309 69.172 309 154.5Z" fill="url(#paint0_linear_4_67)"/>
<path d="M134.963 186.375C139.63 186.375 144.705 185.908 150.188 184.975C155.671 183.925 160.571 182.583 164.888 180.95V204.925C158.471 207.492 152.696 209.242 147.563 210.175C142.43 211.225 137.063 211.75 131.463 211.75C121.313 211.75 113.205 210.583 107.138 208.25C101.071 205.917 96.2296 202.183 92.6129 197.05C89.5796 192.617 87.3046 186.958 85.7879 180.075C84.3879 173.192 83.6879 164.85 83.6879 155.05C83.6879 135.45 87.8879 121.158 96.2879 112.175C104.805 103.075 118.28 98.525 136.713 98.525C142.08 98.525 146.863 98.6417 151.063 98.875C155.263 99.1083 159.055 99.5167 162.438 100.1V123.725C158.588 123.492 154.563 123.317 150.363 123.2C146.28 123.083 141.73 123.025 136.713 123.025C130.296 123.025 125.513 123.667 122.363 124.95C119.33 126.117 117.055 128.217 115.538 131.25C114.138 133.583 113.146 136.675 112.563 140.525C111.98 144.375 111.688 149.217 111.688 155.05C111.688 160.533 111.921 165.142 112.388 168.875C112.971 172.492 113.846 175.525 115.013 177.975C116.53 181.008 118.746 183.167 121.663 184.45C124.58 185.733 129.013 186.375 134.963 186.375ZM201.605 210H175.355V123.55H199.855L200.73 130.2H201.08C205.28 127.633 209.538 125.708 213.855 124.425C218.288 123.025 222.43 122.325 226.28 122.325H227.68V147.7C226.63 147.467 225.463 147.35 224.18 147.35C223.013 147.233 221.497 147.175 219.63 147.175C216.247 147.175 213.038 147.408 210.005 147.875C206.972 148.225 204.172 148.808 201.605 149.625V210Z" fill="white"/>
<defs>
<linearGradient id="paint0_linear_4_67" x1="0" y1="0" x2="309" y2="309" gradientUnits="userSpaceOnUse">
<stop offset="0.1875" stop-color="#DD1E12"/>
<stop offset="0.854167" stop-color="#4E008B"/>
</linearGradient>
</defs>
</svg>
