<svg width="309" height="309" viewBox="0 0 309 309" fill="none" xmlns="http://www.w3.org/2000/svg">
<path d="M309 154.5C309 239.828 239.828 309 154.5 309C69.172 309 0 239.828 0 154.5C0 69.172 69.172 0 154.5 0C239.828 0 309 69.172 309 154.5Z" fill="url(#paint0_linear_4_239)"/>
<path d="M174.448 163.8V100.275H201.573V163.8C201.573 179.783 197.665 191.8 189.848 199.85C182.031 207.783 170.306 211.75 154.673 211.75C138.223 211.75 126.206 207.958 118.623 200.375C111.156 192.792 107.423 180.6 107.423 163.8V100.275H134.548V163.8C134.548 172.667 135.89 178.675 138.573 181.825C141.373 184.858 146.74 186.375 154.673 186.375C162.49 186.375 167.74 184.858 170.423 181.825C173.106 178.675 174.448 172.667 174.448 163.8Z" fill="white"/>
<defs>
<linearGradient id="paint0_linear_4_239" x1="0" y1="0" x2="309" y2="309" gradientUnits="userSpaceOnUse">
<stop offset="0.1875" stop-color="#DD1E12"/>
<stop offset="0.854167" stop-color="#4E008B"/>
</linearGradient>
</defs>
</svg>
