<svg width="309" height="309" viewBox="0 0 309 309" fill="none" xmlns="http://www.w3.org/2000/svg">
<path d="M309 154.5C309 239.828 239.828 309 154.5 309C69.172 309 0 239.828 0 154.5C0 69.172 69.172 0 154.5 0C239.828 0 309 69.172 309 154.5Z" fill="url(#paint0_linear_4_312)"/>
<path d="M127.529 186.375C132.195 186.375 137.27 185.908 142.754 184.975C148.237 183.925 153.137 182.583 157.454 180.95V204.925C151.037 207.492 145.262 209.242 140.129 210.175C134.995 211.225 129.629 211.75 124.029 211.75C113.879 211.75 105.77 210.583 99.7038 208.25C93.6371 205.917 88.7955 202.183 85.1788 197.05C82.1455 192.617 79.8705 186.958 78.3538 180.075C76.9538 173.192 76.2538 164.85 76.2538 155.05C76.2538 135.45 80.4538 121.158 88.8538 112.175C97.3705 103.075 110.845 98.525 129.279 98.525C134.645 98.525 139.429 98.6417 143.629 98.875C147.829 99.1083 151.62 99.5167 155.004 100.1V123.725C151.154 123.492 147.129 123.317 142.929 123.2C138.845 123.083 134.295 123.025 129.279 123.025C122.862 123.025 118.079 123.667 114.929 124.95C111.895 126.117 109.62 128.217 108.104 131.25C106.704 133.583 105.712 136.675 105.129 140.525C104.545 144.375 104.254 149.217 104.254 155.05C104.254 160.533 104.487 165.142 104.954 168.875C105.537 172.492 106.412 175.525 107.579 177.975C109.095 181.008 111.312 183.167 114.229 184.45C117.145 185.733 121.579 186.375 127.529 186.375ZM203.096 144.025C198.196 144.025 194.871 144.433 193.121 145.25C191.488 145.95 190.671 147.642 190.671 150.325C190.671 151.375 190.963 152.25 191.546 152.95C192.246 153.533 193.179 153.883 194.346 154L215.171 156.8C221.938 157.733 226.663 159.95 229.346 163.45C232.146 166.833 233.546 172.258 233.546 179.725C233.546 190.925 231.038 199.092 226.021 204.225C221.004 209.242 212.254 211.75 199.771 211.75C192.888 211.75 186.646 211.458 181.046 210.875C175.563 210.408 170.896 209.708 167.046 208.775V186.025C169.963 186.725 173.988 187.367 179.121 187.95C184.371 188.417 189.679 188.65 195.046 188.65C199.829 188.65 203.038 188.183 204.671 187.25C206.421 186.2 207.296 184.275 207.296 181.475C207.296 180.542 207.004 179.783 206.421 179.2C205.838 178.5 205.079 178.092 204.146 177.975L182.621 175.175C176.321 174.358 171.713 172.083 168.796 168.35C165.996 164.5 164.596 158.842 164.596 151.375C164.596 141.575 167.688 134.225 173.871 129.325C180.054 124.308 189.213 121.8 201.346 121.8C206.129 121.8 210.563 121.917 214.646 122.15C218.729 122.383 223.046 122.85 227.596 123.55V145.425C224.679 144.958 221.063 144.608 216.746 144.375C212.429 144.142 207.879 144.025 203.096 144.025Z" fill="white"/>
<defs>
<linearGradient id="paint0_linear_4_312" x1="0" y1="0" x2="309" y2="309" gradientUnits="userSpaceOnUse">
<stop offset="0.1875" stop-color="#DD1E12"/>
<stop offset="0.854167" stop-color="#4E008B"/>
</linearGradient>
</defs>
</svg>
