<svg width="309" height="309" viewBox="0 0 309 309" fill="none" xmlns="http://www.w3.org/2000/svg">
<path d="M309 154.5C309 239.828 239.828 309 154.5 309C69.172 309 0 239.828 0 154.5C0 69.172 69.172 0 154.5 0C239.828 0 309 69.172 309 154.5Z" fill="url(#paint0_linear_4_187)"/>
<path d="M96.7145 210H69.5895V100.275H96.7145V142.1H135.214V100.275H162.339V210H135.214V166.6H96.7145V210ZM213.435 144.025C208.535 144.025 205.21 144.433 203.46 145.25C201.827 145.95 201.01 147.642 201.01 150.325C201.01 151.375 201.302 152.25 201.885 152.95C202.585 153.533 203.519 153.883 204.685 154L225.51 156.8C232.277 157.733 237.002 159.95 239.685 163.45C242.485 166.833 243.885 172.258 243.885 179.725C243.885 190.925 241.377 199.092 236.36 204.225C231.344 209.242 222.594 211.75 210.11 211.75C203.227 211.75 196.985 211.458 191.385 210.875C185.902 210.408 181.235 209.708 177.385 208.775V186.025C180.302 186.725 184.327 187.367 189.46 187.95C194.71 188.417 200.019 188.65 205.385 188.65C210.169 188.65 213.377 188.183 215.01 187.25C216.76 186.2 217.635 184.275 217.635 181.475C217.635 180.542 217.344 179.783 216.76 179.2C216.177 178.5 215.419 178.092 214.485 177.975L192.96 175.175C186.66 174.358 182.052 172.083 179.135 168.35C176.335 164.5 174.935 158.842 174.935 151.375C174.935 141.575 178.027 134.225 184.21 129.325C190.394 124.308 199.552 121.8 211.685 121.8C216.469 121.8 220.902 121.917 224.985 122.15C229.069 122.383 233.385 122.85 237.935 123.55V145.425C235.019 144.958 231.402 144.608 227.085 144.375C222.769 144.142 218.219 144.025 213.435 144.025Z" fill="white"/>
<defs>
<linearGradient id="paint0_linear_4_187" x1="0" y1="0" x2="309" y2="309" gradientUnits="userSpaceOnUse">
<stop offset="0.1875" stop-color="#DD1E12"/>
<stop offset="0.854167" stop-color="#4E008B"/>
</linearGradient>
</defs>
</svg>
