<svg width="309" height="309" viewBox="0 0 309 309" fill="none" xmlns="http://www.w3.org/2000/svg">
<path d="M309 154.5C309 239.828 239.828 309 154.5 309C69.172 309 0 239.828 0 154.5C0 69.172 69.172 0 154.5 0C239.828 0 309 69.172 309 154.5Z" fill="url(#paint0_linear_4_293)"/>
<path d="M109.12 210L80.2446 100.275H109.645L121.195 154.525C121.661 156.392 122.128 158.9 122.595 162.05C123.178 165.2 124.111 171.267 125.395 180.25C125.745 178.033 126.386 173.775 127.32 167.475C128.37 161.175 129.128 156.917 129.595 154.7L140.795 100.275H169.145L180.695 154.525C181.161 156.392 181.628 158.9 182.095 162.05C182.678 165.2 183.611 171.267 184.895 180.25C185.245 178.033 185.886 173.775 186.82 167.475C187.87 161.175 188.628 156.917 189.095 154.7L200.295 100.275H228.82L200.12 210H168.795L161.795 176.75C160.628 171.15 159.461 165.258 158.295 159.075C157.128 152.892 155.903 146.067 154.62 138.6C152.753 148.983 151.295 156.8 150.245 162.05C149.195 167.3 148.203 172.2 147.27 176.75L140.27 210H109.12Z" fill="white"/>
<defs>
<linearGradient id="paint0_linear_4_293" x1="0" y1="0" x2="309" y2="309" gradientUnits="userSpaceOnUse">
<stop offset="0.1875" stop-color="#DD1E12"/>
<stop offset="0.854167" stop-color="#4E008B"/>
</linearGradient>
</defs>
</svg>
