<svg width="309" height="309" viewBox="0 0 309 309" fill="none" xmlns="http://www.w3.org/2000/svg">
<path d="M309 154.5C309 239.828 239.828 309 154.5 309C69.172 309 0 239.828 0 154.5C0 69.172 69.172 0 154.5 0C239.828 0 309 69.172 309 154.5Z" fill="url(#paint0_linear_4_90)"/>
<path d="M90.1294 210H61.6044L102.204 100.275H130.379L169.929 210H141.579L135.804 191.625H95.9044L90.1294 210ZM115.679 127.225C114.746 130.492 113.696 133.992 112.529 137.725C111.479 141.342 109.671 147.292 107.104 155.575L102.554 170.1H128.979L124.429 155.575C122.913 151.142 121.396 146.475 119.879 141.575C118.363 136.558 116.963 131.775 115.679 127.225ZM212.495 144.025C207.595 144.025 204.27 144.433 202.52 145.25C200.887 145.95 200.07 147.642 200.07 150.325C200.07 151.375 200.362 152.25 200.945 152.95C201.645 153.533 202.579 153.883 203.745 154L224.57 156.8C231.337 157.733 236.062 159.95 238.745 163.45C241.545 166.833 242.945 172.258 242.945 179.725C242.945 190.925 240.437 199.092 235.42 204.225C230.404 209.242 221.654 211.75 209.17 211.75C202.287 211.75 196.045 211.458 190.445 210.875C184.962 210.408 180.295 209.708 176.445 208.775V186.025C179.362 186.725 183.387 187.367 188.52 187.95C193.77 188.417 199.079 188.65 204.445 188.65C209.229 188.65 212.437 188.183 214.07 187.25C215.82 186.2 216.695 184.275 216.695 181.475C216.695 180.542 216.404 179.783 215.82 179.2C215.237 178.5 214.479 178.092 213.545 177.975L192.02 175.175C185.72 174.358 181.112 172.083 178.195 168.35C175.395 164.5 173.995 158.842 173.995 151.375C173.995 141.575 177.087 134.225 183.27 129.325C189.454 124.308 198.612 121.8 210.745 121.8C215.529 121.8 219.962 121.917 224.045 122.15C228.129 122.383 232.445 122.85 236.995 123.55V145.425C234.079 144.958 230.462 144.608 226.145 144.375C221.829 144.142 217.279 144.025 212.495 144.025Z" fill="white"/>
<defs>
<linearGradient id="paint0_linear_4_90" x1="0" y1="0" x2="309" y2="309" gradientUnits="userSpaceOnUse">
<stop offset="0.1875" stop-color="#DD1E12"/>
<stop offset="0.854167" stop-color="#4E008B"/>
</linearGradient>
</defs>
</svg>
