<svg id="Layer_1" enable-background="new 0 0 512 512" height="25" viewBox="0 0 512 512" width="25" xmlns="http://www.w3.org/2000/svg"><g><g><path d="m504.5 464.23c0 7.73-6.27 14-14 14h-469c-3.86 0-7.36-1.57-9.9-4.1-2.53-2.53-4.1-6.03-4.1-9.9 0-7.74 6.27-14.01 14-14.01h469c3.86 0 7.36 1.57 9.9 4.1 2.53 2.54 4.1 6.04 4.1 9.91z" fill="#d77d41"/><path d="m500.4 454.32c2.53 2.54 4.1 6.04 4.1 9.91 0 7.73-6.27 14-14 14h-27c7.73 0 14-6.27 14-14 0-3.87-1.57-7.37-4.1-9.91-2.54-2.53-6.04-4.1-9.9-4.1h27c3.86 0 7.36 1.57 9.9 4.1z" fill="#b5612a"/></g><g><path d="m390.668 133.31-15.77-20.09 4.73-18.34-16.26-56.58c-.79-2.75-3.65-4.33-6.4-3.54l-26.48 7.61-76.82 22.07c-2.75.78-4.34 3.65-3.55 6.4l16.25 56.57 15.25 18.29-4.2 20.15 65.274 227.18 62.966-7.76 50.282-24.777z" fill="#d4e16c"/><path d="m455.94 360.493-21.034 6.043-91.778-317.186c-1.56-5.41-7.22-8.54-12.64-6.98l26.48-7.61c2.75-.79 5.61.79 6.4 3.54l16.26 56.58-4.73 18.34 15.77 20.09z" fill="#a4ce39"/><path d="m390.668 133.31-21.461 6.17-91.789 26.37-11.05-38.44 91.719-26.34 21.54-6.19z" fill="#fdeda5"/><path d="m470.818 412.27-14.878-51.777-113.248 32.537 9.776 34.03 6.53 22.72 108.27-31.1c2.75-.79 4.33-3.66 3.55-6.41z" fill="#56788b"/><path d="m467.267 418.68-108.27 31.1-6.53-22.72 71.68-21.67c11.21-3.39 17.61-15.17 14.36-26.42l-3.602-12.434 21.034-6.043 14.878 51.777c.781 2.75-.8 5.62-3.55 6.41z" fill="#415e6f"/><path d="m369.207 139.48-11.12-38.41 21.54-6.19 11.041 38.43z" fill="#fbdf63"/></g><g><path d="m255.286 96.248v353.97h-97.83v-359.45h92.35c3.03 0 5.48 2.45 5.48 5.48z" fill="#f9d11f"/><path d="m255.286 96.248v353.97h-21v-353.97c0-3.03-2.45-5.48-5.48-5.48h21c3.03 0 5.48 2.45 5.48 5.48z" fill="#ffa402"/><path d="m157.456 390.708h97.83v59.51h-97.83z" fill="#56788b"/><path d="m234.286 390.708h21v59.51h-117.83v-18.99h76.85c11.03 0 19.98-8.95 19.98-19.98z" fill="#415e6f"/><path d="m157.456 154.358h97.83v40h-97.83z" fill="#fdeda5"/><path d="m234.286 154.358h21v40h-21z" fill="#fbdf63"/></g><g><path d="m157.457 56.008v58.35l-10 20 10 20v246.35l-117.83-10v-236.35l10-20-10-20v-58.35c0-2.89 2.34-5.24 5.23-5.24h107.36c2.89 0 5.24 2.35 5.24 5.24z" fill="#ff6b81"/><path d="m157.457 56.008v58.35l-10 20 10 20v295.86h-117.83v-18.99h76.85c11.03 0 19.98-8.95 19.98-19.98v-355.24c0-2.89-2.35-5.24-5.24-5.24h21c2.89 0 5.24 2.35 5.24 5.24z" fill="#ed2061"/><path d="m39.627 390.708h117.83v59.51h-117.83z" fill="#56788b"/><path d="m39.627 114.358h117.83v40h-117.83z" fill="#fdeda5"/><path d="m136.457 114.358h21v40h-21z" fill="#fbdf63"/><path d="m136.457 390.708h21v59.51h-117.83v-18.99h76.85c11.03 0 19.98-8.95 19.98-19.98z" fill="#415e6f"/></g></g><g><path d="m490.5 442.726h-78.11l62.053-17.828c1.912-.549 3.527-1.835 4.491-3.576s1.196-3.792.647-5.704l-16.43-57.187c-.001-.003-.002-.006-.002-.009s-.002-.006-.003-.009l-48.69-169.471c-1.144-3.981-5.301-6.281-9.279-5.138-3.981 1.144-6.281 5.298-5.138 9.279l46.622 162.272-98.831 28.395-61.125-212.752 98.831-28.395 5.328 18.545c1.144 3.981 5.3 6.281 9.279 5.138 3.981-1.144 6.281-5.298 5.138-9.28l-36.002-125.31c-1.144-3.981-5.3-6.282-9.279-5.137l-113.249 32.538c-1.912.549-3.527 1.835-4.491 3.576-.963 1.74-1.196 3.792-.647 5.704l4.28 14.898h-80.938v-32.5c0-4.142-3.358-7.5-7.5-7.5h-117.828c-4.142 0-7.5 3.358-7.5 7.5v391.951h-10.627c-11.855 0-21.5 9.646-21.5 21.504s9.645 21.504 21.5 21.504h44.456c4.142 0 7.5-3.358 7.5-7.5s-3.358-7.5-7.5-7.5h-44.456c-3.584 0-6.5-2.917-6.5-6.504s2.916-6.504 6.5-6.504h469c3.584 0 6.5 2.917 6.5 6.504s-2.916 6.504-6.5 6.504h-389.458c-4.142 0-7.5 3.358-7.5 7.5s3.358 7.5 7.5 7.5h389.458c11.855 0 21.5-9.646 21.5-21.504s-9.645-21.504-21.5-21.504zm-109.106-314.539-98.831 28.395-6.903-24.028 98.831-28.395zm-24.461-85.139 13.416 46.694-98.831 28.395-13.416-46.695zm-191.976 55.226h82.829v48.584h-82.829zm0 63.584h82.829v25h-82.829zm-117.83-103.584h102.829v48.583h-102.829zm0 63.584h102.829v25h-102.829zm102.83 320.868h-102.83v-44.509h102.829v44.509zm97.829 0h-82.829v-44.509h82.829zm15 0v-160.253c0-4.142-3.358-7.5-7.5-7.5s-7.5 3.358-7.5 7.5v100.744h-82.829v-37.455c0-4.142-3.358-7.5-7.5-7.5s-7.5 3.358-7.5 7.5v37.455h-102.83v-221.359h102.829v149.435c0 4.142 3.358 7.5 7.5 7.5s7.5-3.358 7.5-7.5v-109.435h82.829v46.392c0 4.142 3.358 7.5 7.5 7.5s7.5-3.358 7.5-7.5v-106.182l72.693 253.017c.002.006.003.012.005.017.002.007.004.014.006.02l13.677 47.604zm89.185-44.558 98.831-28.395 12.291 42.779-98.832 28.395z"/><path d="m81.187 191.973c-4.142 0-7.5 3.358-7.5 7.5v146.311c0 4.142 3.358 7.5 7.5 7.5s7.5-3.358 7.5-7.5v-146.311c0-4.142-3.358-7.5-7.5-7.5z"/><path d="m115.897 215.128c-4.142 0-7.5 3.358-7.5 7.5v100c0 4.142 3.358 7.5 7.5 7.5s7.5-3.358 7.5-7.5v-100c0-4.142-3.357-7.5-7.5-7.5z"/><path d="m327.756 190.538c-3.981 1.144-6.281 5.298-5.138 9.279l40.401 140.623c.945 3.29 3.945 5.431 7.205 5.431.686 0 1.383-.095 2.074-.293 3.981-1.144 6.281-5.298 5.138-9.279l-40.401-140.623c-1.144-3.982-5.3-6.283-9.279-5.138z"/><path d="m397.191 314.031c.686 0 1.383-.095 2.074-.293 3.981-1.144 6.281-5.298 5.138-9.279l-27.614-96.112c-1.144-3.981-5.298-6.282-9.28-5.138-3.981 1.144-6.281 5.298-5.137 9.279l27.614 96.112c.946 3.289 3.946 5.431 7.205 5.431z"/><path d="m206.733 231.973c-4.142 0-7.5 3.358-7.5 7.5v106.311c0 4.142 3.358 7.5 7.5 7.5s7.5-3.358 7.5-7.5v-106.311c0-4.142-3.358-7.5-7.5-7.5z"/></g></svg>