<svg width="309" height="309" viewBox="0 0 309 309" fill="none" xmlns="http://www.w3.org/2000/svg">
<path d="M309 154.5C309 239.828 239.828 309 154.5 309C69.172 309 0 239.828 0 154.5C0 69.172 69.172 0 154.5 0C239.828 0 309 69.172 309 154.5Z" fill="url(#paint0_linear_3_23)"/>
<path d="M206.164 155.05C206.164 175 202.081 189.467 193.914 198.45C185.864 207.317 172.739 211.75 154.539 211.75C135.522 211.75 122.164 207.55 114.464 199.15C106.764 190.75 102.914 176.05 102.914 155.05C102.914 135.1 106.939 120.692 114.989 111.825C123.156 102.958 136.339 98.525 154.539 98.525C173.556 98.525 186.914 102.725 194.614 111.125C202.314 119.525 206.164 134.167 206.164 155.05ZM133.714 178.5C135.231 181.417 137.447 183.458 140.364 184.625C143.397 185.792 148.122 186.375 154.539 186.375C160.956 186.375 165.622 185.792 168.539 184.625C171.572 183.458 173.847 181.417 175.364 178.5C176.531 176.167 177.347 173.133 177.814 169.4C178.397 165.667 178.689 160.883 178.689 155.05C178.689 149.1 178.397 144.258 177.814 140.525C177.347 136.675 176.531 133.583 175.364 131.25C173.964 128.217 171.747 126.117 168.714 124.95C165.797 123.667 161.072 123.025 154.539 123.025C148.006 123.025 143.222 123.667 140.189 124.95C137.272 126.117 135.114 128.217 133.714 131.25C132.547 133.583 131.672 136.675 131.089 140.525C130.622 144.258 130.389 149.1 130.389 155.05C130.389 160.883 130.622 165.667 131.089 169.4C131.672 173.133 132.547 176.167 133.714 178.5Z" fill="white"/>
<defs>
<linearGradient id="paint0_linear_3_23" x1="0" y1="0" x2="309" y2="309" gradientUnits="userSpaceOnUse">
<stop offset="0.1875" stop-color="#DD1E12"/>
<stop offset="0.854167" stop-color="#4E008B"/>
</linearGradient>
</defs>
</svg>
