<svg width="309" height="309" viewBox="0 0 309 309" fill="none" xmlns="http://www.w3.org/2000/svg">
<path d="M309 154.5C309 239.828 239.828 309 154.5 309C69.172 309 0 239.828 0 154.5C0 69.172 69.172 0 154.5 0C239.828 0 309 69.172 309 154.5Z" fill="url(#paint0_linear_4_288)"/>
<path d="M83.1226 210H54.5976L95.1976 100.275H123.373L162.923 210H134.573L128.798 191.625H88.8976L83.1226 210ZM108.673 127.225C107.739 130.492 106.689 133.992 105.523 137.725C104.473 141.342 102.664 147.292 100.098 155.575L95.5476 170.1H121.973L117.423 155.575C115.906 151.142 114.389 146.475 112.873 141.575C111.356 136.558 109.956 131.775 108.673 127.225ZM197.309 211.75C187.509 211.75 180.159 209.358 175.259 204.575C170.475 199.675 168.084 192.325 168.084 182.525V123.55H194.334V179.025C194.334 181.942 195.209 184.042 196.959 185.325C198.709 186.608 201.509 187.25 205.359 187.25C207.575 187.25 209.909 187.075 212.359 186.725C214.925 186.375 217.492 185.85 220.059 185.15V123.55H246.309V210H221.809L221.109 205.275H220.759C216.675 207.258 212.534 208.833 208.334 210C204.25 211.167 200.575 211.75 197.309 211.75Z" fill="white"/>
<defs>
<linearGradient id="paint0_linear_4_288" x1="0" y1="0" x2="309" y2="309" gradientUnits="userSpaceOnUse">
<stop offset="0.1875" stop-color="#DD1E12"/>
<stop offset="0.854167" stop-color="#4E008B"/>
</linearGradient>
</defs>
</svg>
