<svg width="309" height="309" viewBox="0 0 309 309" fill="none" xmlns="http://www.w3.org/2000/svg">
<path d="M309 154.5C309 239.828 239.828 309 154.5 309C69.172 309 0 239.828 0 154.5C0 69.172 69.172 0 154.5 0C239.828 0 309 69.172 309 154.5Z" fill="url(#paint0_linear_4_300)"/>
<path d="M88.1695 210H61.0445V100.275H88.1695V142.1H126.67V100.275H153.795V210H126.67V166.6H88.1695V210ZM251.965 166.775C251.965 182.992 248.699 194.542 242.165 201.425C235.632 208.308 224.665 211.75 209.265 211.75C193.865 211.75 182.899 208.308 176.365 201.425C169.832 194.542 166.565 182.992 166.565 166.775C166.565 150.558 169.832 139.008 176.365 132.125C182.899 125.242 193.865 121.8 209.265 121.8C224.665 121.8 235.632 125.242 242.165 132.125C248.699 139.008 251.965 150.558 251.965 166.775ZM192.815 166.425C192.815 175.292 193.749 181.008 195.615 183.575C197.599 186.142 202.149 187.425 209.265 187.425C216.382 187.425 220.874 186.142 222.74 183.575C224.724 181.008 225.715 175.292 225.715 166.425C225.715 157.558 224.724 151.842 222.74 149.275C220.874 146.708 216.382 145.425 209.265 145.425C202.149 145.425 197.599 146.708 195.615 149.275C193.749 151.842 192.815 157.558 192.815 166.425Z" fill="white"/>
<defs>
<linearGradient id="paint0_linear_4_300" x1="0" y1="0" x2="309" y2="309" gradientUnits="userSpaceOnUse">
<stop offset="0.1875" stop-color="#DD1E12"/>
<stop offset="0.854167" stop-color="#4E008B"/>
</linearGradient>
</defs>
</svg>
