<svg height="512" viewBox="0 0 64 64" width="512" xmlns="http://www.w3.org/2000/svg"><g id="filled_outline" data-name="filled outline"><path d="m61 7v14a4.0335 4.0335 0 0 1 -4.07 4h-46.81l-7.12 4v-22a4.0335 4.0335 0 0 1 4.07-4h49.86a4.0335 4.0335 0 0 1 4.07 4z" fill="#348fd9"/><path d="m61 7v14a4.0335 4.0335 0 0 1 -4.07 4h-46.81l-7.12 4v-11h34a15.9785 15.9785 0 0 0 15.97-15h3.96a4.0335 4.0335 0 0 1 4.07 4z" opacity=".2"/><path d="m15 8 1.854 3.95 4.146.634-3 3.074.708 4.342-3.708-2.05-3.708 2.05.708-4.342-3-3.074 4.146-.634z" fill="#ffa912"/><path d="m32 8 1.854 3.95 4.146.634-3 3.074.708 4.342-3.708-2.05-3.708 2.05.708-4.342-3-3.074 4.146-.634z" fill="#ffa912"/><path d="m49 8 1.854 3.95 4.146.634-3 3.074.708 4.342-3.708-2.05-3.708 2.05.708-4.342-3-3.074 4.146-.634z" fill="#ffa912"/><g opacity=".1"><path d="m55 12.584-2.59-.396-2.41 2.47.689 4.226 2.019 1.116-.708-4.342z"/></g><g opacity=".1"><path d="m38 12.584-2.59-.396-2.41 2.47.689 4.226 2.019 1.116-.708-4.342z"/></g><g opacity=".1"><path d="m21 12.584-2.59-.396-2.41 2.47.689 4.226 2.019 1.116-.708-4.342z"/></g><path d="m61 39v22l-7.12-4h-46.81a4.0335 4.0335 0 0 1 -4.07-4v-14a4.0335 4.0335 0 0 1 4.07-4h49.86a4.0335 4.0335 0 0 1 4.07 4z" fill="#ffa912"/><path d="m61 39v22l-7.12-4h-46.81a4.0335 4.0335 0 0 1 -4.07-4v-2.5h31.5a18.518 18.518 0 0 0 18.26-15.5h4.17a4.0335 4.0335 0 0 1 4.07 4z" opacity=".2"/><g fill="#7a432a"><path d="m42 41h-24.83a1 1 0 0 1 0-2h24.83a1 1 0 0 1 0 2z"/><path d="m12.0635 41h-3.0635a1 1 0 0 1 0-2h3.0635a1 1 0 0 1 0 2z"/><path d="m39 49h-30a1 1 0 0 1 0-2h30a1 1 0 0 1 0 2z"/><path d="m39 45h-8.7236a1 1 0 1 1 0-2h8.7236a1 1 0 0 1 0 2z"/><path d="m27.2979 45h-18.2979a1 1 0 0 1 0-2h18.2979a1 1 0 0 1 0 2z"/><path d="m55.2979 53h-31.6163a1 1 0 0 1 0-2h31.6163a1 1 0 0 1 0 2z"/><path d="m20 53h-11a1 1 0 0 1 0-2h11a1 1 0 0 1 0 2z"/></g><path d="m46.2721 46.6317-3.5356.7071.7071-3.5355 14.1422-14.1421a2 2 0 0 1 2.8284 0 2 2 0 0 1 0 2.8284z" fill="#d6d6d4"/><path d="m60.4142 29.6611a2 2 0 0 0 -2.8284 0l-1.4142 1.4143 2.8284 2.8284 1.4142-1.4138a2 2 0 0 0 0-2.8289z" fill="#4d5e78"/><path d="m60.4142 29.6611a1.9755 1.9755 0 0 0 -.44-.3224 1.9812 1.9812 0 0 1 -.56 1.1509l-14.1421 14.1421-2.0772.4154-.4583 2.2917 3.5355-.7071 14.1421-14.1417a2 2 0 0 0 0-2.8289z" opacity=".2"/><path d="m24 4h1a1 1 0 0 0 0-2h-1a1 1 0 0 0 0 2z"/><path d="m56.93 2h-28.6321a1 1 0 0 0 0 2h28.6321a3.0389 3.0389 0 0 1 3.07 3v14a3.0389 3.0389 0 0 1 -3.07 3h-46.807a.9966.9966 0 0 0 -.4892.1279l-5.6338 3.1641v-20.292a3.0389 3.0389 0 0 1 3.07-3h12.93a1 1 0 0 0 0-2h-12.93a5.0413 5.0413 0 0 0 -5.07 5v22a1 1 0 0 0 1.4893.8721l6.8955-3.8721h46.5452a5.0413 5.0413 0 0 0 5.07-5v-14a5.0413 5.0413 0 0 0 -5.07-5z"/><path d="m15.9053 7.5752a1 1 0 0 0 -1.8106 0l-1.6279 3.4668-3.6182.5537a1 1 0 0 0 -.5644 1.6865l2.6474 2.7129-.6269 3.8438a1 1 0 0 0 1.4707 1.0361l3.2246-1.7822 3.2246 1.7822a.999.999 0 0 0 1.06-.0576 1.0016 1.0016 0 0 0 .4111-.9785l-.6269-3.8438 2.6474-2.7129a1 1 0 0 0 -.5644-1.6865l-3.6182-.5537zm1.3789 7.3848a1 1 0 0 0 -.2715.8593l.3769 2.31-1.9062-1.0537a.9972.9972 0 0 0 -.9668 0l-1.9066 1.0533.3769-2.31a1 1 0 0 0 -.2715-.8593l-1.6406-1.6817 2.2217-.34a.999.999 0 0 0 .7539-.5635l.9496-2.0209.9492 2.0215a.999.999 0 0 0 .7539.5635l2.2217.34z"/><path d="m38.9482 12.2666a1 1 0 0 0 -.7968-.6709l-3.6182-.5537-1.6279-3.4668a1 1 0 0 0 -1.8106 0l-1.6279 3.4668-3.6182.5537a1 1 0 0 0 -.5644 1.6865l2.6474 2.7129-.6269 3.8438a1 1 0 0 0 1.4707 1.0361l3.2246-1.7822 3.2246 1.7822a.999.999 0 0 0 1.06-.0576 1.0016 1.0016 0 0 0 .4111-.9785l-.6269-3.8438 2.6474-2.7129a.9993.9993 0 0 0 .232-1.0156zm-4.664 2.6934a1 1 0 0 0 -.2715.8593l.3769 2.31-1.9062-1.0537a.9972.9972 0 0 0 -.9668 0l-1.9066 1.0533.3769-2.31a1 1 0 0 0 -.2715-.8593l-1.6406-1.6817 2.2217-.34a.999.999 0 0 0 .7539-.5635l.9496-2.0209.9492 2.0215a.999.999 0 0 0 .7539.5635l2.2217.34z"/><path d="m55.9482 12.2666a1 1 0 0 0 -.7968-.6709l-3.6182-.5537-1.6279-3.4668a1 1 0 0 0 -1.8106 0l-1.6279 3.4668-3.6182.5537a1 1 0 0 0 -.5644 1.6865l2.6474 2.7129-.6269 3.8438a1 1 0 0 0 1.4707 1.0361l3.2246-1.7822 3.2246 1.7822a.999.999 0 0 0 1.06-.0576 1.0016 1.0016 0 0 0 .4111-.9785l-.6269-3.8438 2.6474-2.7129a.9993.9993 0 0 0 .232-1.0156zm-4.664 2.6934a1 1 0 0 0 -.2715.8593l.3769 2.31-1.9062-1.0537a.9972.9972 0 0 0 -.9668 0l-1.9066 1.0533.3769-2.31a1 1 0 0 0 -.2715-.8593l-1.6406-1.6817 2.2217-.34a.999.999 0 0 0 .7539-.5635l.9496-2.0209.9492 2.0215a.999.999 0 0 0 .7539.5635l2.2217.34z"/><path d="m17.0215 56h-9.9515a3.0389 3.0389 0 0 1 -3.07-3v-14a3.0389 3.0389 0 0 1 3.07-3h40.93a1 1 0 0 0 0-2h-40.93a5.0413 5.0413 0 0 0 -5.07 5v14a5.0413 5.0413 0 0 0 5.07 5h9.9512a1 1 0 1 0 0-2z"/><path d="m21.8506 56h-1.7012a1 1 0 0 0 0 2h1.7012a1 1 0 0 0 0-2z"/><path d="m59.5449 35.7783a1 1 0 0 0 -.1728 1.4033 2.9289 2.9289 0 0 1 .6279 1.8184v20.292l-5.6338-3.1641a.9966.9966 0 0 0 -.4892-.1279h-28.877a1 1 0 0 0 0 2h28.6152l6.8955 3.8721a1 1 0 0 0 1.4893-.8721v-22a4.9054 4.9054 0 0 0 -1.0518-3.0488.9986.9986 0 0 0 -1.4033-.1729z"/><path d="m43 40a1 1 0 0 0 -1-1h-24.83a1 1 0 0 0 0 2h24.83a1 1 0 0 0 1-1z"/><path d="m9 41h3.0635a1 1 0 0 0 0-2h-3.0635a1 1 0 0 0 0 2z"/><path d="m40 48a1 1 0 0 0 -1-1h-30a1 1 0 0 0 0 2h30a1 1 0 0 0 1-1z"/><path d="m39 43h-8.7236a1 1 0 1 0 0 2h8.7236a1 1 0 0 0 0-2z"/><path d="m9 45h18.2979a1 1 0 0 0 0-2h-18.2979a1 1 0 0 0 0 2z"/><path d="m56.2979 52a1 1 0 0 0 -1-1h-31.6163a1 1 0 0 0 0 2h31.6163a1 1 0 0 0 1-1z"/><path d="m9 51a1 1 0 0 0 0 2h11a1 1 0 0 0 0-2z"/><path d="m56.8789 28.9541-14.1426 14.1426a1.003 1.003 0 0 0 -.2734.5107l-.707 3.5352a1 1 0 0 0 .98 1.1963 1.0281 1.0281 0 0 0 .1963-.02l3.5362-.707a1.0034 1.0034 0 0 0 .5107-.2734l14.142-14.1412a3 3 0 1 0 -4.2422-4.2432zm-11.1 16.7568-1.7686.3536.3536-1.7676 11.808-11.8076 1.4141 1.4141zm13.9281-13.9287-.707.7071-1.4141-1.4141.7071-.707a1 1 0 1 1 1.414 1.414z"/></g></svg>