<svg width="309" height="309" viewBox="0 0 309 309" fill="none" xmlns="http://www.w3.org/2000/svg">
<path d="M309 154.5C309 239.828 239.828 309 154.5 309C69.172 309 0 239.828 0 154.5C0 69.172 69.172 0 154.5 0C239.828 0 309 69.172 309 154.5Z" fill="url(#paint0_linear_4_287)"/>
<path d="M87.8277 210H60.7027V100.275H87.8277V142.1H126.328V100.275H153.453V210H126.328V166.6H87.8277V210ZM208.399 238.35C202.215 238.35 196.265 237.942 190.549 237.125C184.949 236.308 180.34 235.258 176.724 233.975V211.75C179.524 212.567 183.724 213.267 189.324 213.85C195.04 214.433 200.699 214.725 206.299 214.725C212.599 214.725 216.915 213.792 219.249 211.925C221.582 210.058 222.807 206.617 222.924 201.6V197.4C218.257 199.617 213.765 201.308 209.449 202.475C205.132 203.525 200.932 204.05 196.849 204.05C185.765 204.05 177.89 200.958 173.224 194.775C168.674 188.475 166.399 177.858 166.399 162.925C166.399 148.108 169.665 137.55 176.199 131.25C182.849 124.95 193.99 121.8 209.624 121.8C215.807 121.8 222.924 122.15 230.974 122.85C239.14 123.55 245.207 124.308 249.174 125.125V193.375C249.174 210.058 246.14 221.725 240.074 228.375C234.007 235.025 223.449 238.35 208.399 238.35ZM209.624 145.425C201.807 145.425 197.024 146.3 195.274 148.05C193.524 149.8 192.649 154.758 192.649 162.925C192.649 170.275 193.407 174.942 194.924 176.925C196.44 178.792 200.115 179.725 205.949 179.725C208.165 179.725 210.674 179.492 213.474 179.025C216.39 178.558 219.54 177.917 222.924 177.1V146.475C221.174 146.125 219.19 145.892 216.974 145.775C214.757 145.542 212.307 145.425 209.624 145.425Z" fill="white"/>
<defs>
<linearGradient id="paint0_linear_4_287" x1="0" y1="0" x2="309" y2="309" gradientUnits="userSpaceOnUse">
<stop offset="0.1875" stop-color="#DD1E12"/>
<stop offset="0.854167" stop-color="#4E008B"/>
</linearGradient>
</defs>
</svg>
