<svg id="Capa_1" enable-background="new 0 0 511.995 511.995" height="512" viewBox="0 0 511.995 511.995" width="512" xmlns="http://www.w3.org/2000/svg"><g><g><path d="m100.078 504.495h-60.402c-17.771 0-32.177-14.406-32.177-32.177v-278.616c0-17.771 14.406-32.177 32.177-32.177h60.401l23.362 18.374v300.884z" fill="#b5dcff"/><path d="m472.318 161.525h-372.24c-17.771 0-32.177 14.406-32.177 32.177v278.617c0 17.771 14.406 32.177 32.177 32.177h372.241c17.771 0 32.177-14.406 32.177-32.177v-278.617c-.001-17.771-14.407-32.177-32.178-32.177z" fill="#dbedff"/><path d="m255.997 98.763-36.521-87.632c-.916-2.199-3.064-3.631-5.446-3.631h-40.687c-4.211 0-7.066 4.284-5.447 8.17l49.533 118.855 13.51 13.258h18.994l13.006-37.167z" fill="#ffaa5b"/><path d="m221.73 236.528h-141.592c-6.758 0-12.237 5.479-12.237 12.237v159.592c0 6.758 5.479 12.237 12.237 12.237h25.073l17.228-17.311h59.245l14.973 17.311h25.073c6.758 0 12.237-5.479 12.237-12.237v-159.592c.001-6.758-5.478-12.237-12.237-12.237z" fill="#6b7ed9"/><circle cx="150.934" cy="303.979" fill="#ffb1a0" r="30.75"/><path d="m148.192 334.806c-24.277 1.437-42.98 22.068-42.98 46.387v39.401h91.445v-40.147c0-26.056-22.089-47.203-48.465-45.641z" fill="#00c2fb"/><path d="m338.651 7.5h-40.687c-2.382 0-4.53 1.432-5.447 3.631l-51.425 123.394 8.84 13.258h33.006l11.625-13.258 49.535-118.855c1.62-3.886-1.236-8.17-5.447-8.17z" fill="#ffe02f"/><path d="m263.431 188.525h-60.315c-7.981 0-14.452-6.47-14.452-14.452v-25.096c0-7.982 6.47-14.452 14.452-14.452h60.315l12.675 10.092v30.833z" fill="#f3239b"/><path d="m308.879 134.525h-45.448c-7.982 0-14.452 6.47-14.452 14.452v25.096c0 7.982 6.47 14.452 14.452 14.452h45.448c7.981 0 14.452-6.47 14.452-14.452v-25.096c0-7.982-6.471-14.452-14.452-14.452z" fill="#ff4fb9"/></g><g><path d="m450.854 248.025h-103.079c-4.143 0-7.5 3.357-7.5 7.5s3.357 7.5 7.5 7.5h103.079c4.143 0 7.5-3.357 7.5-7.5s-3.357-7.5-7.5-7.5z"/><path d="m450.854 282.358h-103.079c-4.143 0-7.5 3.357-7.5 7.5s3.357 7.5 7.5 7.5h103.079c4.143 0 7.5-3.357 7.5-7.5s-3.357-7.5-7.5-7.5z"/><path d="m450.854 316.691h-103.079c-4.143 0-7.5 3.357-7.5 7.5s3.357 7.5 7.5 7.5h103.079c4.143 0 7.5-3.357 7.5-7.5s-3.357-7.5-7.5-7.5z"/><path d="m450.854 351.025h-103.079c-4.143 0-7.5 3.357-7.5 7.5s3.357 7.5 7.5 7.5h103.079c4.143 0 7.5-3.357 7.5-7.5s-3.357-7.5-7.5-7.5z"/><path d="m450.854 419.691h-103.079c-4.143 0-7.5 3.357-7.5 7.5s3.357 7.5 7.5 7.5h103.079c4.143 0 7.5-3.357 7.5-7.5s-3.357-7.5-7.5-7.5z"/><path d="m450.854 385.358h-103.079c-4.143 0-7.5 3.357-7.5 7.5s3.357 7.5 7.5 7.5h103.079c4.143 0 7.5-3.357 7.5-7.5s-3.357-7.5-7.5-7.5z"/><path d="m312.694 248.025h-28.456c-4.143 0-7.5 3.357-7.5 7.5s3.357 7.5 7.5 7.5h28.456c4.143 0 7.5-3.357 7.5-7.5s-3.357-7.5-7.5-7.5z"/><path d="m312.694 316.691h-28.456c-4.143 0-7.5 3.357-7.5 7.5s3.357 7.5 7.5 7.5h28.456c4.143 0 7.5-3.357 7.5-7.5s-3.357-7.5-7.5-7.5z"/><path d="m312.694 385.358h-28.456c-4.143 0-7.5 3.357-7.5 7.5s3.357 7.5 7.5 7.5h28.456c4.143 0 7.5-3.357 7.5-7.5s-3.357-7.5-7.5-7.5z"/><path d="m241.468 248.765c0-10.883-8.854-19.736-19.736-19.736h-53.297c-4.143 0-7.5 3.357-7.5 7.5s3.357 7.5 7.5 7.5h53.297c2.611 0 4.736 2.125 4.736 4.736v159.593c0 2.612-2.125 4.737-4.736 4.737h-17.574v-32.647c0-14.552-6.112-28.659-16.77-38.704-3.622-3.413-7.618-6.243-11.879-8.483 8.354-7.022 13.676-17.54 13.676-29.282 0-21.091-17.159-38.25-38.25-38.25s-38.25 17.159-38.25 38.25c0 11.759 5.338 22.291 13.713 29.313-17.091 9.025-28.685 27.171-28.685 47.902v31.901h-17.574c-2.612 0-4.737-2.125-4.737-4.737v-159.593c0-2.611 2.125-4.736 4.737-4.736h53.296c4.143 0 7.5-3.357 7.5-7.5s-3.357-7.5-7.5-7.5h-53.296c-10.883 0-19.737 8.854-19.737 19.736v159.593c0 10.883 8.854 19.737 19.737 19.737h141.593c10.883 0 19.736-8.854 19.736-19.737zm-90.533 31.964c12.82 0 23.25 10.43 23.25 23.25s-10.43 23.25-23.25 23.25-23.25-10.43-23.25-23.25 10.429-23.25 23.25-23.25zm38.222 132.366h-76.445v-31.901c0-20.621 15.779-37.708 35.924-38.9 10.586-.63 20.705 3.053 28.463 10.366 7.776 7.329 12.059 17.197 12.059 27.788v32.647z"/><path d="m472.319 154.025h-141.488v-5.048c0-12.104-9.848-21.952-21.951-21.952h-3.063l45.205-108.47c1.728-4.146 1.271-8.852-1.22-12.588s-6.659-5.967-11.15-5.967h-40.687c-5.426 0-10.281 3.236-12.37 8.246l-29.598 71.02-29.597-71.02-.001-.001c-2.087-5.009-6.943-8.245-12.369-8.245h-40.687c-4.491 0-8.659 2.231-11.15 5.968s-2.946 8.442-1.219 12.587l45.205 108.469h-3.063c-12.104 0-21.951 9.848-21.951 21.952v5.048h-141.488c-21.878.001-39.677 17.8-39.677 39.677v278.617c0 21.878 17.799 39.677 39.677 39.677h432.643c21.877 0 39.676-17.799 39.676-39.677v-130.627c0-4.143-3.357-7.5-7.5-7.5s-7.5 3.357-7.5 7.5v130.627c0 13.606-11.069 24.677-24.676 24.677h-432.643c-13.607 0-24.677-11.07-24.677-24.677v-278.617c0-13.606 11.07-24.676 24.677-24.676h141.488v5.048c0 12.104 9.848 21.952 21.951 21.952h105.764c12.104 0 21.951-9.848 21.951-21.952v-5.048h141.488c13.606 0 24.676 11.07 24.676 24.676v112.99c0 4.143 3.357 7.5 7.5 7.5s7.5-3.357 7.5-7.5v-112.99c0-21.877-17.799-39.676-39.676-39.676zm-173.288-139.025h37.222l-46.688 112.025h-37.221c2.439-5.85 44.079-105.767 46.687-112.025zm-123.288 0h37.222l34.908 83.762c-10.029 24.065-7.314 17.551-11.779 28.263h-13.663zm140.088 159.073c0 3.833-3.118 6.952-6.951 6.952h-105.764c-3.833 0-6.951-3.119-6.951-6.952 0-9.09 0-15.996 0-25.096 0-3.833 3.118-6.952 6.951-6.952h105.764c3.833 0 6.951 3.119 6.951 6.952z"/></g></g></svg>