<svg id="Layer_1" height="512" viewBox="0 0 512 512" width="512" xmlns="http://www.w3.org/2000/svg" data-name="Layer 1"><g fill-rule="evenodd"><path d="m151.059 222.739h243.925v-34.613c0-3.083 1.658-5.722 4.435-7.061s5.874-.993 8.287.928l85.347 67.919c1.933 1.538 2.958 3.664 2.958 6.134s-1.025 4.596-2.958 6.134l-85.347 67.919c-2.412 1.92-5.51 2.267-8.287.927-2.777-1.339-4.435-3.978-4.435-7.061v-34.613h-243.925c-6.338 0-11.524-5.186-11.524-11.524v-43.564c0-6.338 5.186-11.524 11.524-11.524z" fill="#ff3838"/><path d="m327.17 16.045h-280.856c-16.667 0-30.305 13.637-30.305 30.304v419.391c0 16.667 13.637 30.304 30.305 30.304h280.856c16.667 0 30.304-13.637 30.304-30.304v-83.267c0-6.611-5.392-12.003-12.003-12.003h-42.607c-6.611 0-12.003 5.392-12.003 12.003v46.959h-208.239v-346.775h208.241v46.96c0 6.61 5.392 12.003 12.003 12.003h42.607c6.611 0 12.003-5.392 12.003-12.003v-83.268c0-16.667-13.637-30.304-30.304-30.304z" fill="#ff3838"/><path d="m46.314 25.998c-11.202 0-20.311 9.109-20.311 20.311v419.392c0 11.188 9.109 20.296 20.311 20.296h280.849c11.197 0 20.311-9.109 20.311-20.296v-83.274c0-1.087-.924-1.997-2.011-1.997h-42.599c-1.093 0-2.002.909-2.002 1.997v46.964c0 5.519-4.48 9.999-9.999 9.999h-208.239c-5.534 0-10.004-4.48-10.004-9.999v-346.782c0-5.519 4.47-9.999 10.004-9.999h208.238c5.519 0 9.999 4.48 9.999 9.999v46.959c0 1.092.909 2.011 2.002 2.011h42.599c1.087 0 2.011-.919 2.011-2.011v-83.259c0-11.202-9.114-20.311-20.311-20.311zm280.849 480.002h-280.849c-22.231 0-40.314-18.078-40.314-40.299v-419.392c0-22.231 18.083-40.309 40.314-40.309h280.849c22.231 0 40.309 18.078 40.309 40.309v83.26c0 12.14-9.869 22.009-22.009 22.009h-42.599c-12.131 0-22-9.869-22-22.009v-36.96h-188.241v326.783h188.24v-36.965c0-12.126 9.869-21.995 22-21.995h42.599c12.14 0 22.009 9.869 22.009 21.995v83.274c0 22.221-18.078 40.299-40.309 40.299zm-176.109-273.299h253.927v-40.141l79.703 63.44-79.703 63.439v-40.131h-253.927c-.813 0-1.52-.707-1.52-1.53v-43.557c0-.813.707-1.521 1.52-1.521zm251.8 109.08c-2.632 0-5.293-.592-7.781-1.79-6.231-3.002-10.09-9.162-10.09-16.072v-24.608h-233.929c-11.871 0-21.519-9.662-21.519-21.533v-43.557c0-11.871 9.648-21.523 21.519-21.523h233.929v-24.617c0-6.91 3.859-13.069 10.09-16.072 6.217-2.998 13.449-2.19 18.858 2.108l85.334 67.924c4.331 3.46 6.737 8.406 6.737 13.959s-2.406 10.509-6.737 13.959l-85.343 67.919c-3.229 2.579-7.131 3.903-11.067 3.903z"/></g></svg>