<svg width="309" height="309" viewBox="0 0 309 309" fill="none" xmlns="http://www.w3.org/2000/svg">
<path d="M309 154.5C309 239.828 239.828 309 154.5 309C69.172 309 0 239.828 0 154.5C0 69.172 69.172 0 154.5 0C239.828 0 309 69.172 309 154.5Z" fill="url(#paint0_linear_4_182)"/>
<path d="M153.498 100.275V210H127.598L84.1979 146.65V210H58.8229V100.275H84.5479L128.123 166.075V100.275H153.498ZM195.624 210H169.374V93.625H195.624V129.675C199.94 127.225 204.374 125.3 208.924 123.9C213.59 122.5 218.024 121.8 222.224 121.8C232.024 121.8 239.315 124.133 244.099 128.8C248.999 133.467 251.449 140.583 251.449 150.15V210H225.199V153.65C225.199 150.733 224.324 148.633 222.574 147.35C220.824 146.067 218.024 145.425 214.174 145.425C211.257 145.425 208.165 145.717 204.899 146.3C201.632 146.767 198.54 147.408 195.624 148.225V210Z" fill="white"/>
<defs>
<linearGradient id="paint0_linear_4_182" x1="0" y1="0" x2="309" y2="309" gradientUnits="userSpaceOnUse">
<stop offset="0.1875" stop-color="#DD1E12"/>
<stop offset="0.854167" stop-color="#4E008B"/>
</linearGradient>
</defs>
</svg>
