<svg width="309" height="309" viewBox="0 0 309 309" fill="none" xmlns="http://www.w3.org/2000/svg">
<path d="M309 154.5C309 239.828 239.828 309 154.5 309C69.172 309 0 239.828 0 154.5C0 69.172 69.172 0 154.5 0C239.828 0 309 69.172 309 154.5Z" fill="url(#paint0_linear_3_14)"/>
<path d="M91.5875 210H64.4625V100.275H91.5875V142.1H130.088V100.275H157.213V210H130.088V166.6H91.5875V210ZM244.708 184.45V205.275C241.908 207.025 237.183 208.542 230.533 209.825C223.883 211.108 216.883 211.75 209.533 211.75C195.533 211.75 185.442 208.25 179.258 201.25C173.075 194.133 169.983 182.642 169.983 166.775C169.983 151.258 173.25 139.883 179.783 132.65C186.317 125.417 196.642 121.8 210.758 121.8C224.525 121.8 234.208 124.542 239.808 130.025C245.525 135.392 248.383 144.958 248.383 158.725C248.383 162.458 248.325 165.433 248.208 167.65C248.092 169.867 247.858 172.433 247.508 175.35H196.408C196.525 180.133 197.808 183.458 200.258 185.325C202.708 187.192 207.2 188.125 213.733 188.125C219.333 188.125 225.05 187.775 230.883 187.075C236.717 186.258 241.325 185.383 244.708 184.45ZM210.758 144.2C205.158 144.2 201.367 145.192 199.383 147.175C197.4 149.042 196.408 152.775 196.408 158.375H224.583V154.525C224.467 150.442 223.475 147.7 221.608 146.3C219.858 144.9 216.242 144.2 210.758 144.2Z" fill="white"/>
<defs>
<linearGradient id="paint0_linear_3_14" x1="0" y1="0" x2="309" y2="309" gradientUnits="userSpaceOnUse">
<stop offset="0.1875" stop-color="#DD1E12"/>
<stop offset="0.854167" stop-color="#4E008B"/>
</linearGradient>
</defs>
</svg>
