<svg width="309" height="309" viewBox="0 0 309 309" fill="none" xmlns="http://www.w3.org/2000/svg">
<path d="M309 154.5C309 239.828 239.828 309 154.5 309C69.172 309 0 239.828 0 154.5C0 69.172 69.172 0 154.5 0C239.828 0 309 69.172 309 154.5Z" fill="url(#paint0_linear_4_180)"/>
<path d="M171.97 100.275V210H146.595V144.2L127.87 189H105.82L87.4449 144.2V210H62.0699V100.275H95.1449L117.37 155.575L140.12 100.275H171.97ZM252.056 183.575V205.275C249.256 207.025 244.706 208.542 238.406 209.825C232.106 211.108 225.631 211.75 218.981 211.75C206.381 211.75 197.514 208.425 192.381 201.775C187.364 195.008 184.856 183.342 184.856 166.775C184.856 150.208 188.122 138.6 194.656 131.95C201.189 125.183 212.622 121.8 228.956 121.8C232.922 121.8 236.481 121.917 239.631 122.15C242.781 122.267 246.164 122.558 249.781 123.025V146.3C244.064 145.833 239.922 145.6 237.356 145.6C234.789 145.483 231.989 145.425 228.956 145.425C220.906 145.425 215.889 146.592 213.906 148.925C212.039 151.142 211.106 157.092 211.106 166.775C211.106 175.525 211.864 181.125 213.381 183.575C215.014 186.025 218.689 187.25 224.406 187.25C229.072 187.25 233.914 186.9 238.931 186.2C244.064 185.5 248.439 184.625 252.056 183.575Z" fill="white"/>
<defs>
<linearGradient id="paint0_linear_4_180" x1="0" y1="0" x2="309" y2="309" gradientUnits="userSpaceOnUse">
<stop offset="0.1875" stop-color="#DD1E12"/>
<stop offset="0.854167" stop-color="#4E008B"/>
</linearGradient>
</defs>
</svg>
