<svg width="309" height="309" viewBox="0 0 309 309" fill="none" xmlns="http://www.w3.org/2000/svg">
<path d="M309 154.5C309 239.828 239.828 309 154.5 309C69.172 309 0 239.828 0 154.5C0 69.172 69.172 0 154.5 0C239.828 0 309 69.172 309 154.5Z" fill="url(#paint0_linear_4_186)"/>
<path d="M176.157 100.275V210H150.782V144.2L132.057 189H110.007L91.6319 144.2V210H66.2569V100.275H99.3319L121.557 155.575L144.307 100.275H176.157ZM197.618 145.425H187.468V123.55H198.493L201.818 103.425H223.868V123.55H248.368V145.425H223.868V179.025C223.868 182.292 224.684 184.508 226.318 185.675C228.068 186.725 231.451 187.25 236.468 187.25C238.218 187.25 240.376 187.133 242.943 186.9C245.509 186.55 247.668 186.2 249.418 185.85V208.25C247.551 209.067 244.634 209.825 240.668 210.525C236.818 211.342 233.376 211.75 230.343 211.75C218.676 211.75 210.276 209.3 205.143 204.4C200.126 199.383 197.618 191.275 197.618 180.075V145.425Z" fill="white"/>
<defs>
<linearGradient id="paint0_linear_4_186" x1="0" y1="0" x2="309" y2="309" gradientUnits="userSpaceOnUse">
<stop offset="0.1875" stop-color="#DD1E12"/>
<stop offset="0.854167" stop-color="#4E008B"/>
</linearGradient>
</defs>
</svg>
