<svg width="309" height="309" viewBox="0 0 309 309" fill="none" xmlns="http://www.w3.org/2000/svg">
<path d="M309 154.5C309 239.828 239.828 309 154.5 309C69.172 309 0 239.828 0 154.5C0 69.172 69.172 0 154.5 0C239.828 0 309 69.172 309 154.5Z" fill="url(#paint0_linear_4_282)"/>
<path d="M98.1616 210H69.6366L110.237 100.275H138.412L177.962 210H149.612L143.837 191.625H103.937L98.1616 210ZM123.712 127.225C122.778 130.492 121.728 133.992 120.562 137.725C119.512 141.342 117.703 147.292 115.137 155.575L110.587 170.1H137.012L132.462 155.575C130.945 151.142 129.428 146.475 127.912 141.575C126.395 136.558 124.995 131.775 123.712 127.225ZM185.313 145.425H175.163V123.55H186.188L189.513 103.425H211.563V123.55H236.063V145.425H211.563V179.025C211.563 182.292 212.38 184.508 214.013 185.675C215.763 186.725 219.146 187.25 224.163 187.25C225.913 187.25 228.071 187.133 230.638 186.9C233.205 186.55 235.363 186.2 237.113 185.85V208.25C235.246 209.067 232.33 209.825 228.363 210.525C224.513 211.342 221.071 211.75 218.038 211.75C206.371 211.75 197.971 209.3 192.838 204.4C187.821 199.383 185.313 191.275 185.313 180.075V145.425Z" fill="white"/>
<defs>
<linearGradient id="paint0_linear_4_282" x1="0" y1="0" x2="309" y2="309" gradientUnits="userSpaceOnUse">
<stop offset="0.1875" stop-color="#DD1E12"/>
<stop offset="0.854167" stop-color="#4E008B"/>
</linearGradient>
</defs>
</svg>
