<svg width="309" height="309" viewBox="0 0 309 309" fill="none" xmlns="http://www.w3.org/2000/svg">
<path d="M309 154.5C309 239.828 239.828 309 154.5 309C69.172 309 0 239.828 0 154.5C0 69.172 69.172 0 154.5 0C239.828 0 309 69.172 309 154.5Z" fill="url(#paint0_linear_4_41)"/>
<path d="M97.5635 210H69.0385L109.638 100.275H137.813L177.363 210H149.013L143.238 191.625H103.338L97.5635 210ZM123.113 127.225C122.18 130.492 121.13 133.992 119.963 137.725C118.913 141.342 117.105 147.292 114.538 155.575L109.988 170.1H136.413L131.863 155.575C130.347 151.142 128.83 146.475 127.313 141.575C125.797 136.558 124.397 131.775 123.113 127.225ZM211.004 210H184.754V123.55H209.254L210.129 130.2H210.479C214.679 127.633 218.938 125.708 223.254 124.425C227.688 123.025 231.829 122.325 235.679 122.325H237.079V147.7C236.029 147.467 234.863 147.35 233.579 147.35C232.413 147.233 230.896 147.175 229.029 147.175C225.646 147.175 222.438 147.408 219.404 147.875C216.371 148.225 213.571 148.808 211.004 149.625V210Z" fill="white"/>
<defs>
<linearGradient id="paint0_linear_4_41" x1="0" y1="0" x2="309" y2="309" gradientUnits="userSpaceOnUse">
<stop offset="0.1875" stop-color="#DD1E12"/>
<stop offset="0.854167" stop-color="#4E008B"/>
</linearGradient>
</defs>
</svg>
