<svg width="309" height="309" viewBox="0 0 309 309" fill="none" xmlns="http://www.w3.org/2000/svg">
<path d="M309 154.5C309 239.828 239.828 309 154.5 309C69.172 309 0 239.828 0 154.5C0 69.172 69.172 0 154.5 0C239.828 0 309 69.172 309 154.5Z" fill="url(#paint0_linear_4_301)"/>
<path d="M103.898 210H65.5733V100.275H103.898C115.098 100.275 123.965 101.208 130.498 103.075C137.148 104.942 142.457 107.917 146.423 112C150.39 116.083 153.248 121.625 154.998 128.625C156.865 135.508 157.798 144.317 157.798 155.05C157.798 174.067 153.54 188.008 145.023 196.875C136.507 205.625 122.798 210 103.898 210ZM125.423 131.775C123.79 129.325 121.398 127.575 118.248 126.525C115.098 125.358 110.315 124.775 103.898 124.775H92.6983V184.625H103.898C110.198 184.625 114.923 184.1 118.073 183.05C121.223 182 123.673 180.308 125.423 177.975C126.94 175.758 128.048 172.842 128.748 169.225C129.448 165.492 129.798 160.767 129.798 155.05C129.798 149.217 129.448 144.492 128.748 140.875C128.048 137.142 126.94 134.108 125.423 131.775ZM181.697 215.95C185.78 215.95 188.755 215.367 190.622 214.2C192.605 213.15 193.947 211.167 194.647 208.25L162.097 123.55H191.322L207.947 182.7L223.697 123.55H251.872L221.072 211.75C217.805 221.2 213.488 227.967 208.122 232.05C202.872 236.25 195.872 238.35 187.122 238.35C184.672 238.35 182.105 238.233 179.422 238C176.855 237.767 174.522 237.417 172.422 236.95V215.6C173.355 215.717 174.405 215.775 175.572 215.775C176.738 215.892 178.78 215.95 181.697 215.95Z" fill="white"/>
<defs>
<linearGradient id="paint0_linear_4_301" x1="0" y1="0" x2="309" y2="309" gradientUnits="userSpaceOnUse">
<stop offset="0.1875" stop-color="#DD1E12"/>
<stop offset="0.854167" stop-color="#4E008B"/>
</linearGradient>
</defs>
</svg>
