<svg id="Capa_1" enable-background="new 0 0 512 512" height="512" viewBox="0 0 512 512" width="512" xmlns="http://www.w3.org/2000/svg"><g><g><path d="m387.98 504.5h-273.96c-18.317 0-33.166-14.849-33.166-33.166v-430.668c0-18.317 14.849-33.166 33.166-33.166h273.96c18.317 0 33.166 14.849 33.166 33.166v430.669c0 18.316-14.849 33.165-33.166 33.165z" fill="#b5adb6"/><path d="m347.287 173.039h-194.808c-13.083 0-23.69-10.606-23.69-23.69v-71.748c0-13.083 10.606-23.69 23.69-23.69h194.808c13.083 0 23.69 10.606 23.69 23.69v71.748c0 13.084-10.606 23.69-23.69 23.69z" fill="#8ac9fe"/><path d="m357.287 53.911h-22c13.083 0 23.69 10.606 23.69 23.69v71.748c0 13.083-10.606 23.69-23.69 23.69h22c13.083 0 23.69-10.606 23.69-23.69v-71.748c0-13.083-10.606-23.69-23.69-23.69z" fill="#60b7ff"/><path d="m397.98 7.5h-30c18.317 0 33.166 14.849 33.166 33.166v430.669c0 18.317-14.849 33.166-33.166 33.166h30c18.317 0 33.166-14.849 33.166-33.166v-430.669c0-18.317-14.849-33.166-33.166-33.166z" fill="#9b8e99"/><path d="m203.503 320.923h-51.024c-13.083 0-23.69-10.606-23.69-23.69v-61.024c0-13.083 10.606-23.69 23.69-23.69h51.024c13.083 0 23.69 10.606 23.69 23.69v61.024c0 13.084-10.606 23.69-23.69 23.69z" fill="#efedef"/><path d="m203.503 464.707h-51.024c-13.083 0-23.69-10.606-23.69-23.69v-61.024c0-13.083 10.606-23.69 23.69-23.69h51.024c13.083 0 23.69 10.606 23.69 23.69v61.024c0 13.083-10.606 23.69-23.69 23.69z" fill="#efedef"/><path d="m347.287 464.707h-51.024c-13.083 0-23.69-10.606-23.69-23.69v-61.024c0-13.083 10.606-23.69 23.69-23.69h51.024c13.083 0 23.69 10.606 23.69 23.69v61.024c0 13.083-10.606 23.69-23.69 23.69z" fill="#fd8087"/><path d="m347.287 320.923h-51.024c-13.083 0-23.69-10.606-23.69-23.69v-61.024c0-13.083 10.606-23.69 23.69-23.69h51.024c13.083 0 23.69 10.606 23.69 23.69v61.024c0 13.084-10.606 23.69-23.69 23.69z" fill="#efedef"/><g fill="#d7d0d6"><path d="m357.287 212.519h-22c13.083 0 23.69 10.606 23.69 23.69v61.024c0 13.084-10.606 23.69-23.69 23.69h22c13.083 0 23.69-10.606 23.69-23.69v-61.024c0-13.084-10.606-23.69-23.69-23.69z"/><path d="m213.503 212.519h-22c13.084 0 23.69 10.606 23.69 23.69v61.024c0 13.084-10.606 23.69-23.69 23.69h22c13.084 0 23.69-10.606 23.69-23.69v-61.024c0-13.084-10.606-23.69-23.69-23.69z"/><path d="m213.503 356.303h-22c13.084 0 23.69 10.606 23.69 23.69v61.024c0 13.083-10.606 23.69-23.69 23.69h22c13.084 0 23.69-10.606 23.69-23.69v-61.024c0-13.084-10.606-23.69-23.69-23.69z"/></g><path d="m357.287 356.303h-22c13.083 0 23.69 10.606 23.69 23.69v61.024c0 13.083-10.606 23.69-23.69 23.69h22c13.084 0 23.69-10.606 23.69-23.69v-61.024c0-13.084-10.606-23.69-23.69-23.69z" fill="#fe646f"/></g><g id="_x31_6_calculator_1_"><path d="m347.236 148.392c4.142 0 7.5-3.358 7.5-7.5s-3.358-7.5-7.5-7.5h-50.997c-4.142 0-7.5 3.358-7.5 7.5s3.358 7.5 7.5 7.5z"/><path d="m159.479 274.221h16.012v16.012c0 4.142 3.358 7.5 7.5 7.5s7.5-3.358 7.5-7.5v-16.012h16.012c4.142 0 7.5-3.358 7.5-7.5s-3.358-7.5-7.5-7.5h-16.012v-16.012c0-4.142-3.358-7.5-7.5-7.5s-7.5 3.358-7.5 7.5v16.012h-16.012c-4.142 0-7.5 3.358-7.5 7.5s3.358 7.5 7.5 7.5z"/><path d="m350.287 389.552h-47.024c-4.142 0-7.5 3.358-7.5 7.5s3.358 7.5 7.5 7.5h47.024c4.142 0 7.5-3.358 7.5-7.5s-3.358-7.5-7.5-7.5z"/><path d="m350.287 416.457h-47.024c-4.142 0-7.5 3.358-7.5 7.5s3.358 7.5 7.5 7.5h47.024c4.142 0 7.5-3.358 7.5-7.5s-3.358-7.5-7.5-7.5z"/><path d="m161.063 432.434c1.464 1.464 3.384 2.197 5.303 2.197s3.839-.733 5.303-2.197l11.322-11.322 11.322 11.322c1.464 1.464 3.384 2.197 5.303 2.197s3.839-.733 5.303-2.197c2.929-2.929 2.929-7.678 0-10.607l-11.322-11.322 11.322-11.322c2.929-2.929 2.929-7.678 0-10.606-2.929-2.929-7.678-2.929-10.606 0l-11.322 11.322-11.322-11.322c-2.929-2.929-7.678-2.929-10.606 0-2.929 2.929-2.929 7.678 0 10.606l11.322 11.322-11.322 11.322c-2.93 2.929-2.93 7.678 0 10.607z"/><path d="m388.477 236.209c0-17.198-13.992-31.19-31.19-31.19h-61.024c-17.198 0-31.189 13.992-31.189 31.19v61.024c0 17.198 13.992 31.19 31.189 31.19h61.024c17.198 0 31.19-13.992 31.19-31.19zm-15 61.024c0 8.927-7.263 16.19-16.19 16.19h-61.024c-8.927 0-16.189-7.263-16.189-16.19v-61.024c0-8.927 7.263-16.19 16.189-16.19h61.024c8.927 0 16.19 7.263 16.19 16.19z"/><path d="m350.287 259.221h-47.024c-4.142 0-7.5 3.358-7.5 7.5s3.358 7.5 7.5 7.5h47.024c4.142 0 7.5-3.358 7.5-7.5s-3.358-7.5-7.5-7.5z"/><path d="m121.29 297.233c0 17.198 13.992 31.19 31.189 31.19h61.024c17.198 0 31.19-13.992 31.19-31.19v-61.024c0-17.198-13.992-31.19-31.19-31.19h-61.024c-17.198 0-31.189 13.992-31.189 31.19zm15-61.024c0-8.927 7.263-16.19 16.189-16.19h61.024c8.927 0 16.19 7.263 16.19 16.19v61.024c0 8.927-7.263 16.19-16.19 16.19h-61.024c-8.927 0-16.189-7.263-16.189-16.19z"/><path d="m121.29 441.017c0 17.198 13.992 31.189 31.189 31.189h61.024c17.198 0 31.19-13.992 31.19-31.189v-61.024c0-17.198-13.992-31.19-31.19-31.19h-61.024c-17.198 0-31.189 13.992-31.189 31.19zm15-61.024c0-8.927 7.263-16.19 16.189-16.19h61.024c8.927 0 16.19 7.263 16.19 16.19v61.024c0 8.927-7.263 16.189-16.19 16.189h-61.024c-8.927 0-16.189-7.263-16.189-16.189z"/><path d="m357.287 348.803h-61.024c-17.198 0-31.189 13.992-31.189 31.19v61.024c0 17.198 13.992 31.189 31.189 31.189h61.024c17.198 0 31.19-13.992 31.19-31.189v-61.024c0-17.199-13.992-31.19-31.19-31.19zm16.19 92.214c0 8.927-7.263 16.189-16.19 16.189h-61.024c-8.927 0-16.189-7.263-16.189-16.189v-61.024c0-8.927 7.263-16.19 16.189-16.19h61.024c8.927 0 16.19 7.263 16.19 16.19z"/><path d="m397.98 0h-283.96c-22.423 0-40.666 18.243-40.666 40.666v312.141c0 4.142 3.358 7.5 7.5 7.5s7.5-3.358 7.5-7.5v-312.141c0-14.152 11.514-25.666 25.666-25.666h283.96c14.152 0 25.665 11.514 25.665 25.666v430.669c0 14.152-11.514 25.665-25.665 25.665h-54.862c-4.142 0-7.5 3.358-7.5 7.5s3.358 7.5 7.5 7.5h54.862c22.423 0 40.665-18.243 40.665-40.665v-430.669c.001-22.423-18.242-40.666-40.665-40.666z"/><path d="m310.432 497h-196.412c-14.152 0-25.666-11.514-25.666-25.665v-85.842c0-4.142-3.358-7.5-7.5-7.5s-7.5 3.358-7.5 7.5v85.842c0 22.423 18.243 40.665 40.666 40.665h196.412c4.142 0 7.5-3.358 7.5-7.5s-3.358-7.5-7.5-7.5z"/><path d="m152.479 61.411h127.728c4.142 0 7.5-3.358 7.5-7.5s-3.358-7.5-7.5-7.5h-127.728c-17.198 0-31.189 13.992-31.189 31.19v71.748c0 17.198 13.992 31.189 31.189 31.189h204.808c17.198 0 31.19-13.992 31.19-31.189v-71.748c0-17.198-13.992-31.19-31.19-31.19h-44.705c-4.142 0-7.5 3.358-7.5 7.5s3.358 7.5 7.5 7.5h44.705c8.927 0 16.19 7.263 16.19 16.19v71.748c0 8.927-7.263 16.189-16.19 16.189h-204.808c-8.927 0-16.189-7.263-16.189-16.189v-71.748c0-8.927 7.262-16.19 16.189-16.19z"/></g></g></svg>