<svg width="309" height="309" viewBox="0 0 309 309" fill="none" xmlns="http://www.w3.org/2000/svg">
<path d="M309 154.5C309 239.828 239.828 309 154.5 309C69.172 309 0 239.828 0 154.5C0 69.172 69.172 0 154.5 0C239.828 0 309 69.172 309 154.5Z" fill="url(#paint0_linear_4_65)"/>
<path d="M104.661 170.1V210H77.5362V100.275H151.561V124.775H104.661V147.35H145.086V170.1H104.661ZM231.635 184.45V205.275C228.835 207.025 224.11 208.542 217.46 209.825C210.81 211.108 203.81 211.75 196.46 211.75C182.46 211.75 172.368 208.25 166.185 201.25C160.001 194.133 156.91 182.642 156.91 166.775C156.91 151.258 160.176 139.883 166.71 132.65C173.243 125.417 183.568 121.8 197.685 121.8C211.451 121.8 221.135 124.542 226.735 130.025C232.451 135.392 235.31 144.958 235.31 158.725C235.31 162.458 235.251 165.433 235.135 167.65C235.018 169.867 234.785 172.433 234.435 175.35H183.335C183.451 180.133 184.735 183.458 187.185 185.325C189.635 187.192 194.126 188.125 200.66 188.125C206.26 188.125 211.976 187.775 217.81 187.075C223.643 186.258 228.251 185.383 231.635 184.45ZM197.685 144.2C192.085 144.2 188.293 145.192 186.31 147.175C184.326 149.042 183.335 152.775 183.335 158.375H211.51V154.525C211.393 150.442 210.401 147.7 208.535 146.3C206.785 144.9 203.168 144.2 197.685 144.2Z" fill="white"/>
<defs>
<linearGradient id="paint0_linear_4_65" x1="0" y1="0" x2="309" y2="309" gradientUnits="userSpaceOnUse">
<stop offset="0.1875" stop-color="#DD1E12"/>
<stop offset="0.854167" stop-color="#4E008B"/>
</linearGradient>
</defs>
</svg>
