<svg width="309" height="309" viewBox="0 0 309 309" fill="none" xmlns="http://www.w3.org/2000/svg">
<path d="M309 154.5C309 239.828 239.828 309 154.5 309C69.172 309 0 239.828 0 154.5C0 69.172 69.172 0 154.5 0C239.828 0 309 69.172 309 154.5Z" fill="url(#paint0_linear_4_44)"/>
<path d="M140.977 179.2V210H113.852V100.275H153.927C170.844 100.275 182.86 103.25 189.977 109.2C197.094 115.033 200.652 124.892 200.652 138.775C200.652 152.542 196.86 162.75 189.277 169.4C181.81 175.933 170.202 179.2 154.452 179.2H140.977ZM173.177 138.775C173.177 133.642 171.777 130.025 168.977 127.925C166.177 125.825 161.16 124.775 153.927 124.775H140.977V155.4H153.927C161.277 155.4 166.294 154.175 168.977 151.725C171.777 149.275 173.177 144.958 173.177 138.775Z" fill="white"/>
<defs>
<linearGradient id="paint0_linear_4_44" x1="0" y1="0" x2="309" y2="309" gradientUnits="userSpaceOnUse">
<stop offset="0.1875" stop-color="#DD1E12"/>
<stop offset="0.854167" stop-color="#4E008B"/>
</linearGradient>
</defs>
</svg>
