<svg width="309" height="309" viewBox="0 0 309 309" fill="none" xmlns="http://www.w3.org/2000/svg">
<path d="M309 154.5C309 239.828 239.828 309 154.5 309C69.172 309 0 239.828 0 154.5C0 69.172 69.172 0 154.5 0C239.828 0 309 69.172 309 154.5Z" fill="url(#paint0_linear_4_131)"/>
<path d="M162.4 100.275V210H137.025V144.2L118.3 189H96.2496L77.8746 144.2V210H52.4996V100.275H85.5746L107.8 155.575L130.55 100.275H162.4ZM260.51 166.775C260.51 182.992 257.244 194.542 250.71 201.425C244.177 208.308 233.21 211.75 217.81 211.75C202.41 211.75 191.444 208.308 184.91 201.425C178.377 194.542 175.11 182.992 175.11 166.775C175.11 150.558 178.377 139.008 184.91 132.125C191.444 125.242 202.41 121.8 217.81 121.8C233.21 121.8 244.177 125.242 250.71 132.125C257.244 139.008 260.51 150.558 260.51 166.775ZM201.36 166.425C201.36 175.292 202.294 181.008 204.16 183.575C206.144 186.142 210.694 187.425 217.81 187.425C224.927 187.425 229.419 186.142 231.285 183.575C233.269 181.008 234.26 175.292 234.26 166.425C234.26 157.558 233.269 151.842 231.285 149.275C229.419 146.708 224.927 145.425 217.81 145.425C210.694 145.425 206.144 146.708 204.16 149.275C202.294 151.842 201.36 157.558 201.36 166.425Z" fill="white"/>
<defs>
<linearGradient id="paint0_linear_4_131" x1="0" y1="0" x2="309" y2="309" gradientUnits="userSpaceOnUse">
<stop offset="0.1875" stop-color="#DD1E12"/>
<stop offset="0.854167" stop-color="#4E008B"/>
</linearGradient>
</defs>
</svg>
