<svg width="309" height="309" viewBox="0 0 309 309" fill="none" xmlns="http://www.w3.org/2000/svg">
<path d="M309 154.5C309 239.828 239.828 309 154.5 309C69.172 309 0 239.828 0 154.5C0 69.172 69.172 0 154.5 0C239.828 0 309 69.172 309 154.5Z" fill="url(#paint0_linear_4_71)"/>
<path d="M123.171 186.375C127.838 186.375 132.913 185.908 138.396 184.975C143.879 183.925 148.779 182.583 153.096 180.95V204.925C146.679 207.492 140.904 209.242 135.771 210.175C130.638 211.225 125.271 211.75 119.671 211.75C109.521 211.75 101.413 210.583 95.3459 208.25C89.2792 205.917 84.4376 202.183 80.8209 197.05C77.7876 192.617 75.5126 186.958 73.9959 180.075C72.5959 173.192 71.8959 164.85 71.8959 155.05C71.8959 135.45 76.0959 121.158 84.4959 112.175C93.0126 103.075 106.488 98.525 124.921 98.525C130.288 98.525 135.071 98.6417 139.271 98.875C143.471 99.1083 147.263 99.5167 150.646 100.1V123.725C146.796 123.492 142.771 123.317 138.571 123.2C134.488 123.083 129.938 123.025 124.921 123.025C118.504 123.025 113.721 123.667 110.571 124.95C107.538 126.117 105.263 128.217 103.746 131.25C102.346 133.583 101.354 136.675 100.771 140.525C100.188 144.375 99.8959 149.217 99.8959 155.05C99.8959 160.533 100.129 165.142 100.596 168.875C101.179 172.492 102.054 175.525 103.221 177.975C104.738 181.008 106.954 183.167 109.871 184.45C112.788 185.733 117.221 186.375 123.171 186.375ZM184.563 211.75C175.696 211.75 169.163 209.533 164.963 205.1C160.88 200.667 158.838 193.667 158.838 184.1C158.838 174.3 161.288 167.417 166.188 163.45C171.205 159.483 179.78 157.5 191.913 157.5C194.713 157.5 197.571 157.675 200.488 158.025C203.521 158.258 206.146 158.608 208.363 159.075V152.775C208.363 149.975 207.138 147.933 204.688 146.65C202.355 145.25 198.738 144.55 193.838 144.55C188.238 144.55 183.221 144.725 178.788 145.075C174.471 145.308 170.505 145.775 166.888 146.475V124.95C171.205 123.9 176.221 123.142 181.938 122.675C187.655 122.092 194.305 121.8 201.888 121.8C212.621 121.8 220.73 124.192 226.213 128.975C231.813 133.758 234.613 140.817 234.613 150.15V210H210.113L209.238 202.65H208.713C205.096 205.45 201.13 207.667 196.813 209.3C192.496 210.933 188.413 211.75 184.563 211.75ZM195.413 174.825C190.746 174.825 187.596 175.35 185.963 176.4C184.33 177.333 183.513 179.375 183.513 182.525C183.513 185.442 184.155 187.483 185.438 188.65C186.838 189.7 189.23 190.225 192.613 190.225C195.18 190.225 197.863 189.875 200.663 189.175C203.463 188.475 206.03 187.6 208.363 186.55V175.875C206.963 175.525 205.213 175.292 203.113 175.175C201.013 174.942 198.446 174.825 195.413 174.825Z" fill="white"/>
<defs>
<linearGradient id="paint0_linear_4_71" x1="0" y1="0" x2="309" y2="309" gradientUnits="userSpaceOnUse">
<stop offset="0.1875" stop-color="#DD1E12"/>
<stop offset="0.854167" stop-color="#4E008B"/>
</linearGradient>
</defs>
</svg>
