<svg width="309" height="309" viewBox="0 0 309 309" fill="none" xmlns="http://www.w3.org/2000/svg">
<path d="M309 154.5C309 239.828 239.828 309 154.5 309C69.172 309 0 239.828 0 154.5C0 69.172 69.172 0 154.5 0C239.828 0 309 69.172 309 154.5Z" fill="url(#paint0_linear_4_283)"/>
<path d="M93.8946 179.2V210H66.7696V100.275H106.845C123.761 100.275 135.778 103.25 142.895 109.2C150.011 115.033 153.57 124.892 153.57 138.775C153.57 152.542 149.778 162.75 142.195 169.4C134.728 175.933 123.12 179.2 107.37 179.2H93.8946ZM126.095 138.775C126.095 133.642 124.695 130.025 121.895 127.925C119.095 125.825 114.078 124.775 106.845 124.775H93.8946V155.4H106.845C114.195 155.4 119.211 154.175 121.895 151.725C124.695 149.275 126.095 144.958 126.095 138.775ZM246.24 166.775C246.24 182.992 242.974 194.542 236.44 201.425C229.907 208.308 218.94 211.75 203.54 211.75C188.14 211.75 177.174 208.308 170.64 201.425C164.107 194.542 160.84 182.992 160.84 166.775C160.84 150.558 164.107 139.008 170.64 132.125C177.174 125.242 188.14 121.8 203.54 121.8C218.94 121.8 229.907 125.242 236.44 132.125C242.974 139.008 246.24 150.558 246.24 166.775ZM187.09 166.425C187.09 175.292 188.024 181.008 189.89 183.575C191.874 186.142 196.424 187.425 203.54 187.425C210.657 187.425 215.149 186.142 217.015 183.575C218.999 181.008 219.99 175.292 219.99 166.425C219.99 157.558 218.999 151.842 217.015 149.275C215.149 146.708 210.657 145.425 203.54 145.425C196.424 145.425 191.874 146.708 189.89 149.275C188.024 151.842 187.09 157.558 187.09 166.425Z" fill="white"/>
<defs>
<linearGradient id="paint0_linear_4_283" x1="0" y1="0" x2="309" y2="309" gradientUnits="userSpaceOnUse">
<stop offset="0.1875" stop-color="#DD1E12"/>
<stop offset="0.854167" stop-color="#4E008B"/>
</linearGradient>
</defs>
</svg>
