<svg width="309" height="309" viewBox="0 0 309 309" fill="none" xmlns="http://www.w3.org/2000/svg">
<path d="M309 154.5C309 239.828 239.828 309 154.5 309C69.172 309 0 239.828 0 154.5C0 69.172 69.172 0 154.5 0C239.828 0 309 69.172 309 154.5Z" fill="url(#paint0_linear_4_123)"/>
<path d="M113.376 169.05L91.1507 163.8C82.284 161.7 76.2174 158.492 72.9507 154.175C69.8007 149.858 68.2257 143.675 68.2257 135.625C68.2257 122.908 71.5507 113.575 78.2007 107.625C84.9674 101.558 95.409 98.525 109.526 98.525C115.359 98.525 120.551 98.7583 125.101 99.225C129.651 99.6917 133.851 100.508 137.701 101.675V126C128.834 124.483 122.709 123.608 119.326 123.375C116.059 123.142 112.617 123.025 109.001 123.025C104.101 123.025 100.542 123.842 98.3257 125.475C96.109 127.108 95.0007 129.85 95.0007 133.7C95.0007 135.567 95.3507 137.025 96.0507 138.075C96.7507 139.008 98.0924 139.708 100.076 140.175L121.076 145.075C127.142 146.475 131.517 147.875 134.201 149.275C136.884 150.558 139.042 152.25 140.676 154.35C142.542 156.567 143.884 159.425 144.701 162.925C145.634 166.425 146.101 170.683 146.101 175.7C146.101 188.417 142.717 197.633 135.951 203.35C129.184 208.95 118.684 211.75 104.451 211.75C97.2174 211.75 90.334 211.283 83.8007 210.35C77.2674 209.533 72.1924 208.483 68.5757 207.2V181.475C73.2424 182.992 78.784 184.217 85.2007 185.15C91.6174 185.967 98.034 186.375 104.451 186.375C109.584 186.375 113.142 185.733 115.126 184.45C117.109 183.167 118.101 180.6 118.101 176.75C118.101 174.3 117.751 172.55 117.051 171.5C116.467 170.333 115.242 169.517 113.376 169.05ZM182.721 210H156.471V123.55H179.221L180.271 132.65H180.796C184.529 128.8 188.554 126.058 192.871 124.425C197.304 122.675 202.612 121.8 208.796 121.8C218.596 121.8 226.004 124.192 231.021 128.975C236.037 133.758 238.546 140.817 238.546 150.15V210H212.296V153.65C212.296 150.967 211.187 148.925 208.971 147.525C206.871 146.125 203.721 145.425 199.521 145.425C196.371 145.425 193.337 145.775 190.421 146.475C187.504 147.175 184.937 148.167 182.721 149.45V210Z" fill="white"/>
<defs>
<linearGradient id="paint0_linear_4_123" x1="0" y1="0" x2="309" y2="309" gradientUnits="userSpaceOnUse">
<stop offset="0.1875" stop-color="#DD1E12"/>
<stop offset="0.854167" stop-color="#4E008B"/>
</linearGradient>
</defs>
</svg>
