<svg width="309" height="309" viewBox="0 0 309 309" fill="none" xmlns="http://www.w3.org/2000/svg">
<path d="M309 154.5C309 239.828 239.828 309 154.5 309C69.172 309 0 239.828 0 154.5C0 69.172 69.172 0 154.5 0C239.828 0 309 69.172 309 154.5Z" fill="url(#paint0_linear_4_302)"/>
<path d="M150.606 100.275V124.775H120.681V210H93.5563V124.775H63.6313V100.275H150.606ZM211.416 121.8C222.966 121.8 231.133 125.183 235.916 131.95C240.699 138.6 243.091 149.975 243.091 166.075C243.091 182.058 239.883 193.667 233.466 200.9C227.049 208.133 216.666 211.75 202.316 211.75C194.033 211.75 186.333 211.342 179.216 210.525C172.099 209.708 165.799 208.483 160.316 206.85V93.625H186.566V128.1C190.533 126.117 194.616 124.6 198.816 123.55C203.133 122.383 207.333 121.8 211.416 121.8ZM216.841 166.075C216.841 157.558 215.966 152.017 214.216 149.45C212.466 146.767 208.383 145.425 201.966 145.425C199.283 145.425 196.599 145.658 193.916 146.125C191.349 146.592 188.899 147.233 186.566 148.05V186.375C188.316 186.725 190.299 187.017 192.516 187.25C194.733 187.367 197.358 187.425 200.391 187.425C207.391 187.425 211.883 186.142 213.866 183.575C215.849 180.892 216.841 175.058 216.841 166.075Z" fill="white"/>
<defs>
<linearGradient id="paint0_linear_4_302" x1="0" y1="0" x2="309" y2="309" gradientUnits="userSpaceOnUse">
<stop offset="0.1875" stop-color="#DD1E12"/>
<stop offset="0.854167" stop-color="#4E008B"/>
</linearGradient>
</defs>
</svg>
