<svg width="309" height="309" viewBox="0 0 309 309" fill="none" xmlns="http://www.w3.org/2000/svg">
<path d="M309 154.5C309 239.828 239.828 309 154.5 309C69.172 309 0 239.828 0 154.5C0 69.172 69.172 0 154.5 0C239.828 0 309 69.172 309 154.5Z" fill="url(#paint0_linear_4_304)"/>
<path d="M147.838 184.625V210H72.2384V100.275H146.263V124.775H99.3634V142.975H139.788V165.725H99.3634V184.625H147.838ZM188.593 211.75C178.793 211.75 171.443 209.358 166.543 204.575C161.76 199.675 159.368 192.325 159.368 182.525V123.55H185.618V179.025C185.618 181.942 186.493 184.042 188.243 185.325C189.993 186.608 192.793 187.25 196.643 187.25C198.86 187.25 201.193 187.075 203.643 186.725C206.21 186.375 208.776 185.85 211.343 185.15V123.55H237.593V210H213.093L212.393 205.275H212.043C207.96 207.258 203.818 208.833 199.618 210C195.535 211.167 191.86 211.75 188.593 211.75Z" fill="white"/>
<defs>
<linearGradient id="paint0_linear_4_304" x1="0" y1="0" x2="309" y2="309" gradientUnits="userSpaceOnUse">
<stop offset="0.1875" stop-color="#DD1E12"/>
<stop offset="0.854167" stop-color="#4E008B"/>
</linearGradient>
</defs>
</svg>
