<svg id="Capa_1" enable-background="new 0 0 512 512" height="512" viewBox="0 0 512 512" width="512" xmlns="http://www.w3.org/2000/svg"><g><g><g><g><path d="m489.5 386.896h-467c-8.284 0-15-6.716-15-15v-347.402c0-8.284 6.716-15 15-15h467c8.284 0 15 6.716 15 15v347.402c0 8.285-6.716 15-15 15z" fill="#fde784"/><path d="m504.5 24.495v347.4c0 8.29-6.72 15-15 15h-42.77c8.29 0 15-6.71 15-15v-347.4c0-8.29-6.71-15-15-15h42.77c8.28 0 15 6.71 15 15z" fill="#fddd45"/><path d="m504.5 72.524v-48.03c0-8.284-6.716-15-15-15h-467c-8.284 0-15 6.716-15 15v48.03z" fill="#eef4f5"/><path d="m489.5 9.494h-338.081v63.03h353.081v-48.03c0-8.284-6.716-15-15-15z" fill="#cbe5e7"/><path d="m504.5 24.495v48.03h-42.77v-48.03c0-8.29-6.71-15-15-15h42.77c8.28 0 15 6.71 15 15z" fill="#a9d3d8"/></g></g><g><path d="m345.564 252.203v-54.321c0-8.928-7.237-16.165-16.165-16.165-5.919 0-11.08 3.191-13.897 7.937-5.154-1.967-10.739-3.054-16.575-3.054-25.715 0-46.636 20.921-46.636 46.637s20.921 46.636 46.636 46.636c7.989 0 15.514-2.022 22.094-5.577.442.492.895.976 1.371 1.443 5.756 5.642 13.316 8.727 21.35 8.727.209 0 .42-.002.63-.006 8.926-.179 16.017-7.559 15.838-16.485-.166-8.305-6.567-15.021-14.646-15.772zm-46.637-4.66c-7.889 0-14.306-6.418-14.306-14.306 0-7.889 6.418-14.307 14.306-14.307s14.307 6.418 14.307 14.307c0 7.888-6.418 14.306-14.307 14.306z" fill="#5169cd"/></g><g><path d="m246.513 304.134-71.197-180.98c-2.216-5.633-7.244-9.836-13.255-10.556-7.405-.888-14.329 3.346-16.998 10.13l-71.364 181.406c-1.129 2.87-3.461 5.11-6.387 6.081-6.738 2.237-11.508 8.778-11.027 16.374.543 8.579 7.966 15.113 16.563 15.113h35.344c8.704 0 16.194-6.689 16.603-15.383.437-9.283-6.96-16.947-16.146-16.947h-2.269l16.943-43.067h73.568l16.943 43.067h-1.812c-8.704 0-16.194 6.689-16.603 15.383-.437 9.283 6.96 16.947 16.146 16.947h35.801c8.597 0 16.019-6.534 16.563-15.113.481-7.595-4.289-14.136-11.028-16.374-2.928-.971-5.259-3.211-6.388-6.081zm-110.473-70.158 24.066-61.174 24.066 61.174z" fill="#5169cd"/></g><g><g><g><g><g><g><g><g><path d="m407.269 434.615h32.772v65.97h-32.772z" fill="#557983" transform="matrix(.707 -.707 .707 .707 -206.558 436.528)"/><path d="m432.633 453.41c-2.312 4.93-5.5 9.542-9.564 13.607-4.021 4.01-8.6 7.231-13.585 9.586l-20.739-20.739 23.171-23.171z" fill="#3f5959"/></g><g><path d="m407.574 451.519c-10.399 10.399-27.26 10.399-37.659 0l-18.829-18.829 37.659-37.659 18.829 18.829c10.399 10.399 10.399 27.259 0 37.659z" fill="#27e19d"/><path d="m411.916 419.558c-9.816 14.165-22.13 26.479-36.295 36.295-2.049-1.15-3.966-2.596-5.708-4.338l-18.832-18.821 37.665-37.665 18.832 18.833c1.741 1.741 3.187 3.658 4.338 5.696z" fill="#26d192"/></g><g><circle cx="294.383" cy="338.329" fill="#a9d3d8" r="121.007"/><path d="m415.389 338.334c0 66.828-54.175 121.003-121.003 121.003-6.76 0-13.399-.559-19.851-1.622 57.385-9.476 101.152-59.313 101.152-119.382 0-60.08-43.767-109.916-101.152-119.393 6.453-1.063 13.092-1.621 19.851-1.621 66.828.001 121.003 54.175 121.003 121.015z" fill="#90bac4"/><g><circle cx="293.66" cy="338.329" fill="#fef5c8" r="85.35"/><g><g><path d="m257.69 349.512c-3.15-1.04-5.67-3.46-6.88-6.55l-23.13-58.78c-12.1 14.73-19.37 33.59-19.37 54.15 0 16.56 4.72 32.02 12.9 45.11h30.52c9.26 0 17.26-7.04 17.84-16.28.52-8.19-4.62-15.23-11.88-17.65zm-36.48 33.93h30.52c9.26 0 17.26-7.04 17.84-16.28.52-8.19-4.62-15.23-11.88-17.65-3.15-1.04-5.67-3.46-6.88-6.55l-23.13-58.78" fill="#6d81d5"/></g></g><path d="m379.006 338.334c0 47.13-38.213 85.343-85.343 85.343-6.267 0-12.38-.679-18.263-1.961 38.355-8.359 67.08-42.518 67.08-83.382 0-40.875-28.725-75.034-67.08-83.393 5.883-1.282 11.996-1.961 18.263-1.961 47.13 0 85.343 38.212 85.343 85.354z" fill="#fde784"/><g><path d="m319.28 256.902c2.14 2.65 3.42 6.01 3.42 9.67 0 8.5-6.91 15.42-15.41 15.42-8.51 0-15.42-6.92-15.42-15.42 0-5.72 3.12-10.72 7.76-13.38-1.97-.14-3.96-.21-5.97-.21-12.99 0-25.31 2.9-36.33 8.1-.2 1.8-.3 3.64-.3 5.49 0 27.71 22.55 50.25 50.26 50.25 8.6 0 16.71-2.18 23.8-6.01.48.53.97 1.05 1.48 1.56 6.2 6.08 14.35 9.4 23 9.4.23 0 .46 0 .68-.01 8.57-.17 15.57-6.5 16.86-14.68-9.39-23.85-29.2-42.45-53.83-50.18z" fill="#6d81d5"/></g></g></g></g></g></g></g></g></g></g></g><path d="m431.654 146.66h-180.615c-5.523 0-10-4.477-10-10v-13.825c0-5.523 4.477-10 10-10h180.615c5.523 0 10 4.477 10 10v13.825c0 5.523-4.477 10-10 10z" fill="#d9ecfd"/><path d="m441.65 122.832v13.83c0 5.52-4.47 10-10 10h-31.11c5.52 0 10-4.48 10-10v-13.83c0-5.52-4.48-10-10-10h31.11c5.53 0 10 4.48 10 10z" fill="#b5dbfd"/><g><path d="m52.98 48.509h.104c4.142 0 7.5-3.358 7.5-7.5s-3.358-7.5-7.5-7.5h-.104c-4.142 0-7.5 3.358-7.5 7.5s3.358 7.5 7.5 7.5z"/><path d="m79.077 48.509h.104c4.142 0 7.5-3.358 7.5-7.5s-3.358-7.5-7.5-7.5h-.104c-4.142 0-7.5 3.358-7.5 7.5s3.358 7.5 7.5 7.5z"/><path d="m105.174 48.509h.104c4.142 0 7.5-3.358 7.5-7.5s-3.358-7.5-7.5-7.5h-.104c-4.142 0-7.5 3.358-7.5 7.5s3.358 7.5 7.5 7.5z"/><path d="m422.861 433.029c0-9.116-3.542-18.024-9.988-24.47l-6.775-6.775c1.378-2.416 2.68-4.881 3.902-7.391h79.5c12.407 0 22.5-10.093 22.5-22.5v-347.4c0-12.407-10.093-22.5-22.5-22.5h-104.55c-4.142 0-7.5 3.358-7.5 7.5s3.358 7.5 7.5 7.5h104.55c4.135 0 7.5 3.364 7.5 7.5v40.533h-338.081v-48.034h189.001c4.142 0 7.5-3.358 7.5-7.5s-3.358-7.5-7.5-7.5h-325.42c-12.407 0-22.5 10.094-22.5 22.5v347.4c0 12.407 10.093 22.5 22.5 22.5h156.186c6.186 12.74 14.52 24.496 24.829 34.805 24.272 24.272 56.543 37.639 90.869 37.639 23.061 0 44.72-6.111 63.451-16.791l6.772 6.78c6.446 6.446 15.367 9.988 24.484 9.988l40.997 40.997c1.464 1.464 3.384 2.197 5.303 2.197s3.839-.732 5.303-2.197c2.929-2.929 2.929-7.678 0-10.606l-34.927-34.927c2.565-1.482 4.955-3.302 7.106-5.452 2.153-2.153 3.974-4.547 5.457-7.115l34.929 34.929c1.464 1.464 3.384 2.197 5.303 2.197s3.839-.732 5.303-2.197c2.929-2.929 2.929-7.678 0-10.606zm-400.361-416.037h121.419v48.033h-128.919v-40.533c0-4.135 3.364-7.5 7.5-7.5zm191.622 401.599c-21.438-21.439-33.246-49.943-33.246-80.262 0-62.588 50.919-113.507 113.507-113.507s113.507 50.919 113.508 113.507c0 62.588-50.919 113.507-113.507 113.507-30.319 0-58.823-11.806-80.262-33.245zm123.938-201.122c-13.642-4.945-28.349-7.647-43.677-7.647-9.98 0-19.698 1.144-29.03 3.307 6.939-11.569 19.572-19.026 33.577-19.026 4.763 0 9.44.861 13.902 2.559 3.403 1.295 7.25-.042 9.113-3.175 1.588-2.67 4.375-4.265 7.454-4.265 4.775 0 8.66 3.885 8.66 8.66v19.587zm64.207 201.696c7.458 7.459 7.458 19.595 0 27.054-7.459 7.458-19.594 7.459-27.05.003l-4.543-4.548c10.301-7.625 19.427-16.749 27.052-27.05zm87.233-39.773h-73.337c4.361-12.9 6.728-26.71 6.728-41.063 0-49.733-28.4-92.956-69.831-114.309v-26.137c0-13.046-10.614-23.66-23.66-23.66-6.198 0-12.117 2.48-16.489 6.719-4.553-1.222-9.236-1.839-13.98-1.839-24.416 0-45.819 16.383-52.231 39.897-7.474 2.997-14.605 6.674-21.313 10.96l-43.09-109.558c-3.3-8.37-10.712-14.212-19.341-15.245-10.705-1.287-20.936 4.812-24.875 14.831l-21.51 54.69c-1.516 3.854.379 8.208 4.234 9.725 3.853 1.516 8.209-.378 9.725-4.234l21.511-54.69c1.442-3.668 5.188-5.904 9.128-5.428 3.103.372 5.918 2.669 7.172 5.848l44.512 113.173c-7.129 5.866-13.617 12.485-19.342 19.732h-70.19c-3.083 0-5.851 1.886-6.979 4.755l-16.94 43.07c-.908 2.309-.616 4.917.781 6.968s3.717 3.277 6.198 3.277h2.27c2.39 0 4.616.954 6.267 2.685 1.65 1.73 2.496 4.006 2.381 6.42-.208 4.535-4.294 8.225-9.108 8.225h-35.341c-4.804 0-8.795-3.554-9.085-8.083-.249-3.936 2.182-7.551 5.902-8.787 5.039-1.667 9.053-5.477 11.013-10.455l36.37-92.46c1.516-3.855-.379-8.209-4.234-9.725-3.855-1.515-8.208.379-9.725 4.234l-36.369 92.457c-.323.821-.967 1.443-1.777 1.711-10.186 3.386-16.827 13.242-16.149 23.977.795 12.41 11.362 22.13 24.055 22.13h35.34c12.928 0 23.511-9.899 24.092-22.525.31-6.541-2.002-12.746-6.511-17.473-2.509-2.631-5.591-4.628-8.958-5.869l11.616-29.533h54.859c-11.064 18.975-17.412 41.022-17.412 64.527 0 14.179 2.287 28.005 6.675 41.063h-150.052c-4.136 0-7.5-3.365-7.5-7.5v-291.868h482v291.867c0 4.136-3.365 7.5-7.5 7.5z"/><path d="m136.04 241.476h48.131c2.481 0 4.802-1.227 6.198-3.277 1.397-2.051 1.689-4.659.781-6.968l-24.065-61.174c-1.128-2.869-3.897-4.754-6.979-4.754s-5.851 1.886-6.979 4.754l-24.066 61.174c-.908 2.309-.616 4.917.781 6.968 1.396 2.05 3.717 3.277 6.198 3.277zm24.066-48.188 13.056 33.188h-26.112z"/><path d="m293.66 245.479c-24.801 0-48.118 9.658-65.655 27.195s-27.195 40.854-27.195 65.655c0 51.198 41.652 92.85 92.85 92.85 17.63 0 34.807-4.986 49.674-14.42 3.497-2.219 4.533-6.854 2.314-10.351-2.218-3.497-6.853-4.535-10.351-2.314-12.459 7.906-26.857 12.085-41.637 12.085-22.658 0-43.08-9.736-57.32-25.237h15.389c13.381 0 24.505-10.239 25.325-23.305.717-11.287-6.271-21.666-17.013-25.247-1.007-.333-1.848-1.142-2.252-2.174l-21.461-54.538c.746-.81 1.5-1.614 2.283-2.397 3.533-3.533 7.352-6.674 11.394-9.423 3.596 28.414 27.905 50.465 57.284 50.465 7.666 0 15.287-1.545 22.33-4.502 7.264 6.117 16.365 9.453 25.95 9.453.309 0 .618-.002.916-.014 5.061-.118 9.833-1.807 13.796-4.617.793 4.447 1.23 9.016 1.23 13.688 0 14.9-4.243 29.398-12.271 41.926-2.235 3.488-1.219 8.126 2.269 10.361 3.488 2.234 8.126 1.219 10.361-2.269 9.578-14.948 14.641-32.244 14.641-50.019 0-51.199-41.653-92.851-92.851-92.851zm-49.833 100.218c2.039 5.208 6.235 9.194 11.491 10.93 4.27 1.423 7.053 5.56 6.767 10.065-.325 5.187-4.874 9.25-10.354 9.25h-26.201c-6.184-11.157-9.718-23.978-9.718-37.613 0-13.64 3.505-26.733 10.052-38.285zm71.373-79.125c0 4.367-3.548 7.92-7.91 7.92-4.367 0-7.92-3.553-7.92-7.92 0-2.156.871-4.182 2.405-5.669 4.36.454 8.606 1.286 12.723 2.431.458 1.012.702 2.114.702 3.238zm40.902 47.691c-.049.001-.15.005-.198.006-.108.004-.221.002-.333.002-6.675 0-12.978-2.577-17.694-7.201-.423-.423-.829-.855-1.228-1.295-2.319-2.559-6.085-3.205-9.123-1.563-6.186 3.342-13.183 5.108-20.235 5.108-23.578 0-42.76-19.178-42.76-42.75 0-.16.015-.315.016-.474 6.528-2.63 13.418-4.362 20.523-5.137-.455 1.813-.7 3.693-.7 5.611 0 12.638 10.282 22.92 22.92 22.92 11.636 0 21.267-8.726 22.715-19.979 15.676 8.313 28.191 21.815 35.229 38.213-1.381 3.809-5.028 6.458-9.132 6.539z"/><path d="m441.654 175.28h-23.031c-4.142 0-7.5 3.358-7.5 7.5s3.358 7.5 7.5 7.5h23.031c4.142 0 7.5-3.358 7.5-7.5s-3.358-7.5-7.5-7.5z"/><path d="m441.654 201.499h-23.031c-4.142 0-7.5 3.358-7.5 7.5s3.358 7.5 7.5 7.5h23.031c4.142 0 7.5-3.358 7.5-7.5s-3.358-7.5-7.5-7.5z"/><path d="m441.654 227.719h-23.031c-4.142 0-7.5 3.358-7.5 7.5s3.358 7.5 7.5 7.5h23.031c4.142 0 7.5-3.358 7.5-7.5s-3.358-7.5-7.5-7.5z"/><path d="m431.654 105.334h-180.614c-9.649 0-17.5 7.851-17.5 17.5v13.826c0 9.649 7.851 17.5 17.5 17.5h180.614c9.649 0 17.5-7.851 17.5-17.5v-13.826c0-9.649-7.851-17.5-17.5-17.5zm2.5 31.326c0 1.378-1.122 2.5-2.5 2.5h-180.614c-1.378 0-2.5-1.122-2.5-2.5v-13.826c0-1.378 1.122-2.5 2.5-2.5h180.614c1.378 0 2.5 1.122 2.5 2.5z"/></g></g></svg>