<svg width="309" height="309" viewBox="0 0 309 309" fill="none" xmlns="http://www.w3.org/2000/svg">
<path d="M309 154.5C309 239.828 239.828 309 154.5 309C69.172 309 0 239.828 0 154.5C0 69.172 69.172 0 154.5 0C239.828 0 309 69.172 309 154.5Z" fill="url(#paint0_linear_4_237)"/>
<path d="M94.4928 179.2V210H67.3678V100.275H107.443C124.359 100.275 136.376 103.25 143.493 109.2C150.609 115.033 154.168 124.892 154.168 138.775C154.168 152.542 150.376 162.75 142.793 169.4C135.326 175.933 123.718 179.2 107.968 179.2H94.4928ZM126.693 138.775C126.693 133.642 125.293 130.025 122.493 127.925C119.693 125.825 114.676 124.775 107.443 124.775H94.4928V155.4H107.443C114.793 155.4 119.809 154.175 122.493 151.725C125.293 149.275 126.693 144.958 126.693 138.775ZM193.463 211.75C183.663 211.75 176.313 209.358 171.413 204.575C166.63 199.675 164.238 192.325 164.238 182.525V123.55H190.488V179.025C190.488 181.942 191.363 184.042 193.113 185.325C194.863 186.608 197.663 187.25 201.513 187.25C203.73 187.25 206.063 187.075 208.513 186.725C211.08 186.375 213.647 185.85 216.213 185.15V123.55H242.463V210H217.963L217.263 205.275H216.913C212.83 207.258 208.688 208.833 204.488 210C200.405 211.167 196.73 211.75 193.463 211.75Z" fill="white"/>
<defs>
<linearGradient id="paint0_linear_4_237" x1="0" y1="0" x2="309" y2="309" gradientUnits="userSpaceOnUse">
<stop offset="0.1875" stop-color="#DD1E12"/>
<stop offset="0.854167" stop-color="#4E008B"/>
</linearGradient>
</defs>
</svg>
