<svg width="309" height="309" viewBox="0 0 309 309" fill="none" xmlns="http://www.w3.org/2000/svg">
<path d="M309 154.5C309 239.828 239.828 309 154.5 309C69.172 309 0 239.828 0 154.5C0 69.172 69.172 0 154.5 0C239.828 0 309 69.172 309 154.5Z" fill="url(#paint0_linear_4_47)"/>
<path d="M162.058 100.275V210H136.683V144.2L117.958 189H95.9078L77.5328 144.2V210H52.1578V100.275H85.2328L107.458 155.575L130.208 100.275H162.058ZM216.944 238.35C210.76 238.35 204.81 237.942 199.094 237.125C193.494 236.308 188.885 235.258 185.269 233.975V211.75C188.069 212.567 192.269 213.267 197.869 213.85C203.585 214.433 209.244 214.725 214.844 214.725C221.144 214.725 225.46 213.792 227.794 211.925C230.127 210.058 231.352 206.617 231.469 201.6V197.4C226.802 199.617 222.31 201.308 217.994 202.475C213.677 203.525 209.477 204.05 205.394 204.05C194.31 204.05 186.435 200.958 181.769 194.775C177.219 188.475 174.944 177.858 174.944 162.925C174.944 148.108 178.21 137.55 184.744 131.25C191.394 124.95 202.535 121.8 218.169 121.8C224.352 121.8 231.469 122.15 239.519 122.85C247.685 123.55 253.752 124.308 257.719 125.125V193.375C257.719 210.058 254.685 221.725 248.619 228.375C242.552 235.025 231.994 238.35 216.944 238.35ZM218.169 145.425C210.352 145.425 205.569 146.3 203.819 148.05C202.069 149.8 201.194 154.758 201.194 162.925C201.194 170.275 201.952 174.942 203.469 176.925C204.985 178.792 208.66 179.725 214.494 179.725C216.71 179.725 219.219 179.492 222.019 179.025C224.935 178.558 228.085 177.917 231.469 177.1V146.475C229.719 146.125 227.735 145.892 225.519 145.775C223.302 145.542 220.852 145.425 218.169 145.425Z" fill="white"/>
<defs>
<linearGradient id="paint0_linear_4_47" x1="0" y1="0" x2="309" y2="309" gradientUnits="userSpaceOnUse">
<stop offset="0.1875" stop-color="#DD1E12"/>
<stop offset="0.854167" stop-color="#4E008B"/>
</linearGradient>
</defs>
</svg>
