<svg width="309" height="309" viewBox="0 0 309 309" fill="none" xmlns="http://www.w3.org/2000/svg">
<path d="M309 154.5C309 239.828 239.828 309 154.5 309C69.172 309 0 239.828 0 154.5C0 69.172 69.172 0 154.5 0C239.828 0 309 69.172 309 154.5Z" fill="url(#paint0_linear_4_119)"/>
<path d="M129.74 152.95L166.14 210H133.065L111.715 175L91.2402 210H61.4902L97.5402 154L63.5902 100.275H96.6652L115.04 131.6L133.59 100.275H162.465L129.74 152.95ZM237.531 184.45V205.275C234.731 207.025 230.006 208.542 223.356 209.825C216.706 211.108 209.706 211.75 202.356 211.75C188.356 211.75 178.264 208.25 172.081 201.25C165.897 194.133 162.806 182.642 162.806 166.775C162.806 151.258 166.072 139.883 172.606 132.65C179.139 125.417 189.464 121.8 203.581 121.8C217.347 121.8 227.031 124.542 232.631 130.025C238.347 135.392 241.206 144.958 241.206 158.725C241.206 162.458 241.147 165.433 241.031 167.65C240.914 169.867 240.681 172.433 240.331 175.35H189.231C189.347 180.133 190.631 183.458 193.081 185.325C195.531 187.192 200.022 188.125 206.556 188.125C212.156 188.125 217.872 187.775 223.706 187.075C229.539 186.258 234.147 185.383 237.531 184.45ZM203.581 144.2C197.981 144.2 194.189 145.192 192.206 147.175C190.222 149.042 189.231 152.775 189.231 158.375H217.406V154.525C217.289 150.442 216.297 147.7 214.431 146.3C212.681 144.9 209.064 144.2 203.581 144.2Z" fill="white"/>
<defs>
<linearGradient id="paint0_linear_4_119" x1="0" y1="0" x2="309" y2="309" gradientUnits="userSpaceOnUse">
<stop offset="0.1875" stop-color="#DD1E12"/>
<stop offset="0.854167" stop-color="#4E008B"/>
</linearGradient>
</defs>
</svg>
