<svg width="309" height="309" viewBox="0 0 309 309" fill="none" xmlns="http://www.w3.org/2000/svg">
<path d="M309 154.5C309 239.828 239.828 309 154.5 309C69.172 309 0 239.828 0 154.5C0 69.172 69.172 0 154.5 0C239.828 0 309 69.172 309 154.5Z" fill="url(#paint0_linear_4_124)"/>
<path d="M119.7 100.275V210H92.5753V100.275H119.7ZM161.871 210H135.621V123.55H158.371L159.421 132.65H159.946C163.68 128.8 167.705 126.058 172.021 124.425C176.455 122.675 181.763 121.8 187.946 121.8C197.746 121.8 205.155 124.192 210.171 128.975C215.188 133.758 217.696 140.817 217.696 150.15V210H191.446V153.65C191.446 150.967 190.338 148.925 188.121 147.525C186.021 146.125 182.871 145.425 178.671 145.425C175.521 145.425 172.488 145.775 169.571 146.475C166.655 147.175 164.088 148.167 161.871 149.45V210Z" fill="white"/>
<defs>
<linearGradient id="paint0_linear_4_124" x1="0" y1="0" x2="309" y2="309" gradientUnits="userSpaceOnUse">
<stop offset="0.1875" stop-color="#DD1E12"/>
<stop offset="0.854167" stop-color="#4E008B"/>
</linearGradient>
</defs>
</svg>
