<svg width="309" height="309" viewBox="0 0 309 309" fill="none" xmlns="http://www.w3.org/2000/svg">
<path d="M309 154.5C309 239.828 239.828 309 154.5 309C69.172 309 0 239.828 0 154.5C0 69.172 69.172 0 154.5 0C239.828 0 309 69.172 309 154.5Z" fill="url(#paint0_linear_4_289)"/>
<path d="M107.652 179.2V210H80.527V100.275H120.602C137.519 100.275 149.535 103.25 156.652 109.2C163.769 115.033 167.327 124.892 167.327 138.775C167.327 152.542 163.535 162.75 155.952 169.4C148.485 175.933 136.877 179.2 121.127 179.2H107.652ZM139.852 138.775C139.852 133.642 138.452 130.025 135.652 127.925C132.852 125.825 127.835 124.775 120.602 124.775H107.652V155.4H120.602C127.952 155.4 132.969 154.175 135.652 151.725C138.452 149.275 139.852 144.958 139.852 138.775ZM183.348 145.425H173.198V123.55H184.223L187.548 103.425H209.598V123.55H234.098V145.425H209.598V179.025C209.598 182.292 210.414 184.508 212.048 185.675C213.798 186.725 217.181 187.25 222.198 187.25C223.948 187.25 226.106 187.133 228.673 186.9C231.239 186.55 233.398 186.2 235.148 185.85V208.25C233.281 209.067 230.364 209.825 226.398 210.525C222.548 211.342 219.106 211.75 216.073 211.75C204.406 211.75 196.006 209.3 190.873 204.4C185.856 199.383 183.348 191.275 183.348 180.075V145.425Z" fill="white"/>
<defs>
<linearGradient id="paint0_linear_4_289" x1="0" y1="0" x2="309" y2="309" gradientUnits="userSpaceOnUse">
<stop offset="0.1875" stop-color="#DD1E12"/>
<stop offset="0.854167" stop-color="#4E008B"/>
</linearGradient>
</defs>
</svg>
