<svg width="309" height="309" viewBox="0 0 309 309" fill="none" xmlns="http://www.w3.org/2000/svg">
<path d="M309 154.5C309 239.828 239.828 309 154.5 309C69.172 309 0 239.828 0 154.5C0 69.172 69.172 0 154.5 0C239.828 0 309 69.172 309 154.5Z" fill="url(#paint0_linear_4_294)"/>
<path d="M157.784 100.275V124.775H127.859V210H100.734V124.775H70.809V100.275H157.784ZM183.025 211.75C174.158 211.75 167.625 209.533 163.425 205.1C159.342 200.667 157.3 193.667 157.3 184.1C157.3 174.3 159.75 167.417 164.65 163.45C169.667 159.483 178.242 157.5 190.375 157.5C193.175 157.5 196.033 157.675 198.95 158.025C201.983 158.258 204.608 158.608 206.825 159.075V152.775C206.825 149.975 205.6 147.933 203.15 146.65C200.817 145.25 197.2 144.55 192.3 144.55C186.7 144.55 181.683 144.725 177.25 145.075C172.933 145.308 168.967 145.775 165.35 146.475V124.95C169.667 123.9 174.683 123.142 180.4 122.675C186.117 122.092 192.767 121.8 200.35 121.8C211.083 121.8 219.192 124.192 224.675 128.975C230.275 133.758 233.075 140.817 233.075 150.15V210H208.575L207.7 202.65H207.175C203.558 205.45 199.592 207.667 195.275 209.3C190.958 210.933 186.875 211.75 183.025 211.75ZM193.875 174.825C189.208 174.825 186.058 175.35 184.425 176.4C182.792 177.333 181.975 179.375 181.975 182.525C181.975 185.442 182.617 187.483 183.9 188.65C185.3 189.7 187.692 190.225 191.075 190.225C193.642 190.225 196.325 189.875 199.125 189.175C201.925 188.475 204.492 187.6 206.825 186.55V175.875C205.425 175.525 203.675 175.292 201.575 175.175C199.475 174.942 196.908 174.825 193.875 174.825Z" fill="white"/>
<defs>
<linearGradient id="paint0_linear_4_294" x1="0" y1="0" x2="309" y2="309" gradientUnits="userSpaceOnUse">
<stop offset="0.1875" stop-color="#DD1E12"/>
<stop offset="0.854167" stop-color="#4E008B"/>
</linearGradient>
</defs>
</svg>
