<svg width="309" height="309" viewBox="0 0 309 309" fill="none" xmlns="http://www.w3.org/2000/svg">
<path d="M309 154.5C309 239.828 239.828 309 154.5 309C69.172 309 0 239.828 0 154.5C0 69.172 69.172 0 154.5 0C239.828 0 309 69.172 309 154.5Z" fill="url(#paint0_linear_4_305)"/>
<path d="M92.6115 169.05L70.3865 163.8C61.5199 161.7 55.4532 158.492 52.1865 154.175C49.0365 149.858 47.4615 143.675 47.4615 135.625C47.4615 122.908 50.7865 113.575 57.4365 107.625C64.2032 101.558 74.6449 98.525 88.7615 98.525C94.5949 98.525 99.7865 98.7583 104.337 99.225C108.887 99.6917 113.087 100.508 116.937 101.675V126C108.07 124.483 101.945 123.608 98.5615 123.375C95.2949 123.142 91.8532 123.025 88.2365 123.025C83.3365 123.025 79.7782 123.842 77.5615 125.475C75.3449 127.108 74.2365 129.85 74.2365 133.7C74.2365 135.567 74.5865 137.025 75.2865 138.075C75.9865 139.008 77.3282 139.708 79.3115 140.175L100.312 145.075C106.378 146.475 110.753 147.875 113.437 149.275C116.12 150.558 118.278 152.25 119.912 154.35C121.778 156.567 123.12 159.425 123.937 162.925C124.87 166.425 125.337 170.683 125.337 175.7C125.337 188.417 121.953 197.633 115.187 203.35C108.42 208.95 97.9199 211.75 83.6865 211.75C76.4532 211.75 69.5699 211.283 63.0365 210.35C56.5032 209.533 51.4282 208.483 47.8115 207.2V181.475C52.4782 182.992 58.0199 184.217 64.4365 185.15C70.8532 185.967 77.2699 186.375 83.6865 186.375C88.8199 186.375 92.3782 185.733 94.3615 184.45C96.3449 183.167 97.3365 180.6 97.3365 176.75C97.3365 174.3 96.9865 172.55 96.2865 171.5C95.7032 170.333 94.4782 169.517 92.6115 169.05ZM161.957 210H135.707V123.55H160.207L161.082 130.025H161.607C165.923 127.342 170.065 125.3 174.032 123.9C177.998 122.5 181.79 121.8 185.407 121.8C190.19 121.8 194.273 122.558 197.657 124.075C201.04 125.475 203.723 127.633 205.707 130.55H206.407C210.373 127.867 214.807 125.767 219.707 124.25C224.723 122.617 229.507 121.8 234.057 121.8C242.573 121.8 248.873 124.133 252.957 128.8C257.157 133.467 259.257 140.583 259.257 150.15V210H233.007V153.65C233.007 150.733 232.19 148.633 230.557 147.35C228.923 146.067 226.357 145.425 222.857 145.425C220.99 145.425 219.007 145.6 216.907 145.95C214.807 146.3 212.707 146.825 210.607 147.525V210H184.357V153.65C184.357 150.733 183.54 148.633 181.907 147.35C180.273 146.067 177.707 145.425 174.207 145.425C172.34 145.425 170.357 145.6 168.257 145.95C166.157 146.3 164.057 146.825 161.957 147.525V210Z" fill="white"/>
<defs>
<linearGradient id="paint0_linear_4_305" x1="0" y1="0" x2="309" y2="309" gradientUnits="userSpaceOnUse">
<stop offset="0.1875" stop-color="#DD1E12"/>
<stop offset="0.854167" stop-color="#4E008B"/>
</linearGradient>
</defs>
</svg>
