<svg width="309" height="309" viewBox="0 0 309 309" fill="none" xmlns="http://www.w3.org/2000/svg">
<path d="M309 154.5C309 239.828 239.828 309 154.5 309C69.172 309 0 239.828 0 154.5C0 69.172 69.172 0 154.5 0C239.828 0 309 69.172 309 154.5Z" fill="url(#paint0_linear_4_70)"/>
<path d="M124.228 169.05L102.003 163.8C93.1361 161.7 87.0694 158.492 83.8027 154.175C80.6527 149.858 79.0777 143.675 79.0777 135.625C79.0777 122.908 82.4027 113.575 89.0527 107.625C95.8194 101.558 106.261 98.525 120.378 98.525C126.211 98.525 131.403 98.7583 135.953 99.225C140.503 99.6917 144.703 100.508 148.553 101.675V126C139.686 124.483 133.561 123.608 130.178 123.375C126.911 123.142 123.469 123.025 119.853 123.025C114.953 123.025 111.394 123.842 109.178 125.475C106.961 127.108 105.853 129.85 105.853 133.7C105.853 135.567 106.203 137.025 106.903 138.075C107.603 139.008 108.944 139.708 110.928 140.175L131.928 145.075C137.994 146.475 142.369 147.875 145.053 149.275C147.736 150.558 149.894 152.25 151.528 154.35C153.394 156.567 154.736 159.425 155.553 162.925C156.486 166.425 156.953 170.683 156.953 175.7C156.953 188.417 153.569 197.633 146.803 203.35C140.036 208.95 129.536 211.75 115.303 211.75C108.069 211.75 101.186 211.283 94.6527 210.35C88.1194 209.533 83.0444 208.483 79.4277 207.2V181.475C84.0944 182.992 89.6361 184.217 96.0527 185.15C102.469 185.967 108.886 186.375 115.303 186.375C120.436 186.375 123.994 185.733 125.978 184.45C127.961 183.167 128.953 180.6 128.953 176.75C128.953 174.3 128.603 172.55 127.903 171.5C127.319 170.333 126.094 169.517 124.228 169.05ZM231.548 183.575V205.275C228.748 207.025 224.198 208.542 217.898 209.825C211.598 211.108 205.123 211.75 198.473 211.75C185.873 211.75 177.006 208.425 171.873 201.775C166.856 195.008 164.348 183.342 164.348 166.775C164.348 150.208 167.615 138.6 174.148 131.95C180.681 125.183 192.115 121.8 208.448 121.8C212.415 121.8 215.973 121.917 219.123 122.15C222.273 122.267 225.656 122.558 229.273 123.025V146.3C223.556 145.833 219.415 145.6 216.848 145.6C214.281 145.483 211.481 145.425 208.448 145.425C200.398 145.425 195.381 146.592 193.398 148.925C191.531 151.142 190.598 157.092 190.598 166.775C190.598 175.525 191.356 181.125 192.873 183.575C194.506 186.025 198.181 187.25 203.898 187.25C208.565 187.25 213.406 186.9 218.423 186.2C223.556 185.5 227.931 184.625 231.548 183.575Z" fill="white"/>
<defs>
<linearGradient id="paint0_linear_4_70" x1="0" y1="0" x2="309" y2="309" gradientUnits="userSpaceOnUse">
<stop offset="0.1875" stop-color="#DD1E12"/>
<stop offset="0.854167" stop-color="#4E008B"/>
</linearGradient>
</defs>
</svg>
