<svg width="309" height="309" viewBox="0 0 309 309" fill="none" xmlns="http://www.w3.org/2000/svg">
<path d="M309 154.5C309 239.828 239.828 309 154.5 309C69.172 309 0 239.828 0 154.5C0 69.172 69.172 0 154.5 0C239.828 0 309 69.172 309 154.5Z" fill="url(#paint0_linear_4_309)"/>
<path d="M122.402 186.375C127.069 186.375 132.144 185.908 137.627 184.975C143.11 183.925 148.01 182.583 152.327 180.95V204.925C145.91 207.492 140.135 209.242 135.002 210.175C129.869 211.225 124.502 211.75 118.902 211.75C108.752 211.75 100.644 210.583 94.5769 208.25C88.5102 205.917 83.6685 202.183 80.0519 197.05C77.0185 192.617 74.7435 186.958 73.2269 180.075C71.8269 173.192 71.1269 164.85 71.1269 155.05C71.1269 135.45 75.3269 121.158 83.7269 112.175C92.2435 103.075 105.719 98.525 124.152 98.525C129.519 98.525 134.302 98.6417 138.502 98.875C142.702 99.1083 146.494 99.5167 149.877 100.1V123.725C146.027 123.492 142.002 123.317 137.802 123.2C133.719 123.083 129.169 123.025 124.152 123.025C117.735 123.025 112.952 123.667 109.802 124.95C106.769 126.117 104.494 128.217 102.977 131.25C101.577 133.583 100.585 136.675 100.002 140.525C99.4185 144.375 99.1269 149.217 99.1269 155.05C99.1269 160.533 99.3602 165.142 99.8269 168.875C100.41 172.492 101.285 175.525 102.452 177.975C103.969 181.008 106.185 183.167 109.102 184.45C112.019 185.733 116.452 186.375 122.402 186.375ZM234.369 184.45V205.275C231.569 207.025 226.844 208.542 220.194 209.825C213.544 211.108 206.544 211.75 199.194 211.75C185.194 211.75 175.102 208.25 168.919 201.25C162.736 194.133 159.644 182.642 159.644 166.775C159.644 151.258 162.911 139.883 169.444 132.65C175.977 125.417 186.302 121.8 200.419 121.8C214.186 121.8 223.869 124.542 229.469 130.025C235.186 135.392 238.044 144.958 238.044 158.725C238.044 162.458 237.986 165.433 237.869 167.65C237.752 169.867 237.519 172.433 237.169 175.35H186.069C186.186 180.133 187.469 183.458 189.919 185.325C192.369 187.192 196.861 188.125 203.394 188.125C208.994 188.125 214.711 187.775 220.544 187.075C226.377 186.258 230.986 185.383 234.369 184.45ZM200.419 144.2C194.819 144.2 191.027 145.192 189.044 147.175C187.061 149.042 186.069 152.775 186.069 158.375H214.244V154.525C214.127 150.442 213.136 147.7 211.269 146.3C209.519 144.9 205.902 144.2 200.419 144.2Z" fill="white"/>
<defs>
<linearGradient id="paint0_linear_4_309" x1="0" y1="0" x2="309" y2="309" gradientUnits="userSpaceOnUse">
<stop offset="0.1875" stop-color="#DD1E12"/>
<stop offset="0.854167" stop-color="#4E008B"/>
</linearGradient>
</defs>
</svg>
