<svg width="309" height="309" viewBox="0 0 309 309" fill="none" xmlns="http://www.w3.org/2000/svg">
<path d="M309 154.5C309 239.828 239.828 309 154.5 309C69.172 309 0 239.828 0 154.5C0 69.172 69.172 0 154.5 0C239.828 0 309 69.172 309 154.5Z" fill="url(#paint0_linear_4_310)"/>
<path d="M149.672 184.625V210H79.6725V100.275H106.797V184.625H149.672ZM180.462 211.75C171.595 211.75 165.062 209.533 160.862 205.1C156.778 200.667 154.737 193.667 154.737 184.1C154.737 174.3 157.187 167.417 162.087 163.45C167.103 159.483 175.678 157.5 187.812 157.5C190.612 157.5 193.47 157.675 196.387 158.025C199.42 158.258 202.045 158.608 204.262 159.075V152.775C204.262 149.975 203.037 147.933 200.587 146.65C198.253 145.25 194.637 144.55 189.737 144.55C184.137 144.55 179.12 144.725 174.687 145.075C170.37 145.308 166.403 145.775 162.787 146.475V124.95C167.103 123.9 172.12 123.142 177.837 122.675C183.553 122.092 190.203 121.8 197.787 121.8C208.52 121.8 216.628 124.192 222.112 128.975C227.712 133.758 230.512 140.817 230.512 150.15V210H206.012L205.137 202.65H204.612C200.995 205.45 197.028 207.667 192.712 209.3C188.395 210.933 184.312 211.75 180.462 211.75ZM191.312 174.825C186.645 174.825 183.495 175.35 181.862 176.4C180.228 177.333 179.412 179.375 179.412 182.525C179.412 185.442 180.053 187.483 181.337 188.65C182.737 189.7 185.128 190.225 188.512 190.225C191.078 190.225 193.762 189.875 196.562 189.175C199.362 188.475 201.928 187.6 204.262 186.55V175.875C202.862 175.525 201.112 175.292 199.012 175.175C196.912 174.942 194.345 174.825 191.312 174.825Z" fill="white"/>
<defs>
<linearGradient id="paint0_linear_4_310" x1="0" y1="0" x2="309" y2="309" gradientUnits="userSpaceOnUse">
<stop offset="0.1875" stop-color="#DD1E12"/>
<stop offset="0.854167" stop-color="#4E008B"/>
</linearGradient>
</defs>
</svg>
