<svg width="309" height="309" viewBox="0 0 309 309" fill="none" xmlns="http://www.w3.org/2000/svg">
<path d="M309 154.5C309 239.828 239.828 309 154.5 309C69.172 309 0 239.828 0 154.5C0 69.172 69.172 0 154.5 0C239.828 0 309 69.172 309 154.5Z" fill="url(#paint0_linear_4_297)"/>
<path d="M131.427 100.275H159.427L121.102 170.1V210H93.9767V170.1L54.6017 100.275H85.5767L107.627 146.125L131.427 100.275ZM217.996 121.8C229.546 121.8 237.712 125.183 242.496 131.95C247.279 138.6 249.671 149.975 249.671 166.075C249.671 182.058 246.462 193.667 240.046 200.9C233.629 208.133 223.246 211.75 208.896 211.75C200.612 211.75 192.912 211.342 185.796 210.525C178.679 209.708 172.379 208.483 166.896 206.85V93.625H193.146V128.1C197.112 126.117 201.196 124.6 205.396 123.55C209.712 122.383 213.912 121.8 217.996 121.8ZM223.421 166.075C223.421 157.558 222.546 152.017 220.796 149.45C219.046 146.767 214.962 145.425 208.546 145.425C205.862 145.425 203.179 145.658 200.496 146.125C197.929 146.592 195.479 147.233 193.146 148.05V186.375C194.896 186.725 196.879 187.017 199.096 187.25C201.312 187.367 203.937 187.425 206.971 187.425C213.971 187.425 218.462 186.142 220.446 183.575C222.429 180.892 223.421 175.058 223.421 166.075Z" fill="white"/>
<defs>
<linearGradient id="paint0_linear_4_297" x1="0" y1="0" x2="309" y2="309" gradientUnits="userSpaceOnUse">
<stop offset="0.1875" stop-color="#DD1E12"/>
<stop offset="0.854167" stop-color="#4E008B"/>
</linearGradient>
</defs>
</svg>
