<svg width="309" height="309" viewBox="0 0 309 309" fill="none" xmlns="http://www.w3.org/2000/svg">
<path d="M309 154.5C309 239.828 239.828 309 154.5 309C69.172 309 0 239.828 0 154.5C0 69.172 69.172 0 154.5 0C239.828 0 309 69.172 309 154.5Z" fill="url(#paint0_linear_4_306)"/>
<path d="M71.8487 179.2V210H44.7237V100.275H84.7987C101.715 100.275 113.732 103.25 120.849 109.2C127.965 115.033 131.524 124.892 131.524 138.775C131.524 152.542 127.732 162.75 120.149 169.4C112.682 175.933 101.074 179.2 85.3237 179.2H71.8487ZM104.049 138.775C104.049 133.642 102.649 130.025 99.8487 127.925C97.0487 125.825 92.0321 124.775 84.7987 124.775H71.8487V155.4H84.7987C92.1487 155.4 97.1654 154.175 99.8487 151.725C102.649 149.275 104.049 144.958 104.049 138.775ZM168.194 210H141.944V123.55H166.444L167.319 130.025H167.844C172.161 127.342 176.303 125.3 180.269 123.9C184.236 122.5 188.028 121.8 191.644 121.8C196.428 121.8 200.511 122.558 203.894 124.075C207.278 125.475 209.961 127.633 211.944 130.55H212.644C216.611 127.867 221.044 125.767 225.944 124.25C230.961 122.617 235.744 121.8 240.294 121.8C248.811 121.8 255.111 124.133 259.194 128.8C263.394 133.467 265.494 140.583 265.494 150.15V210H239.244V153.65C239.244 150.733 238.428 148.633 236.794 147.35C235.161 146.067 232.594 145.425 229.094 145.425C227.228 145.425 225.244 145.6 223.144 145.95C221.044 146.3 218.944 146.825 216.844 147.525V210H190.594V153.65C190.594 150.733 189.778 148.633 188.144 147.35C186.511 146.067 183.944 145.425 180.444 145.425C178.578 145.425 176.594 145.6 174.494 145.95C172.394 146.3 170.294 146.825 168.194 147.525V210Z" fill="white"/>
<defs>
<linearGradient id="paint0_linear_4_306" x1="0" y1="0" x2="309" y2="309" gradientUnits="userSpaceOnUse">
<stop offset="0.1875" stop-color="#DD1E12"/>
<stop offset="0.854167" stop-color="#4E008B"/>
</linearGradient>
</defs>
</svg>
