<svg width="309" height="309" viewBox="0 0 309 309" fill="none" xmlns="http://www.w3.org/2000/svg">
<path d="M309 154.5C309 239.828 239.828 309 154.5 309C69.172 309 0 239.828 0 154.5C0 69.172 69.172 0 154.5 0C239.828 0 309 69.172 309 154.5Z" fill="url(#paint0_linear_4_66)"/>
<path d="M161.118 100.275V210H135.743V144.2L117.018 189H94.9679L76.5929 144.2V210H51.2179V100.275H84.2929L106.518 155.575L129.268 100.275H161.118ZM203.229 210H176.979V123.55H199.729L200.779 132.65H201.304C205.037 128.8 209.062 126.058 213.379 124.425C217.812 122.675 223.12 121.8 229.304 121.8C239.104 121.8 246.512 124.192 251.529 128.975C256.545 133.758 259.054 140.817 259.054 150.15V210H232.804V153.65C232.804 150.967 231.695 148.925 229.479 147.525C227.379 146.125 224.229 145.425 220.029 145.425C216.879 145.425 213.845 145.775 210.929 146.475C208.012 147.175 205.445 148.167 203.229 149.45V210Z" fill="white"/>
<defs>
<linearGradient id="paint0_linear_4_66" x1="0" y1="0" x2="309" y2="309" gradientUnits="userSpaceOnUse">
<stop offset="0.1875" stop-color="#DD1E12"/>
<stop offset="0.854167" stop-color="#4E008B"/>
</linearGradient>
</defs>
</svg>
