<svg width="309" height="309" viewBox="0 0 309 309" fill="none" xmlns="http://www.w3.org/2000/svg">
<path d="M309 154.5C309 239.828 239.828 309 154.5 309C69.172 309 0 239.828 0 154.5C0 69.172 69.172 0 154.5 0C239.828 0 309 69.172 309 154.5Z" fill="url(#paint0_linear_4_299)"/>
<path d="M163.219 184.625V210H87.6192V100.275H161.644V124.775H114.744V142.975H155.169V165.725H114.744V184.625H163.219ZM201.349 210H175.099V123.55H199.599L200.474 130.2H200.824C205.024 127.633 209.282 125.708 213.599 124.425C218.032 123.025 222.174 122.325 226.024 122.325H227.424V147.7C226.374 147.467 225.207 147.35 223.924 147.35C222.757 147.233 221.24 147.175 219.374 147.175C215.99 147.175 212.782 147.408 209.749 147.875C206.715 148.225 203.915 148.808 201.349 149.625V210Z" fill="white"/>
<defs>
<linearGradient id="paint0_linear_4_299" x1="0" y1="0" x2="309" y2="309" gradientUnits="userSpaceOnUse">
<stop offset="0.1875" stop-color="#DD1E12"/>
<stop offset="0.854167" stop-color="#4E008B"/>
</linearGradient>
</defs>
</svg>
