<svg width="309" height="309" viewBox="0 0 309 309" fill="none" xmlns="http://www.w3.org/2000/svg">
<path d="M309 154.5C309 239.828 239.828 309 154.5 309C69.172 309 0 239.828 0 154.5C0 69.172 69.172 0 154.5 0C239.828 0 309 69.172 309 154.5Z" fill="url(#paint0_linear_4_125)"/>
<path d="M118.728 186.375C123.394 186.375 128.469 185.908 133.953 184.975C139.436 183.925 144.336 182.583 148.653 180.95V204.925C142.236 207.492 136.461 209.242 131.328 210.175C126.194 211.225 120.828 211.75 115.228 211.75C105.078 211.75 96.9692 210.583 90.9025 208.25C84.8359 205.917 79.9942 202.183 76.3775 197.05C73.3442 192.617 71.0692 186.958 69.5525 180.075C68.1525 173.192 67.4525 164.85 67.4525 155.05C67.4525 135.45 71.6525 121.158 80.0525 112.175C88.5692 103.075 102.044 98.525 120.478 98.525C125.844 98.525 130.628 98.6417 134.828 98.875C139.028 99.1083 142.819 99.5167 146.203 100.1V123.725C142.353 123.492 138.328 123.317 134.128 123.2C130.044 123.083 125.494 123.025 120.478 123.025C114.061 123.025 109.278 123.667 106.128 124.95C103.094 126.117 100.819 128.217 99.3025 131.25C97.9025 133.583 96.9109 136.675 96.3275 140.525C95.7442 144.375 95.4525 149.217 95.4525 155.05C95.4525 160.533 95.6859 165.142 96.1525 168.875C96.7359 172.492 97.6109 175.525 98.7775 177.975C100.294 181.008 102.511 183.167 105.428 184.45C108.344 185.733 112.778 186.375 118.728 186.375ZM212.495 93.625H238.745V210H215.47L214.07 201.95H213.545C210.395 205.217 206.661 207.667 202.345 209.3C198.028 210.933 193.128 211.75 187.645 211.75C176.211 211.75 168.045 208.308 163.145 201.425C158.361 194.542 155.97 182.992 155.97 166.775C155.97 151.025 159.003 139.592 165.07 132.475C171.253 125.358 181.228 121.8 194.995 121.8C198.378 121.8 201.528 122.033 204.445 122.5C207.478 122.85 210.161 123.375 212.495 124.075V93.625ZM198.67 145.425C191.67 145.425 187.178 146.767 185.195 149.45C183.211 152.017 182.22 157.792 182.22 166.775C182.22 175.292 183.095 180.892 184.845 183.575C186.595 186.142 190.678 187.425 197.095 187.425C200.128 187.425 202.928 187.192 205.495 186.725C208.178 186.258 210.511 185.558 212.495 184.625V147.7C210.745 146.883 208.703 146.3 206.37 145.95C204.153 145.6 201.586 145.425 198.67 145.425Z" fill="white"/>
<defs>
<linearGradient id="paint0_linear_4_125" x1="0" y1="0" x2="309" y2="309" gradientUnits="userSpaceOnUse">
<stop offset="0.1875" stop-color="#DD1E12"/>
<stop offset="0.854167" stop-color="#4E008B"/>
</linearGradient>
</defs>
</svg>
