<svg width="309" height="309" viewBox="0 0 309 309" fill="none" xmlns="http://www.w3.org/2000/svg">
<path d="M309 154.5C309 239.828 239.828 309 154.5 309C69.172 309 0 239.828 0 154.5C0 69.172 69.172 0 154.5 0C239.828 0 309 69.172 309 154.5Z" fill="url(#paint0_linear_4_285)"/>
<path d="M93.6383 179.2V210H66.5133V100.275H106.588C123.505 100.275 135.522 103.25 142.638 109.2C149.755 115.033 153.313 124.892 153.313 138.775C153.313 152.542 149.522 162.75 141.938 169.4C134.472 175.933 122.863 179.2 107.113 179.2H93.6383ZM125.838 138.775C125.838 133.642 124.438 130.025 121.638 127.925C118.838 125.825 113.822 124.775 106.588 124.775H93.6383V155.4H106.588C113.938 155.4 118.955 154.175 121.638 151.725C124.438 149.275 125.838 144.958 125.838 138.775ZM214.834 121.8C226.384 121.8 234.551 125.183 239.334 131.95C244.117 138.6 246.509 149.975 246.509 166.075C246.509 182.058 243.301 193.667 236.884 200.9C230.467 208.133 220.084 211.75 205.734 211.75C197.451 211.75 189.751 211.342 182.634 210.525C175.517 209.708 169.217 208.483 163.734 206.85V93.625H189.984V128.1C193.951 126.117 198.034 124.6 202.234 123.55C206.551 122.383 210.751 121.8 214.834 121.8ZM220.259 166.075C220.259 157.558 219.384 152.017 217.634 149.45C215.884 146.767 211.801 145.425 205.384 145.425C202.701 145.425 200.017 145.658 197.334 146.125C194.767 146.592 192.317 147.233 189.984 148.05V186.375C191.734 186.725 193.717 187.017 195.934 187.25C198.151 187.367 200.776 187.425 203.809 187.425C210.809 187.425 215.301 186.142 217.284 183.575C219.267 180.892 220.259 175.058 220.259 166.075Z" fill="white"/>
<defs>
<linearGradient id="paint0_linear_4_285" x1="0" y1="0" x2="309" y2="309" gradientUnits="userSpaceOnUse">
<stop offset="0.1875" stop-color="#DD1E12"/>
<stop offset="0.854167" stop-color="#4E008B"/>
</linearGradient>
</defs>
</svg>
