<?xml version="1.0" encoding="UTF-8"?>
<svg xmlns="http://www.w3.org/2000/svg" xmlns:xlink="http://www.w3.org/1999/xlink" version="1.1" width="512" height="512" x="0" y="0" viewBox="0 0 512 512" style="enable-background:new 0 0 512 512" xml:space="preserve" class="">
  <g>
    <path fill="#86dd57" d="M291.904 7.5H52.584c-20.706 0-37.491 16.786-37.491 37.491 0 20.706 16.785 37.491 37.491 37.491h239.32c71.693 0 130.02 58.327 130.02 130.02s-58.327 130.02-130.02 130.02h-18.375v-52.625c0-26.41-28.591-42.916-51.462-29.71l-156.07 90.118c-22.869 13.205-22.869 46.213-.001 59.419l156.07 90.127c22.871 13.207 51.463-3.298 51.463-29.709v-52.637h18.375c113.039 0 205.003-91.964 205.003-205.003C496.907 99.464 404.943 7.5 291.904 7.5z" opacity="1" data-original="#dd5790"/>
    <g fill="#da387d">
      <path d="M291.904 82.483c65.758 0 120.263 49.072 128.838 112.518a130.587 130.587 0 0 0 1.182-17.502c0-71.693-58.327-130.02-130.02-130.02H52.584c-14.383 0-26.867-8.103-33.155-19.989a37.32 37.32 0 0 0-4.336 17.502c0 20.706 16.785 37.491 37.491 37.491zM291.904 382.501h-18.375v35.004h18.375c113.039 0 205.003-91.964 205.003-205.003 0-5.896-.265-11.731-.755-17.502-8.91 104.877-97.105 187.501-204.248 187.501zM222.066 464.847 65.996 374.72c-5.42-3.13-9.539-7.38-12.39-12.207-9.177 15.54-5.058 37.135 12.39 47.211l156.07 90.127c22.871 13.207 51.463-3.298 51.463-29.709v-35.004c0 26.41-28.592 42.916-51.463 29.709z" fill="#609d23" opacity="1" data-original="#da387d" class=""/>
    </g>
    <path d="M392.063 398.819a7.5 7.5 0 0 1-3.682-14.039c62.313-35.034 101.023-101.05 101.023-172.287C489.403 103.595 400.803 15 291.899 15H52.586C36.05 15 22.597 28.453 22.597 44.989S36.05 74.978 52.586 74.978h39.869a7.5 7.5 0 0 1 0 15H52.586c-24.807 0-44.989-20.182-44.989-44.989S27.779 0 52.586 0h239.313c117.175 0 212.504 95.324 212.504 212.494 0 76.649-41.64 147.676-108.671 185.362a7.472 7.472 0 0 1-3.669.963z" fill="#000000" opacity="1" data-original="#000000"/>
    <path d="M239.225 512c-7.181 0-14.36-1.89-20.906-5.671L62.255 416.202c-13.087-7.553-20.901-21.086-20.901-36.199s7.814-28.645 20.903-36.2l156.064-90.117c13.085-7.558 28.712-7.561 41.801-.005 13.092 7.557 20.908 21.093 20.908 36.209v45.119h10.87c67.556 0 122.516-54.961 122.516-122.516 0-67.556-54.961-122.516-122.516-122.516H122.454a7.5 7.5 0 0 1 0-15h169.445c75.826 0 137.516 61.689 137.516 137.516s-61.69 137.516-137.516 137.516h-18.37a7.5 7.5 0 0 1-7.5-7.5V289.89c0-9.693-5.012-18.373-13.406-23.218-8.393-4.844-18.412-4.843-26.801.003L69.756 356.794c-8.393 4.844-13.403 13.52-13.403 23.21 0 9.689 5.01 18.365 13.401 23.209l156.067 90.128c8.39 4.847 18.409 4.848 26.802.004 8.395-4.846 13.406-13.525 13.406-23.219v-52.628a7.5 7.5 0 0 1 7.5-7.5h18.37c24.264 0 47.975-4.371 70.474-12.993a7.5 7.5 0 0 1 5.367 14.007c-24.219 9.28-49.736 13.986-75.841 13.986h-10.87v45.129c0 15.116-7.816 28.652-20.908 36.209-6.541 3.775-13.72 5.664-20.896 5.664z" fill="#000000" opacity="1" data-original="#000000"/>
  </g>
</svg>
