<svg width="309" height="309" viewBox="0 0 309 309" fill="none" xmlns="http://www.w3.org/2000/svg">
<path d="M309 154.5C309 239.828 239.828 309 154.5 309C69.172 309 0 239.828 0 154.5C0 69.172 69.172 0 154.5 0C239.828 0 309 69.172 309 154.5Z" fill="url(#paint0_linear_4_308)"/>
<path d="M109.874 179.2V210H82.7486V100.275H122.824C139.74 100.275 151.757 103.25 158.874 109.2C165.99 115.033 169.549 124.892 169.549 138.775C169.549 152.542 165.757 162.75 158.174 169.4C150.707 175.933 139.099 179.2 123.349 179.2H109.874ZM142.074 138.775C142.074 133.642 140.674 130.025 137.874 127.925C135.074 125.825 130.057 124.775 122.824 124.775H109.874V155.4H122.824C130.174 155.4 135.19 154.175 137.874 151.725C140.674 149.275 142.074 144.958 142.074 138.775ZM206.219 210H179.969V123.55H204.469L205.344 130.2H205.694C209.894 127.633 214.153 125.708 218.469 124.425C222.903 123.025 227.044 122.325 230.894 122.325H232.294V147.7C231.244 147.467 230.078 147.35 228.794 147.35C227.628 147.233 226.111 147.175 224.244 147.175C220.861 147.175 217.653 147.408 214.619 147.875C211.586 148.225 208.786 148.808 206.219 149.625V210Z" fill="white"/>
<defs>
<linearGradient id="paint0_linear_4_308" x1="0" y1="0" x2="309" y2="309" gradientUnits="userSpaceOnUse">
<stop offset="0.1875" stop-color="#DD1E12"/>
<stop offset="0.854167" stop-color="#4E008B"/>
</linearGradient>
</defs>
</svg>
