<svg width="309" height="309" viewBox="0 0 309 309" fill="none" xmlns="http://www.w3.org/2000/svg">
<path d="M309 154.5C309 239.828 239.828 309 154.5 309C69.172 309 0 239.828 0 154.5C0 69.172 69.172 0 154.5 0C239.828 0 309 69.172 309 154.5Z" fill="url(#paint0_linear_4_190)"/>
<path d="M101.249 210H62.9244V100.275H101.249C112.449 100.275 121.316 101.208 127.849 103.075C134.499 104.942 139.808 107.917 143.774 112C147.741 116.083 150.599 121.625 152.349 128.625C154.216 135.508 155.149 144.317 155.149 155.05C155.149 174.067 150.891 188.008 142.374 196.875C133.858 205.625 120.149 210 101.249 210ZM122.774 131.775C121.141 129.325 118.749 127.575 115.599 126.525C112.449 125.358 107.666 124.775 101.249 124.775H90.0494V184.625H101.249C107.549 184.625 112.274 184.1 115.424 183.05C118.574 182 121.024 180.308 122.774 177.975C124.291 175.758 125.399 172.842 126.099 169.225C126.799 165.492 127.149 160.767 127.149 155.05C127.149 149.217 126.799 144.492 126.099 140.875C125.399 137.142 124.291 134.108 122.774 131.775ZM218.423 121.8C229.973 121.8 238.14 125.183 242.923 131.95C247.706 138.6 250.098 149.975 250.098 166.075C250.098 182.058 246.89 193.667 240.473 200.9C234.056 208.133 223.673 211.75 209.323 211.75C201.04 211.75 193.34 211.342 186.223 210.525C179.106 209.708 172.806 208.483 167.323 206.85V93.625H193.573V128.1C197.54 126.117 201.623 124.6 205.823 123.55C210.14 122.383 214.34 121.8 218.423 121.8ZM223.848 166.075C223.848 157.558 222.973 152.017 221.223 149.45C219.473 146.767 215.39 145.425 208.973 145.425C206.29 145.425 203.606 145.658 200.923 146.125C198.356 146.592 195.906 147.233 193.573 148.05V186.375C195.323 186.725 197.306 187.017 199.523 187.25C201.74 187.367 204.365 187.425 207.398 187.425C214.398 187.425 218.89 186.142 220.873 183.575C222.856 180.892 223.848 175.058 223.848 166.075Z" fill="white"/>
<defs>
<linearGradient id="paint0_linear_4_190" x1="0" y1="0" x2="309" y2="309" gradientUnits="userSpaceOnUse">
<stop offset="0.1875" stop-color="#DD1E12"/>
<stop offset="0.854167" stop-color="#4E008B"/>
</linearGradient>
</defs>
</svg>
