<svg width="309" height="309" viewBox="0 0 309 309" fill="none" xmlns="http://www.w3.org/2000/svg">
<path d="M309 154.5C309 239.828 239.828 309 154.5 309C69.172 309 0 239.828 0 154.5C0 69.172 69.172 0 154.5 0C239.828 0 309 69.172 309 154.5Z" fill="url(#paint0_linear_4_234)"/>
<path d="M154.395 177.8C154.395 188.883 151.129 197.05 144.595 202.3C138.179 207.433 128.029 210 114.145 210H68.8204V100.275H114.145C126.745 100.275 135.67 102.492 140.92 106.925C146.287 111.242 148.97 118.533 148.97 128.8C148.97 135.333 148.095 140.35 146.345 143.85C144.595 147.233 141.095 149.858 135.845 151.725C142.145 153.008 146.812 155.808 149.845 160.125C152.879 164.442 154.395 170.333 154.395 177.8ZM123.945 132.825C123.945 128.975 123.187 126.292 121.67 124.775C120.27 123.258 117.762 122.5 114.145 122.5H95.9454V144.725H114.145C117.762 144.725 120.27 143.85 121.67 142.1C123.187 140.233 123.945 137.142 123.945 132.825ZM128.145 176.05C128.145 171.85 127.095 168.933 124.995 167.3C122.895 165.55 119.279 164.675 114.145 164.675H95.9454V186.9H114.145C119.279 186.9 122.895 186.083 124.995 184.45C127.095 182.817 128.145 180.017 128.145 176.05ZM191.608 176.4V210H165.358V93.625H191.608V156.1H195.633L217.508 123.55H248.658L218.208 165.2L250.408 210H218.383L195.633 176.4H191.608Z" fill="white"/>
<defs>
<linearGradient id="paint0_linear_4_234" x1="0" y1="0" x2="309" y2="309" gradientUnits="userSpaceOnUse">
<stop offset="0.1875" stop-color="#DD1E12"/>
<stop offset="0.854167" stop-color="#4E008B"/>
</linearGradient>
</defs>
</svg>
