<svg width="309" height="309" viewBox="0 0 309 309" fill="none" xmlns="http://www.w3.org/2000/svg">
<path d="M309 154.5C309 239.828 239.828 309 154.5 309C69.172 309 0 239.828 0 154.5C0 69.172 69.172 0 154.5 0C239.828 0 309 69.172 309 154.5Z" fill="url(#paint0_linear_4_121)"/>
<path d="M160.091 100.275V124.775H130.166V210H103.041V124.775H73.1161V100.275H160.091ZM229.755 184.45V205.275C226.955 207.025 222.23 208.542 215.58 209.825C208.93 211.108 201.93 211.75 194.58 211.75C180.58 211.75 170.488 208.25 164.305 201.25C158.121 194.133 155.03 182.642 155.03 166.775C155.03 151.258 158.296 139.883 164.83 132.65C171.363 125.417 181.688 121.8 195.805 121.8C209.571 121.8 219.255 124.542 224.855 130.025C230.571 135.392 233.43 144.958 233.43 158.725C233.43 162.458 233.371 165.433 233.255 167.65C233.138 169.867 232.905 172.433 232.555 175.35H181.455C181.571 180.133 182.855 183.458 185.305 185.325C187.755 187.192 192.246 188.125 198.78 188.125C204.38 188.125 210.096 187.775 215.93 187.075C221.763 186.258 226.371 185.383 229.755 184.45ZM195.805 144.2C190.205 144.2 186.413 145.192 184.43 147.175C182.446 149.042 181.455 152.775 181.455 158.375H209.63V154.525C209.513 150.442 208.521 147.7 206.655 146.3C204.905 144.9 201.288 144.2 195.805 144.2Z" fill="white"/>
<defs>
<linearGradient id="paint0_linear_4_121" x1="0" y1="0" x2="309" y2="309" gradientUnits="userSpaceOnUse">
<stop offset="0.1875" stop-color="#DD1E12"/>
<stop offset="0.854167" stop-color="#4E008B"/>
</linearGradient>
</defs>
</svg>
