<svg width="309" height="309" viewBox="0 0 309 309" fill="none" xmlns="http://www.w3.org/2000/svg">
<path d="M309 154.5C309 239.828 239.828 309 154.5 309C69.172 309 0 239.828 0 154.5C0 69.172 69.172 0 154.5 0C239.828 0 309 69.172 309 154.5Z" fill="url(#paint0_linear_4_132)"/>
<path d="M154.523 100.275V210H128.623L85.2232 146.65V210H59.8482V100.275H85.5732L129.148 166.075V100.275H154.523ZM221.499 121.8C233.049 121.8 241.216 125.183 245.999 131.95C250.782 138.6 253.174 149.975 253.174 166.075C253.174 182.058 249.966 193.667 243.549 200.9C237.132 208.133 226.749 211.75 212.399 211.75C204.116 211.75 196.416 211.342 189.299 210.525C182.182 209.708 175.882 208.483 170.399 206.85V93.625H196.649V128.1C200.616 126.117 204.699 124.6 208.899 123.55C213.216 122.383 217.416 121.8 221.499 121.8ZM226.924 166.075C226.924 157.558 226.049 152.017 224.299 149.45C222.549 146.767 218.466 145.425 212.049 145.425C209.366 145.425 206.682 145.658 203.999 146.125C201.432 146.592 198.982 147.233 196.649 148.05V186.375C198.399 186.725 200.382 187.017 202.599 187.25C204.816 187.367 207.441 187.425 210.474 187.425C217.474 187.425 221.966 186.142 223.949 183.575C225.932 180.892 226.924 175.058 226.924 166.075Z" fill="white"/>
<defs>
<linearGradient id="paint0_linear_4_132" x1="0" y1="0" x2="309" y2="309" gradientUnits="userSpaceOnUse">
<stop offset="0.1875" stop-color="#DD1E12"/>
<stop offset="0.854167" stop-color="#4E008B"/>
</linearGradient>
</defs>
</svg>
