<svg width="309" height="309" viewBox="0 0 309 309" fill="none" xmlns="http://www.w3.org/2000/svg">
<path d="M309 154.5C309 239.828 239.828 309 154.5 309C69.172 309 0 239.828 0 154.5C0 69.172 69.172 0 154.5 0C239.828 0 309 69.172 309 154.5Z" fill="url(#paint0_linear_4_241)"/>
<path d="M149.581 100.275V124.775H119.656V210H92.5309V124.775H62.6059V100.275H149.581ZM185.541 210H159.291V93.625H185.541V129.675C189.857 127.225 194.291 125.3 198.841 123.9C203.507 122.5 207.941 121.8 212.141 121.8C221.941 121.8 229.232 124.133 234.016 128.8C238.916 133.467 241.366 140.583 241.366 150.15V210H215.116V153.65C215.116 150.733 214.241 148.633 212.491 147.35C210.741 146.067 207.941 145.425 204.091 145.425C201.174 145.425 198.082 145.717 194.816 146.3C191.549 146.767 188.457 147.408 185.541 148.225V210Z" fill="white"/>
<defs>
<linearGradient id="paint0_linear_4_241" x1="0" y1="0" x2="309" y2="309" gradientUnits="userSpaceOnUse">
<stop offset="0.1875" stop-color="#DD1E12"/>
<stop offset="0.854167" stop-color="#4E008B"/>
</linearGradient>
</defs>
</svg>
