<svg width="309" height="309" viewBox="0 0 309 309" fill="none" xmlns="http://www.w3.org/2000/svg">
<path d="M309 154.5C309 239.828 239.828 309 154.5 309C69.172 309 0 239.828 0 154.5C0 69.172 69.172 0 154.5 0C239.828 0 309 69.172 309 154.5Z" fill="url(#paint0_linear_4_133)"/>
<path d="M164.18 184.625V210H82.4547V184.625L130.23 124.775H87.5297V100.275H160.855V124.775L113.255 184.625H164.18ZM201.263 210H175.013V123.55H199.513L200.388 130.2H200.738C204.938 127.633 209.197 125.708 213.513 124.425C217.947 123.025 222.088 122.325 225.938 122.325H227.338V147.7C226.288 147.467 225.122 147.35 223.838 147.35C222.672 147.233 221.155 147.175 219.288 147.175C215.905 147.175 212.697 147.408 209.663 147.875C206.63 148.225 203.83 148.808 201.263 149.625V210Z" fill="white"/>
<defs>
<linearGradient id="paint0_linear_4_133" x1="0" y1="0" x2="309" y2="309" gradientUnits="userSpaceOnUse">
<stop offset="0.1875" stop-color="#DD1E12"/>
<stop offset="0.854167" stop-color="#4E008B"/>
</linearGradient>
</defs>
</svg>
