<svg width="309" height="309" viewBox="0 0 309 309" fill="none" xmlns="http://www.w3.org/2000/svg">
<path d="M309 154.5C309 239.828 239.828 309 154.5 309C69.172 309 0 239.828 0 154.5C0 69.172 69.172 0 154.5 0C239.828 0 309 69.172 309 154.5Z" fill="url(#paint0_linear_4_229)"/>
<path d="M154.78 100.275V210H128.88L85.4796 146.65V210H60.1046V100.275H85.8296L129.405 166.075V100.275H154.78ZM252.905 166.775C252.905 182.992 249.639 194.542 243.105 201.425C236.572 208.308 225.605 211.75 210.205 211.75C194.805 211.75 183.839 208.308 177.305 201.425C170.772 194.542 167.505 182.992 167.505 166.775C167.505 150.558 170.772 139.008 177.305 132.125C183.839 125.242 194.805 121.8 210.205 121.8C225.605 121.8 236.572 125.242 243.105 132.125C249.639 139.008 252.905 150.558 252.905 166.775ZM193.755 166.425C193.755 175.292 194.689 181.008 196.555 183.575C198.539 186.142 203.089 187.425 210.205 187.425C217.322 187.425 221.814 186.142 223.68 183.575C225.664 181.008 226.655 175.292 226.655 166.425C226.655 157.558 225.664 151.842 223.68 149.275C221.814 146.708 217.322 145.425 210.205 145.425C203.089 145.425 198.539 146.708 196.555 149.275C194.689 151.842 193.755 157.558 193.755 166.425Z" fill="white"/>
<defs>
<linearGradient id="paint0_linear_4_229" x1="0" y1="0" x2="309" y2="309" gradientUnits="userSpaceOnUse">
<stop offset="0.1875" stop-color="#DD1E12"/>
<stop offset="0.854167" stop-color="#4E008B"/>
</linearGradient>
</defs>
</svg>
