<svg width="309" height="309" viewBox="0 0 309 309" fill="none" xmlns="http://www.w3.org/2000/svg">
<path d="M309 154.5C309 239.828 239.828 309 154.5 309C69.172 309 0 239.828 0 154.5C0 69.172 69.172 0 154.5 0C239.828 0 309 69.172 309 154.5Z" fill="url(#paint0_linear_4_185)"/>
<path d="M110.051 210H71.7257V100.275H110.051C121.251 100.275 130.117 101.208 136.651 103.075C143.301 104.942 148.609 107.917 152.576 112C156.542 116.083 159.401 121.625 161.151 128.625C163.017 135.508 163.951 144.317 163.951 155.05C163.951 174.067 159.692 188.008 151.176 196.875C142.659 205.625 128.951 210 110.051 210ZM131.576 131.775C129.942 129.325 127.551 127.575 124.401 126.525C121.251 125.358 116.467 124.775 110.051 124.775H98.8507V184.625H110.051C116.351 184.625 121.076 184.1 124.226 183.05C127.376 182 129.826 180.308 131.576 177.975C133.092 175.758 134.201 172.842 134.901 169.225C135.601 165.492 135.951 160.767 135.951 155.05C135.951 149.217 135.601 144.492 134.901 140.875C134.201 137.142 133.092 134.108 131.576 131.775ZM211.299 144.025C206.399 144.025 203.074 144.433 201.324 145.25C199.691 145.95 198.874 147.642 198.874 150.325C198.874 151.375 199.166 152.25 199.749 152.95C200.449 153.533 201.382 153.883 202.549 154L223.374 156.8C230.141 157.733 234.866 159.95 237.549 163.45C240.349 166.833 241.749 172.258 241.749 179.725C241.749 190.925 239.241 199.092 234.224 204.225C229.207 209.242 220.457 211.75 207.974 211.75C201.091 211.75 194.849 211.458 189.249 210.875C183.766 210.408 179.099 209.708 175.249 208.775V186.025C178.166 186.725 182.191 187.367 187.324 187.95C192.574 188.417 197.882 188.65 203.249 188.65C208.032 188.65 211.241 188.183 212.874 187.25C214.624 186.2 215.499 184.275 215.499 181.475C215.499 180.542 215.207 179.783 214.624 179.2C214.041 178.5 213.282 178.092 212.349 177.975L190.824 175.175C184.524 174.358 179.916 172.083 176.999 168.35C174.199 164.5 172.799 158.842 172.799 151.375C172.799 141.575 175.891 134.225 182.074 129.325C188.257 124.308 197.416 121.8 209.549 121.8C214.332 121.8 218.766 121.917 222.849 122.15C226.932 122.383 231.249 122.85 235.799 123.55V145.425C232.882 144.958 229.266 144.608 224.949 144.375C220.632 144.142 216.082 144.025 211.299 144.025Z" fill="white"/>
<defs>
<linearGradient id="paint0_linear_4_185" x1="0" y1="0" x2="309" y2="309" gradientUnits="userSpaceOnUse">
<stop offset="0.1875" stop-color="#DD1E12"/>
<stop offset="0.854167" stop-color="#4E008B"/>
</linearGradient>
</defs>
</svg>
