<svg width="309" height="309" viewBox="0 0 309 309" fill="none" xmlns="http://www.w3.org/2000/svg">
<path d="M309 154.5C309 239.828 239.828 309 154.5 309C69.172 309 0 239.828 0 154.5C0 69.172 69.172 0 154.5 0C239.828 0 309 69.172 309 154.5Z" fill="url(#paint0_linear_4_231)"/>
<path d="M78.6847 170.1V210H51.5597V100.275H125.585V124.775H78.6847V147.35H119.11V170.1H78.6847ZM161.358 210H135.108V123.55H159.608L160.483 130.025H161.008C165.325 127.342 169.467 125.3 173.434 123.9C177.4 122.5 181.192 121.8 184.808 121.8C189.592 121.8 193.675 122.558 197.058 124.075C200.442 125.475 203.125 127.633 205.108 130.55H205.809C209.775 127.867 214.209 125.767 219.108 124.25C224.125 122.617 228.909 121.8 233.458 121.8C241.975 121.8 248.275 124.133 252.359 128.8C256.559 133.467 258.658 140.583 258.658 150.15V210H232.409V153.65C232.409 150.733 231.592 148.633 229.959 147.35C228.325 146.067 225.759 145.425 222.258 145.425C220.392 145.425 218.409 145.6 216.309 145.95C214.209 146.3 212.108 146.825 210.008 147.525V210H183.758V153.65C183.758 150.733 182.942 148.633 181.308 147.35C179.675 146.067 177.108 145.425 173.608 145.425C171.742 145.425 169.758 145.6 167.658 145.95C165.558 146.3 163.458 146.825 161.358 147.525V210Z" fill="white"/>
<defs>
<linearGradient id="paint0_linear_4_231" x1="0" y1="0" x2="309" y2="309" gradientUnits="userSpaceOnUse">
<stop offset="0.1875" stop-color="#DD1E12"/>
<stop offset="0.854167" stop-color="#4E008B"/>
</linearGradient>
</defs>
</svg>
