<svg width="309" height="309" viewBox="0 0 309 309" fill="none" xmlns="http://www.w3.org/2000/svg">
<path d="M309 154.5C309 239.828 239.828 309 154.5 309C69.172 309 0 239.828 0 154.5C0 69.172 69.172 0 154.5 0C239.828 0 309 69.172 309 154.5Z" fill="url(#paint0_linear_4_240)"/>
<path d="M99.2779 179.2V210H72.1529V100.275H112.228C129.145 100.275 141.161 103.25 148.278 109.2C155.395 115.033 158.953 124.892 158.953 138.775C158.953 152.542 155.161 162.75 147.578 169.4C140.111 175.933 128.503 179.2 112.753 179.2H99.2779ZM131.478 138.775C131.478 133.642 130.078 130.025 127.278 127.925C124.478 125.825 119.461 124.775 112.228 124.775H99.2779V155.4H112.228C119.578 155.4 124.595 154.175 127.278 151.725C130.078 149.275 131.478 144.958 131.478 138.775ZM187.981 211.75C179.114 211.75 172.581 209.533 168.381 205.1C164.298 200.667 162.256 193.667 162.256 184.1C162.256 174.3 164.706 167.417 169.606 163.45C174.623 159.483 183.198 157.5 195.331 157.5C198.131 157.5 200.989 157.675 203.906 158.025C206.939 158.258 209.564 158.608 211.781 159.075V152.775C211.781 149.975 210.556 147.933 208.106 146.65C205.773 145.25 202.156 144.55 197.256 144.55C191.656 144.55 186.639 144.725 182.206 145.075C177.889 145.308 173.923 145.775 170.306 146.475V124.95C174.623 123.9 179.639 123.142 185.356 122.675C191.073 122.092 197.723 121.8 205.306 121.8C216.039 121.8 224.148 124.192 229.631 128.975C235.231 133.758 238.031 140.817 238.031 150.15V210H213.531L212.656 202.65H212.131C208.514 205.45 204.548 207.667 200.231 209.3C195.914 210.933 191.831 211.75 187.981 211.75ZM198.831 174.825C194.164 174.825 191.014 175.35 189.381 176.4C187.748 177.333 186.931 179.375 186.931 182.525C186.931 185.442 187.573 187.483 188.856 188.65C190.256 189.7 192.648 190.225 196.031 190.225C198.598 190.225 201.281 189.875 204.081 189.175C206.881 188.475 209.448 187.6 211.781 186.55V175.875C210.381 175.525 208.631 175.292 206.531 175.175C204.431 174.942 201.864 174.825 198.831 174.825Z" fill="white"/>
<defs>
<linearGradient id="paint0_linear_4_240" x1="0" y1="0" x2="309" y2="309" gradientUnits="userSpaceOnUse">
<stop offset="0.1875" stop-color="#DD1E12"/>
<stop offset="0.854167" stop-color="#4E008B"/>
</linearGradient>
</defs>
</svg>
