<svg width="309" height="309" viewBox="0 0 309 309" fill="none" xmlns="http://www.w3.org/2000/svg">
<path d="M309 154.5C309 239.828 239.828 309 154.5 309C69.172 309 0 239.828 0 154.5C0 69.172 69.172 0 154.5 0C239.828 0 309 69.172 309 154.5Z" fill="url(#paint0_linear_4_235)"/>
<path d="M96.938 186.375C101.605 186.375 106.68 185.908 112.163 184.975C117.646 183.925 122.546 182.583 126.863 180.95V204.925C120.446 207.492 114.671 209.242 109.538 210.175C104.405 211.225 99.038 211.75 93.438 211.75C83.288 211.75 75.1797 210.583 69.113 208.25C63.0463 205.917 58.2047 202.183 54.588 197.05C51.5547 192.617 49.2797 186.958 47.763 180.075C46.363 173.192 45.663 164.85 45.663 155.05C45.663 135.45 49.863 121.158 58.263 112.175C66.7797 103.075 80.2547 98.525 98.688 98.525C104.055 98.525 108.838 98.6417 113.038 98.875C117.238 99.1083 121.03 99.5167 124.413 100.1V123.725C120.563 123.492 116.538 123.317 112.338 123.2C108.255 123.083 103.705 123.025 98.688 123.025C92.2713 123.025 87.488 123.667 84.338 124.95C81.3047 126.117 79.0297 128.217 77.513 131.25C76.113 133.583 75.1213 136.675 74.538 140.525C73.9547 144.375 73.663 149.217 73.663 155.05C73.663 160.533 73.8963 165.142 74.363 168.875C74.9463 172.492 75.8213 175.525 76.988 177.975C78.5047 181.008 80.7213 183.167 83.638 184.45C86.5547 185.733 90.988 186.375 96.938 186.375ZM163.58 210H137.33V123.55H161.83L162.705 130.025H163.23C167.547 127.342 171.689 125.3 175.655 123.9C179.622 122.5 183.414 121.8 187.03 121.8C191.814 121.8 195.897 122.558 199.28 124.075C202.664 125.475 205.347 127.633 207.33 130.55H208.03C211.997 127.867 216.43 125.767 221.33 124.25C226.347 122.617 231.13 121.8 235.68 121.8C244.197 121.8 250.497 124.133 254.58 128.8C258.78 133.467 260.88 140.583 260.88 150.15V210H234.63V153.65C234.63 150.733 233.814 148.633 232.18 147.35C230.547 146.067 227.98 145.425 224.48 145.425C222.614 145.425 220.63 145.6 218.53 145.95C216.43 146.3 214.33 146.825 212.23 147.525V210H185.98V153.65C185.98 150.733 185.164 148.633 183.53 147.35C181.897 146.067 179.33 145.425 175.83 145.425C173.964 145.425 171.98 145.6 169.88 145.95C167.78 146.3 165.68 146.825 163.58 147.525V210Z" fill="white"/>
<defs>
<linearGradient id="paint0_linear_4_235" x1="0" y1="0" x2="309" y2="309" gradientUnits="userSpaceOnUse">
<stop offset="0.1875" stop-color="#DD1E12"/>
<stop offset="0.854167" stop-color="#4E008B"/>
</linearGradient>
</defs>
</svg>
