<svg width="309" height="309" viewBox="0 0 309 309" fill="none" xmlns="http://www.w3.org/2000/svg">
<path d="M309 154.5C309 239.828 239.828 309 154.5 309C69.172 309 0 239.828 0 154.5C0 69.172 69.172 0 154.5 0C239.828 0 309 69.172 309 154.5Z" fill="url(#paint0_linear_4_244)"/>
<path d="M116.71 170.1V210H89.5846V100.275H163.61V124.775H116.71V147.35H157.135V170.1H116.71ZM199.383 210H173.133V123.55H197.633L198.508 130.2H198.858C203.058 127.633 207.317 125.708 211.633 124.425C216.067 123.025 220.208 122.325 224.058 122.325H225.458V147.7C224.408 147.467 223.242 147.35 221.958 147.35C220.792 147.233 219.275 147.175 217.408 147.175C214.025 147.175 210.817 147.408 207.783 147.875C204.75 148.225 201.95 148.808 199.383 149.625V210Z" fill="white"/>
<defs>
<linearGradient id="paint0_linear_4_244" x1="0" y1="0" x2="309" y2="309" gradientUnits="userSpaceOnUse">
<stop offset="0.1875" stop-color="#DD1E12"/>
<stop offset="0.854167" stop-color="#4E008B"/>
</linearGradient>
</defs>
</svg>
