<svg width="309" height="309" viewBox="0 0 309 309" fill="none" xmlns="http://www.w3.org/2000/svg">
<path d="M309 154.5C309 239.828 239.828 309 154.5 309C69.172 309 0 239.828 0 154.5C0 69.172 69.172 0 154.5 0C239.828 0 309 69.172 309 154.5Z" fill="url(#paint0_linear_4_238)"/>
<path d="M154.523 100.275V210H128.623L85.2232 146.65V210H59.8482V100.275H85.5732L129.148 166.075V100.275H154.523ZM196.649 236.6H170.399V123.55H193.499L194.899 131.6H195.249C198.399 128.333 202.132 125.883 206.449 124.25C210.882 122.617 215.899 121.8 221.499 121.8C232.932 121.8 241.041 125.242 245.824 132.125C250.724 139.008 253.174 150.558 253.174 166.775C253.174 182.525 250.082 193.958 243.899 201.075C237.832 208.192 227.916 211.75 214.149 211.75C210.766 211.75 207.557 211.517 204.524 211.05C201.607 210.7 198.982 210.175 196.649 209.475V236.6ZM226.924 166.775C226.924 158.025 225.991 152.308 224.124 149.625C222.257 146.825 218.232 145.425 212.049 145.425C209.016 145.425 206.157 145.658 203.474 146.125C200.907 146.592 198.632 147.292 196.649 148.225V185.15C198.399 185.967 200.382 186.55 202.599 186.9C204.932 187.25 207.557 187.425 210.474 187.425C217.591 187.425 222.082 186.2 223.949 183.75C225.932 181.183 226.924 175.525 226.924 166.775Z" fill="white"/>
<defs>
<linearGradient id="paint0_linear_4_238" x1="0" y1="0" x2="309" y2="309" gradientUnits="userSpaceOnUse">
<stop offset="0.1875" stop-color="#DD1E12"/>
<stop offset="0.854167" stop-color="#4E008B"/>
</linearGradient>
</defs>
</svg>
