<svg width="309" height="309" viewBox="0 0 309 309" fill="none" xmlns="http://www.w3.org/2000/svg">
<path d="M309 154.5C309 239.828 239.828 309 154.5 309C69.172 309 0 239.828 0 154.5C0 69.172 69.172 0 154.5 0C239.828 0 309 69.172 309 154.5Z" fill="url(#paint0_linear_4_94)"/>
<path d="M119.582 186.375C124.249 186.375 129.324 185.908 134.807 184.975C140.29 183.925 145.19 182.583 149.507 180.95V204.925C143.09 207.492 137.315 209.242 132.182 210.175C127.049 211.225 121.682 211.75 116.082 211.75C105.932 211.75 97.8237 210.583 91.757 208.25C85.6904 205.917 80.8487 202.183 77.232 197.05C74.1987 192.617 71.9237 186.958 70.407 180.075C69.007 173.192 68.307 164.85 68.307 155.05C68.307 135.45 72.507 121.158 80.907 112.175C89.4237 103.075 102.899 98.525 121.332 98.525C126.699 98.525 131.482 98.6417 135.682 98.875C139.882 99.1083 143.674 99.5167 147.057 100.1V123.725C143.207 123.492 139.182 123.317 134.982 123.2C130.899 123.083 126.349 123.025 121.332 123.025C114.915 123.025 110.132 123.667 106.982 124.95C103.949 126.117 101.674 128.217 100.157 131.25C98.757 133.583 97.7654 136.675 97.182 140.525C96.5987 144.375 96.307 149.217 96.307 155.05C96.307 160.533 96.5404 165.142 97.007 168.875C97.5904 172.492 98.4654 175.525 99.632 177.975C101.149 181.008 103.365 183.167 106.282 184.45C109.199 185.733 113.632 186.375 119.582 186.375ZM188.849 211.75C179.049 211.75 171.699 209.358 166.799 204.575C162.016 199.675 159.624 192.325 159.624 182.525V123.55H185.874V179.025C185.874 181.942 186.749 184.042 188.499 185.325C190.249 186.608 193.049 187.25 196.899 187.25C199.116 187.25 201.449 187.075 203.899 186.725C206.466 186.375 209.033 185.85 211.599 185.15V123.55H237.849V210H213.349L212.649 205.275H212.299C208.216 207.258 204.074 208.833 199.874 210C195.791 211.167 192.116 211.75 188.849 211.75Z" fill="white"/>
<defs>
<linearGradient id="paint0_linear_4_94" x1="0" y1="0" x2="309" y2="309" gradientUnits="userSpaceOnUse">
<stop offset="0.1875" stop-color="#DD1E12"/>
<stop offset="0.854167" stop-color="#4E008B"/>
</linearGradient>
</defs>
</svg>
