<svg width="309" height="309" viewBox="0 0 309 309" fill="none" xmlns="http://www.w3.org/2000/svg">
<path d="M309 154.5C309 239.828 239.828 309 154.5 309C69.172 309 0 239.828 0 154.5C0 69.172 69.172 0 154.5 0C239.828 0 309 69.172 309 154.5Z" fill="url(#paint0_linear_4_136)"/>
<path d="M92.1856 174.65V210H65.0606V100.275H105.136C122.052 100.275 134.069 103.133 141.186 108.85C148.302 114.567 151.861 124.075 151.861 137.375C151.861 146.358 149.936 153.708 146.086 159.425C142.352 165.025 136.636 169.108 128.936 171.675L155.711 210H123.161L100.411 174.65H92.1856ZM124.386 137.375C124.386 132.708 122.986 129.442 120.186 127.575C117.386 125.708 112.369 124.775 105.136 124.775H92.1856V152.775H105.136C112.369 152.775 117.386 151.667 120.186 149.45C122.986 147.117 124.386 143.092 124.386 137.375ZM216.287 121.8C227.837 121.8 236.003 125.183 240.787 131.95C245.57 138.6 247.962 149.975 247.962 166.075C247.962 182.058 244.753 193.667 238.337 200.9C231.92 208.133 221.537 211.75 207.187 211.75C198.903 211.75 191.203 211.342 184.087 210.525C176.97 209.708 170.67 208.483 165.187 206.85V93.625H191.437V128.1C195.403 126.117 199.487 124.6 203.687 123.55C208.003 122.383 212.203 121.8 216.287 121.8ZM221.712 166.075C221.712 157.558 220.837 152.017 219.087 149.45C217.337 146.767 213.253 145.425 206.837 145.425C204.153 145.425 201.47 145.658 198.787 146.125C196.22 146.592 193.77 147.233 191.437 148.05V186.375C193.187 186.725 195.17 187.017 197.387 187.25C199.603 187.367 202.228 187.425 205.262 187.425C212.262 187.425 216.753 186.142 218.737 183.575C220.72 180.892 221.712 175.058 221.712 166.075Z" fill="white"/>
<defs>
<linearGradient id="paint0_linear_4_136" x1="0" y1="0" x2="309" y2="309" gradientUnits="userSpaceOnUse">
<stop offset="0.1875" stop-color="#DD1E12"/>
<stop offset="0.854167" stop-color="#4E008B"/>
</linearGradient>
</defs>
</svg>
