<svg width="309" height="309" viewBox="0 0 309 309" fill="none" xmlns="http://www.w3.org/2000/svg">
<path d="M309 154.5C309 239.828 239.828 309 154.5 309C69.172 309 0 239.828 0 154.5C0 69.172 69.172 0 154.5 0C239.828 0 309 69.172 309 154.5Z" fill="url(#paint0_linear_4_178)"/>
<path d="M164.534 100.275V124.775H134.609V210H107.484V124.775H77.5595V100.275H164.534ZM199.165 144.025C194.265 144.025 190.94 144.433 189.19 145.25C187.557 145.95 186.74 147.642 186.74 150.325C186.74 151.375 187.032 152.25 187.615 152.95C188.315 153.533 189.249 153.883 190.415 154L211.24 156.8C218.007 157.733 222.732 159.95 225.415 163.45C228.215 166.833 229.615 172.258 229.615 179.725C229.615 190.925 227.107 199.092 222.09 204.225C217.074 209.242 208.324 211.75 195.84 211.75C188.957 211.75 182.715 211.458 177.115 210.875C171.632 210.408 166.965 209.708 163.115 208.775V186.025C166.032 186.725 170.057 187.367 175.19 187.95C180.44 188.417 185.749 188.65 191.115 188.65C195.899 188.65 199.107 188.183 200.74 187.25C202.49 186.2 203.365 184.275 203.365 181.475C203.365 180.542 203.074 179.783 202.49 179.2C201.907 178.5 201.149 178.092 200.215 177.975L178.69 175.175C172.39 174.358 167.782 172.083 164.865 168.35C162.065 164.5 160.665 158.842 160.665 151.375C160.665 141.575 163.757 134.225 169.94 129.325C176.124 124.308 185.282 121.8 197.415 121.8C202.199 121.8 206.632 121.917 210.715 122.15C214.799 122.383 219.115 122.85 223.665 123.55V145.425C220.749 144.958 217.132 144.608 212.815 144.375C208.499 144.142 203.949 144.025 199.165 144.025Z" fill="white"/>
<defs>
<linearGradient id="paint0_linear_4_178" x1="0" y1="0" x2="309" y2="309" gradientUnits="userSpaceOnUse">
<stop offset="0.1875" stop-color="#DD1E12"/>
<stop offset="0.854167" stop-color="#4E008B"/>
</linearGradient>
</defs>
</svg>
