<svg width="309" height="309" viewBox="0 0 309 309" fill="none" xmlns="http://www.w3.org/2000/svg">
<path d="M309 154.5C309 239.828 239.828 309 154.5 309C69.172 309 0 239.828 0 154.5C0 69.172 69.172 0 154.5 0C239.828 0 309 69.172 309 154.5Z" fill="url(#paint0_linear_4_89)"/>
<path d="M118.075 169.05L95.8504 163.8C86.9837 161.7 80.9171 158.492 77.6504 154.175C74.5004 149.858 72.9254 143.675 72.9254 135.625C72.9254 122.908 76.2504 113.575 82.9004 107.625C89.6671 101.558 100.109 98.525 114.225 98.525C120.059 98.525 125.25 98.7583 129.8 99.225C134.35 99.6917 138.55 100.508 142.4 101.675V126C133.534 124.483 127.409 123.608 124.025 123.375C120.759 123.142 117.317 123.025 113.7 123.025C108.8 123.025 105.242 123.842 103.025 125.475C100.809 127.108 99.7004 129.85 99.7004 133.7C99.7004 135.567 100.05 137.025 100.75 138.075C101.45 139.008 102.792 139.708 104.775 140.175L125.775 145.075C131.842 146.475 136.217 147.875 138.9 149.275C141.584 150.558 143.742 152.25 145.375 154.35C147.242 156.567 148.584 159.425 149.4 162.925C150.334 166.425 150.8 170.683 150.8 175.7C150.8 188.417 147.417 197.633 140.65 203.35C133.884 208.95 123.384 211.75 109.15 211.75C101.917 211.75 95.0337 211.283 88.5004 210.35C81.9671 209.533 76.8921 208.483 73.2754 207.2V181.475C77.9421 182.992 83.4837 184.217 89.9004 185.15C96.3171 185.967 102.734 186.375 109.15 186.375C114.284 186.375 117.842 185.733 119.825 184.45C121.809 183.167 122.8 180.6 122.8 176.75C122.8 174.3 122.45 172.55 121.75 171.5C121.167 170.333 119.942 169.517 118.075 169.05ZM232.746 184.45V205.275C229.946 207.025 225.221 208.542 218.571 209.825C211.921 211.108 204.921 211.75 197.571 211.75C183.571 211.75 173.479 208.25 167.296 201.25C161.112 194.133 158.021 182.642 158.021 166.775C158.021 151.258 161.287 139.883 167.821 132.65C174.354 125.417 184.679 121.8 198.796 121.8C212.562 121.8 222.246 124.542 227.846 130.025C233.562 135.392 236.421 144.958 236.421 158.725C236.421 162.458 236.362 165.433 236.246 167.65C236.129 169.867 235.896 172.433 235.546 175.35H184.446C184.562 180.133 185.846 183.458 188.296 185.325C190.746 187.192 195.237 188.125 201.771 188.125C207.371 188.125 213.087 187.775 218.921 187.075C224.754 186.258 229.362 185.383 232.746 184.45ZM198.796 144.2C193.196 144.2 189.404 145.192 187.421 147.175C185.437 149.042 184.446 152.775 184.446 158.375H212.621V154.525C212.504 150.442 211.512 147.7 209.646 146.3C207.896 144.9 204.279 144.2 198.796 144.2Z" fill="white"/>
<defs>
<linearGradient id="paint0_linear_4_89" x1="0" y1="0" x2="309" y2="309" gradientUnits="userSpaceOnUse">
<stop offset="0.1875" stop-color="#DD1E12"/>
<stop offset="0.854167" stop-color="#4E008B"/>
</linearGradient>
</defs>
</svg>
