<svg width="309" height="309" viewBox="0 0 309 309" fill="none" xmlns="http://www.w3.org/2000/svg">
<path d="M309 154.5C309 239.828 239.828 309 154.5 309C69.172 309 0 239.828 0 154.5C0 69.172 69.172 0 154.5 0C239.828 0 309 69.172 309 154.5Z" fill="url(#paint0_linear_4_189)"/>
<path d="M114.316 169.05L92.0906 163.8C83.224 161.7 77.1573 158.492 73.8906 154.175C70.7406 149.858 69.1656 143.675 69.1656 135.625C69.1656 122.908 72.4906 113.575 79.1406 107.625C85.9073 101.558 96.349 98.525 110.466 98.525C116.299 98.525 121.491 98.7583 126.041 99.225C130.591 99.6917 134.791 100.508 138.641 101.675V126C129.774 124.483 123.649 123.608 120.266 123.375C116.999 123.142 113.557 123.025 109.941 123.025C105.041 123.025 101.482 123.842 99.2656 125.475C97.049 127.108 95.9406 129.85 95.9406 133.7C95.9406 135.567 96.2906 137.025 96.9906 138.075C97.6906 139.008 99.0323 139.708 101.016 140.175L122.016 145.075C128.082 146.475 132.457 147.875 135.141 149.275C137.824 150.558 139.982 152.25 141.616 154.35C143.482 156.567 144.824 159.425 145.641 162.925C146.574 166.425 147.041 170.683 147.041 175.7C147.041 188.417 143.657 197.633 136.891 203.35C130.124 208.95 119.624 211.75 105.391 211.75C98.1573 211.75 91.274 211.283 84.7406 210.35C78.2073 209.533 73.1323 208.483 69.5156 207.2V181.475C74.1823 182.992 79.724 184.217 86.1406 185.15C92.5573 185.967 98.974 186.375 105.391 186.375C110.524 186.375 114.082 185.733 116.066 184.45C118.049 183.167 119.041 180.6 119.041 176.75C119.041 174.3 118.691 172.55 117.991 171.5C117.407 170.333 116.182 169.517 114.316 169.05ZM196.436 238.35C190.252 238.35 184.302 237.942 178.586 237.125C172.986 236.308 168.377 235.258 164.761 233.975V211.75C167.561 212.567 171.761 213.267 177.361 213.85C183.077 214.433 188.736 214.725 194.336 214.725C200.636 214.725 204.952 213.792 207.286 211.925C209.619 210.058 210.844 206.617 210.961 201.6V197.4C206.294 199.617 201.802 201.308 197.486 202.475C193.169 203.525 188.969 204.05 184.886 204.05C173.802 204.05 165.927 200.958 161.261 194.775C156.711 188.475 154.436 177.858 154.436 162.925C154.436 148.108 157.702 137.55 164.236 131.25C170.886 124.95 182.027 121.8 197.661 121.8C203.844 121.8 210.961 122.15 219.011 122.85C227.177 123.55 233.244 124.308 237.211 125.125V193.375C237.211 210.058 234.177 221.725 228.111 228.375C222.044 235.025 211.486 238.35 196.436 238.35ZM197.661 145.425C189.844 145.425 185.061 146.3 183.311 148.05C181.561 149.8 180.686 154.758 180.686 162.925C180.686 170.275 181.444 174.942 182.961 176.925C184.477 178.792 188.152 179.725 193.986 179.725C196.202 179.725 198.711 179.492 201.511 179.025C204.427 178.558 207.577 177.917 210.961 177.1V146.475C209.211 146.125 207.227 145.892 205.011 145.775C202.794 145.542 200.344 145.425 197.661 145.425Z" fill="white"/>
<defs>
<linearGradient id="paint0_linear_4_189" x1="0" y1="0" x2="309" y2="309" gradientUnits="userSpaceOnUse">
<stop offset="0.1875" stop-color="#DD1E12"/>
<stop offset="0.854167" stop-color="#4E008B"/>
</linearGradient>
</defs>
</svg>
