<svg width="309" height="309" viewBox="0 0 309 309" fill="none" xmlns="http://www.w3.org/2000/svg">
<path d="M309 154.5C309 239.828 239.828 309 154.5 309C69.172 309 0 239.828 0 154.5C0 69.172 69.172 0 154.5 0C239.828 0 309 69.172 309 154.5Z" fill="url(#paint0_linear_3_20)"/>
<path d="M156.104 177.8C156.104 188.883 152.838 197.05 146.304 202.3C139.888 207.433 129.738 210 115.854 210H70.5294V100.275H115.854C128.454 100.275 137.379 102.492 142.629 106.925C147.996 111.242 150.679 118.533 150.679 128.8C150.679 135.333 149.804 140.35 148.054 143.85C146.304 147.233 142.804 149.858 137.554 151.725C143.854 153.008 148.521 155.808 151.554 160.125C154.588 164.442 156.104 170.333 156.104 177.8ZM125.654 132.825C125.654 128.975 124.896 126.292 123.379 124.775C121.979 123.258 119.471 122.5 115.854 122.5H97.6544V144.725H115.854C119.471 144.725 121.979 143.85 123.379 142.1C124.896 140.233 125.654 137.142 125.654 132.825ZM129.854 176.05C129.854 171.85 128.804 168.933 126.704 167.3C124.604 165.55 120.988 164.675 115.854 164.675H97.6544V186.9H115.854C120.988 186.9 124.604 186.083 126.704 184.45C128.804 182.817 129.854 180.017 129.854 176.05ZM238.642 184.45V205.275C235.842 207.025 231.117 208.542 224.467 209.825C217.817 211.108 210.817 211.75 203.467 211.75C189.467 211.75 179.375 208.25 173.192 201.25C167.008 194.133 163.917 182.642 163.917 166.775C163.917 151.258 167.183 139.883 173.717 132.65C180.25 125.417 190.575 121.8 204.692 121.8C218.458 121.8 228.142 124.542 233.742 130.025C239.458 135.392 242.317 144.958 242.317 158.725C242.317 162.458 242.258 165.433 242.142 167.65C242.025 169.867 241.792 172.433 241.442 175.35H190.342C190.458 180.133 191.742 183.458 194.192 185.325C196.642 187.192 201.133 188.125 207.667 188.125C213.267 188.125 218.983 187.775 224.817 187.075C230.65 186.258 235.258 185.383 238.642 184.45ZM204.692 144.2C199.092 144.2 195.3 145.192 193.317 147.175C191.333 149.042 190.342 152.775 190.342 158.375H218.517V154.525C218.4 150.442 217.408 147.7 215.542 146.3C213.792 144.9 210.175 144.2 204.692 144.2Z" fill="white"/>
<defs>
<linearGradient id="paint0_linear_3_20" x1="0" y1="0" x2="309" y2="309" gradientUnits="userSpaceOnUse">
<stop offset="0.1875" stop-color="#DD1E12"/>
<stop offset="0.854167" stop-color="#4E008B"/>
</linearGradient>
</defs>
</svg>
