<svg width="309" height="309" viewBox="0 0 309 309" fill="none" xmlns="http://www.w3.org/2000/svg">
<path d="M309 154.5C309 239.828 239.828 309 154.5 309C69.172 309 0 239.828 0 154.5C0 69.172 69.172 0 154.5 0C239.828 0 309 69.172 309 154.5Z" fill="url(#paint0_linear_4_45)"/>
<path d="M141.061 169.05L118.836 163.8C109.97 161.7 103.903 158.492 100.636 154.175C97.4862 149.858 95.9112 143.675 95.9112 135.625C95.9112 122.908 99.2362 113.575 105.886 107.625C112.653 101.558 123.095 98.525 137.211 98.525C143.045 98.525 148.236 98.7583 152.786 99.225C157.336 99.6917 161.536 100.508 165.386 101.675V126C156.52 124.483 150.395 123.608 147.011 123.375C143.745 123.142 140.303 123.025 136.686 123.025C131.786 123.025 128.228 123.842 126.011 125.475C123.795 127.108 122.686 129.85 122.686 133.7C122.686 135.567 123.036 137.025 123.736 138.075C124.436 139.008 125.778 139.708 127.761 140.175L148.761 145.075C154.828 146.475 159.203 147.875 161.886 149.275C164.57 150.558 166.728 152.25 168.361 154.35C170.228 156.567 171.57 159.425 172.386 162.925C173.32 166.425 173.786 170.683 173.786 175.7C173.786 188.417 170.403 197.633 163.636 203.35C156.87 208.95 146.37 211.75 132.136 211.75C124.903 211.75 118.02 211.283 111.486 210.35C104.953 209.533 99.8779 208.483 96.2612 207.2V181.475C100.928 182.992 106.47 184.217 112.886 185.15C119.303 185.967 125.72 186.375 132.136 186.375C137.27 186.375 140.828 185.733 142.811 184.45C144.795 183.167 145.786 180.6 145.786 176.75C145.786 174.3 145.436 172.55 144.736 171.5C144.153 170.333 142.928 169.517 141.061 169.05ZM211.106 114.1H183.456V93.625H211.106V114.1ZM210.406 210H184.156V123.55H210.406V210Z" fill="white"/>
<defs>
<linearGradient id="paint0_linear_4_45" x1="0" y1="0" x2="309" y2="309" gradientUnits="userSpaceOnUse">
<stop offset="0.1875" stop-color="#DD1E12"/>
<stop offset="0.854167" stop-color="#4E008B"/>
</linearGradient>
</defs>
</svg>
