<svg width="309" height="309" viewBox="0 0 309 309" fill="none" xmlns="http://www.w3.org/2000/svg">
<path d="M309 154.5C309 239.828 239.828 309 154.5 309C69.172 309 0 239.828 0 154.5C0 69.172 69.172 0 154.5 0C239.828 0 309 69.172 309 154.5Z" fill="url(#paint0_linear_4_92)"/>
<path d="M131.544 169.225H112.644V147.35H156.919V205.1C153.652 206.617 147.819 208.133 139.419 209.65C131.019 211.05 123.377 211.75 116.494 211.75C97.4769 211.75 84.2352 207.375 76.7686 198.625C69.4186 189.875 65.7436 175.35 65.7436 155.05C65.7436 135.45 70.0602 121.158 78.6936 112.175C87.3269 103.075 101.094 98.525 119.994 98.525C126.877 98.525 133.002 98.7 138.369 99.05C143.852 99.2833 148.052 99.6917 150.969 100.275V124.075C147.119 123.725 142.51 123.492 137.144 123.375C131.894 123.142 126.177 123.025 119.994 123.025C113.344 123.025 108.385 123.608 105.119 124.775C101.969 125.942 99.5769 127.983 97.9436 130.9C96.4269 133.233 95.3186 136.383 94.6186 140.35C94.0352 144.2 93.7436 149.1 93.7436 155.05C93.7436 160.767 94.0352 165.55 94.6186 169.4C95.2019 173.25 96.1352 176.342 97.4186 178.675C99.0519 181.825 101.327 184.042 104.244 185.325C107.277 186.608 111.944 187.25 118.244 187.25C120.344 187.25 122.502 187.192 124.719 187.075C127.052 186.842 129.327 186.55 131.544 186.2V169.225ZM190.715 211.75C181.849 211.75 175.315 209.533 171.115 205.1C167.032 200.667 164.99 193.667 164.99 184.1C164.99 174.3 167.44 167.417 172.34 163.45C177.357 159.483 185.932 157.5 198.065 157.5C200.865 157.5 203.724 157.675 206.64 158.025C209.674 158.258 212.299 158.608 214.515 159.075V152.775C214.515 149.975 213.29 147.933 210.84 146.65C208.507 145.25 204.89 144.55 199.99 144.55C194.39 144.55 189.374 144.725 184.94 145.075C180.624 145.308 176.657 145.775 173.04 146.475V124.95C177.357 123.9 182.374 123.142 188.09 122.675C193.807 122.092 200.457 121.8 208.04 121.8C218.774 121.8 226.882 124.192 232.365 128.975C237.965 133.758 240.765 140.817 240.765 150.15V210H216.265L215.39 202.65H214.865C211.249 205.45 207.282 207.667 202.965 209.3C198.649 210.933 194.565 211.75 190.715 211.75ZM201.565 174.825C196.899 174.825 193.749 175.35 192.115 176.4C190.482 177.333 189.665 179.375 189.665 182.525C189.665 185.442 190.307 187.483 191.59 188.65C192.99 189.7 195.382 190.225 198.765 190.225C201.332 190.225 204.015 189.875 206.815 189.175C209.615 188.475 212.182 187.6 214.515 186.55V175.875C213.115 175.525 211.365 175.292 209.265 175.175C207.165 174.942 204.599 174.825 201.565 174.825Z" fill="white"/>
<defs>
<linearGradient id="paint0_linear_4_92" x1="0" y1="0" x2="309" y2="309" gradientUnits="userSpaceOnUse">
<stop offset="0.1875" stop-color="#DD1E12"/>
<stop offset="0.854167" stop-color="#4E008B"/>
</linearGradient>
</defs>
</svg>
