<svg width="309" height="309" viewBox="0 0 309 309" fill="none" xmlns="http://www.w3.org/2000/svg">
<path d="M309 154.5C309 239.828 239.828 309 154.5 309C69.172 309 0 239.828 0 154.5C0 69.172 69.172 0 154.5 0C239.828 0 309 69.172 309 154.5Z" fill="url(#paint0_linear_4_242)"/>
<path d="M92.0093 210H63.4843L104.084 100.275H132.259L171.809 210H143.459L137.684 191.625H97.7843L92.0093 210ZM117.559 127.225C116.626 130.492 115.576 133.992 114.409 137.725C113.359 141.342 111.551 147.292 108.984 155.575L104.434 170.1H130.859L126.309 155.575C124.793 151.142 123.276 146.475 121.759 141.575C120.243 136.558 118.843 131.775 117.559 127.225ZM241.716 183.575V205.275C238.916 207.025 234.366 208.542 228.066 209.825C221.766 211.108 215.291 211.75 208.641 211.75C196.041 211.75 187.175 208.425 182.041 201.775C177.025 195.008 174.516 183.342 174.516 166.775C174.516 150.208 177.783 138.6 184.316 131.95C190.85 125.183 202.283 121.8 218.616 121.8C222.583 121.8 226.141 121.917 229.291 122.15C232.441 122.267 235.825 122.558 239.441 123.025V146.3C233.725 145.833 229.583 145.6 227.016 145.6C224.45 145.483 221.65 145.425 218.616 145.425C210.566 145.425 205.55 146.592 203.566 148.925C201.7 151.142 200.766 157.092 200.766 166.775C200.766 175.525 201.525 181.125 203.041 183.575C204.675 186.025 208.35 187.25 214.066 187.25C218.733 187.25 223.575 186.9 228.591 186.2C233.725 185.5 238.1 184.625 241.716 183.575Z" fill="white"/>
<defs>
<linearGradient id="paint0_linear_4_242" x1="0" y1="0" x2="309" y2="309" gradientUnits="userSpaceOnUse">
<stop offset="0.1875" stop-color="#DD1E12"/>
<stop offset="0.854167" stop-color="#4E008B"/>
</linearGradient>
</defs>
</svg>
