<svg width="309" height="309" viewBox="0 0 309 309" fill="none" xmlns="http://www.w3.org/2000/svg">
<path d="M309 154.5C309 239.828 239.828 309 154.5 309C69.172 309 0 239.828 0 154.5C0 69.172 69.172 0 154.5 0C239.828 0 309 69.172 309 154.5Z" fill="url(#paint0_linear_4_295)"/>
<path d="M103.55 210H76.4254V100.275H103.55V142.1H142.05V100.275H169.175V210H142.05V166.6H103.55V210ZM191.571 145.425H181.421V123.55H191.571C191.688 113.05 194.546 105.175 200.146 99.925C205.863 94.5583 214.205 91.875 225.171 91.875C227.738 91.875 230.48 92.05 233.396 92.4C236.43 92.6333 239.288 93.0417 241.971 93.625V113.75C240.455 113.517 238.588 113.342 236.371 113.225C234.155 112.992 232.171 112.875 230.421 112.875C224.821 112.875 221.321 113.4 219.921 114.45C218.521 115.5 217.821 117.717 217.821 121.1V123.55H239.346V145.425H217.821V210H191.571V145.425Z" fill="white"/>
<defs>
<linearGradient id="paint0_linear_4_295" x1="0" y1="0" x2="309" y2="309" gradientUnits="userSpaceOnUse">
<stop offset="0.1875" stop-color="#DD1E12"/>
<stop offset="0.854167" stop-color="#4E008B"/>
</linearGradient>
</defs>
</svg>
