<svg width="309" height="309" viewBox="0 0 309 309" fill="none" xmlns="http://www.w3.org/2000/svg">
<path d="M309 154.5C309 239.828 239.828 309 154.5 309C69.172 309 0 239.828 0 154.5C0 69.172 69.172 0 154.5 0C239.828 0 309 69.172 309 154.5Z" fill="url(#paint0_linear_4_129)"/>
<path d="M93.0401 174.65V210H65.9151V100.275H105.99C122.907 100.275 134.923 103.133 142.04 108.85C149.157 114.567 152.715 124.075 152.715 137.375C152.715 146.358 150.79 153.708 146.94 159.425C143.207 165.025 137.49 169.108 129.79 171.675L156.565 210H124.015L101.265 174.65H93.0401ZM125.24 137.375C125.24 132.708 123.84 129.442 121.04 127.575C118.24 125.708 113.223 124.775 105.99 124.775H93.0401V152.775H105.99C113.223 152.775 118.24 151.667 121.04 149.45C123.84 147.117 125.24 143.092 125.24 137.375ZM194.916 211.75C185.116 211.75 177.766 209.358 172.866 204.575C168.083 199.675 165.691 192.325 165.691 182.525V123.55H191.941V179.025C191.941 181.942 192.816 184.042 194.566 185.325C196.316 186.608 199.116 187.25 202.966 187.25C205.183 187.25 207.516 187.075 209.966 186.725C212.533 186.375 215.099 185.85 217.666 185.15V123.55H243.916V210H219.416L218.716 205.275H218.366C214.283 207.258 210.141 208.833 205.941 210C201.858 211.167 198.183 211.75 194.916 211.75Z" fill="white"/>
<defs>
<linearGradient id="paint0_linear_4_129" x1="0" y1="0" x2="309" y2="309" gradientUnits="userSpaceOnUse">
<stop offset="0.1875" stop-color="#DD1E12"/>
<stop offset="0.854167" stop-color="#4E008B"/>
</linearGradient>
</defs>
</svg>
