<svg width="309" height="309" viewBox="0 0 309 309" fill="none" xmlns="http://www.w3.org/2000/svg">
<path d="M309 154.5C309 239.828 239.828 309 154.5 309C69.172 309 0 239.828 0 154.5C0 69.172 69.172 0 154.5 0C239.828 0 309 69.172 309 154.5Z" fill="url(#paint0_linear_4_128)"/>
<path d="M91.1603 174.65V210H64.0353V100.275H104.11C121.027 100.275 133.044 103.133 140.16 108.85C147.277 114.567 150.835 124.075 150.835 137.375C150.835 146.358 148.91 153.708 145.06 159.425C141.327 165.025 135.61 169.108 127.91 171.675L154.685 210H122.135L99.3853 174.65H91.1603ZM123.36 137.375C123.36 132.708 121.96 129.442 119.16 127.575C116.36 125.708 111.344 124.775 104.11 124.775H91.1603V152.775H104.11C111.344 152.775 116.36 151.667 119.16 149.45C121.96 147.117 123.36 143.092 123.36 137.375ZM190.411 210H164.161V93.625H190.411V129.675C194.728 127.225 199.161 125.3 203.711 123.9C208.378 122.5 212.811 121.8 217.011 121.8C226.811 121.8 234.103 124.133 238.886 128.8C243.786 133.467 246.236 140.583 246.236 150.15V210H219.986V153.65C219.986 150.733 219.111 148.633 217.361 147.35C215.611 146.067 212.811 145.425 208.961 145.425C206.045 145.425 202.953 145.717 199.686 146.3C196.42 146.767 193.328 147.408 190.411 148.225V210Z" fill="white"/>
<defs>
<linearGradient id="paint0_linear_4_128" x1="0" y1="0" x2="309" y2="309" gradientUnits="userSpaceOnUse">
<stop offset="0.1875" stop-color="#DD1E12"/>
<stop offset="0.854167" stop-color="#4E008B"/>
</linearGradient>
</defs>
</svg>
