<svg width="309" height="309" viewBox="0 0 309 309" fill="none" xmlns="http://www.w3.org/2000/svg">
<path d="M309 154.5C309 239.828 239.828 309 154.5 309C69.172 309 0 239.828 0 154.5C0 69.172 69.172 0 154.5 0C239.828 0 309 69.172 309 154.5Z" fill="url(#paint0_linear_3_29)"/>
<path d="M166.066 186.375C170.733 186.375 175.808 185.908 181.291 184.975C186.775 183.925 191.675 182.583 195.991 180.95V204.925C189.575 207.492 183.8 209.242 178.666 210.175C173.533 211.225 168.166 211.75 162.566 211.75C152.416 211.75 144.308 210.583 138.241 208.25C132.175 205.917 127.333 202.183 123.716 197.05C120.683 192.617 118.408 186.958 116.891 180.075C115.491 173.192 114.791 164.85 114.791 155.05C114.791 135.45 118.991 121.158 127.391 112.175C135.908 103.075 149.383 98.525 167.816 98.525C173.183 98.525 177.966 98.6417 182.166 98.875C186.366 99.1083 190.158 99.5167 193.541 100.1V123.725C189.691 123.492 185.666 123.317 181.466 123.2C177.383 123.083 172.833 123.025 167.816 123.025C161.4 123.025 156.616 123.667 153.466 124.95C150.433 126.117 148.158 128.217 146.641 131.25C145.241 133.583 144.25 136.675 143.666 140.525C143.083 144.375 142.791 149.217 142.791 155.05C142.791 160.533 143.025 165.142 143.491 168.875C144.075 172.492 144.95 175.525 146.116 177.975C147.633 181.008 149.85 183.167 152.766 184.45C155.683 185.733 160.116 186.375 166.066 186.375Z" fill="white"/>
<defs>
<linearGradient id="paint0_linear_3_29" x1="0" y1="0" x2="309" y2="309" gradientUnits="userSpaceOnUse">
<stop offset="0.1875" stop-color="#DD1E12"/>
<stop offset="0.854167" stop-color="#4E008B"/>
</linearGradient>
</defs>
</svg>
