<svg width="200" height="200" viewBox="0 0 200 200" fill="none" xmlns="http://www.w3.org/2000/svg">
<g clip-path="url(#clip0_1_2)">
<path d="M200 0H0V200H200V0Z" fill="url(#paint0_linear_1_2)"/>
<path d="M100.015 64.9029V135.922H83.2511L55.1606 94.9191V135.922H38.7367V64.9029H55.3872L83.5909 107.492V64.9029H100.015ZM144.838 60.5987H161.828V135.922H146.763L145.857 130.712H145.517C143.478 132.827 141.062 134.412 138.268 135.469C135.474 136.526 132.302 137.055 128.753 137.055C121.353 137.055 116.067 134.827 112.896 130.372C109.8 125.917 108.252 118.441 108.252 107.945C108.252 97.7508 110.215 90.3508 114.142 85.7443C118.144 81.1379 124.6 78.835 133.511 78.835C135.7 78.835 137.739 78.9858 139.627 79.288C141.59 79.5146 143.328 79.8544 144.838 80.3074V60.5987ZM135.889 94.1262C131.359 94.1262 128.451 94.9948 127.168 96.7314C125.884 98.3929 125.242 102.131 125.242 107.945C125.242 113.458 125.808 117.082 126.941 118.819C128.074 120.48 130.717 121.311 134.87 121.311C136.833 121.311 138.645 121.16 140.307 120.858C142.043 120.555 143.554 120.102 144.838 119.498V95.5987C143.705 95.0699 142.383 94.6926 140.873 94.466C139.438 94.2395 137.777 94.1262 135.889 94.1262Z" fill="white"/>
</g>
<defs>
<linearGradient id="paint0_linear_1_2" x1="200" y1="1.27311e-05" x2="-11.6505" y2="215.534" gradientUnits="userSpaceOnUse">
<stop stop-color="#5E9616"/>
<stop offset="0.5" stop-color="#385FAA"/>
<stop offset="0.921875" stop-color="#7719B0"/>
</linearGradient>
<clipPath id="clip0_1_2">
<rect width="200" height="200" rx="45" fill="white"/>
</clipPath>
</defs>
</svg>
