<svg width="309" height="309" viewBox="0 0 309 309" fill="none" xmlns="http://www.w3.org/2000/svg">
<path d="M309 154.5C309 239.828 239.828 309 154.5 309C69.172 309 0 239.828 0 154.5C0 69.172 69.172 0 154.5 0C239.828 0 309 69.172 309 154.5Z" fill="url(#paint0_linear_4_296)"/>
<path d="M146.084 184.625V210H76.0836V100.275H103.209V184.625H146.084ZM184.748 211.75C174.948 211.75 167.598 209.358 162.698 204.575C157.914 199.675 155.523 192.325 155.523 182.525V123.55H181.773V179.025C181.773 181.942 182.648 184.042 184.398 185.325C186.148 186.608 188.948 187.25 192.798 187.25C195.014 187.25 197.348 187.075 199.798 186.725C202.364 186.375 204.931 185.85 207.498 185.15V123.55H233.748V210H209.248L208.548 205.275H208.198C204.114 207.258 199.973 208.833 195.773 210C191.689 211.167 188.014 211.75 184.748 211.75Z" fill="white"/>
<defs>
<linearGradient id="paint0_linear_4_296" x1="0" y1="0" x2="309" y2="309" gradientUnits="userSpaceOnUse">
<stop offset="0.1875" stop-color="#DD1E12"/>
<stop offset="0.854167" stop-color="#4E008B"/>
</linearGradient>
</defs>
</svg>
