<svg width="309" height="309" viewBox="0 0 309 309" fill="none" xmlns="http://www.w3.org/2000/svg">
<path d="M309 154.5C309 239.828 239.828 309 154.5 309C69.172 309 0 239.828 0 154.5C0 69.172 69.172 0 154.5 0C239.828 0 309 69.172 309 154.5Z" fill="url(#paint0_linear_4_114)"/>
<path d="M168.665 177.8C168.665 188.883 165.399 197.05 158.865 202.3C152.449 207.433 142.299 210 128.415 210H83.0904V100.275H128.415C141.015 100.275 149.94 102.492 155.19 106.925C160.557 111.242 163.24 118.533 163.24 128.8C163.24 135.333 162.365 140.35 160.615 143.85C158.865 147.233 155.365 149.858 150.115 151.725C156.415 153.008 161.082 155.808 164.115 160.125C167.149 164.442 168.665 170.333 168.665 177.8ZM138.215 132.825C138.215 128.975 137.457 126.292 135.94 124.775C134.54 123.258 132.032 122.5 128.415 122.5H110.215V144.725H128.415C132.032 144.725 134.54 143.85 135.94 142.1C137.457 140.233 138.215 137.142 138.215 132.825ZM142.415 176.05C142.415 171.85 141.365 168.933 139.265 167.3C137.165 165.55 133.549 164.675 128.415 164.675H110.215V186.9H128.415C133.549 186.9 137.165 186.083 139.265 184.45C141.365 182.817 142.415 180.017 142.415 176.05ZM205.878 210H179.628V123.55H204.128L205.003 130.2H205.353C209.553 127.633 213.811 125.708 218.128 124.425C222.561 123.025 226.703 122.325 230.553 122.325H231.953V147.7C230.903 147.467 229.736 147.35 228.453 147.35C227.286 147.233 225.769 147.175 223.903 147.175C220.519 147.175 217.311 147.408 214.278 147.875C211.244 148.225 208.444 148.808 205.878 149.625V210Z" fill="white"/>
<defs>
<linearGradient id="paint0_linear_4_114" x1="0" y1="0" x2="309" y2="309" gradientUnits="userSpaceOnUse">
<stop offset="0.1875" stop-color="#DD1E12"/>
<stop offset="0.854167" stop-color="#4E008B"/>
</linearGradient>
</defs>
</svg>
