<svg width="309" height="309" viewBox="0 0 309 309" fill="none" xmlns="http://www.w3.org/2000/svg">
<path d="M309 154.5C309 239.828 239.828 309 154.5 309C69.172 309 0 239.828 0 154.5C0 69.172 69.172 0 154.5 0C239.828 0 309 69.172 309 154.5Z" fill="url(#paint0_linear_4_127)"/>
<path d="M93.6383 179.2V210H66.5133V100.275H106.588C123.505 100.275 135.522 103.25 142.638 109.2C149.755 115.033 153.313 124.892 153.313 138.775C153.313 152.542 149.522 162.75 141.938 169.4C134.472 175.933 122.863 179.2 107.113 179.2H93.6383ZM125.838 138.775C125.838 133.642 124.438 130.025 121.638 127.925C118.838 125.825 113.822 124.775 106.588 124.775H93.6383V155.4H106.588C113.938 155.4 118.955 154.175 121.638 151.725C124.438 149.275 125.838 144.958 125.838 138.775ZM217.109 93.625H243.359V210H220.084L218.684 201.95H218.159C215.009 205.217 211.276 207.667 206.959 209.3C202.642 210.933 197.742 211.75 192.259 211.75C180.826 211.75 172.659 208.308 167.759 201.425C162.976 194.542 160.584 182.992 160.584 166.775C160.584 151.025 163.617 139.592 169.684 132.475C175.867 125.358 185.842 121.8 199.609 121.8C202.992 121.8 206.142 122.033 209.059 122.5C212.092 122.85 214.776 123.375 217.109 124.075V93.625ZM203.284 145.425C196.284 145.425 191.792 146.767 189.809 149.45C187.826 152.017 186.834 157.792 186.834 166.775C186.834 175.292 187.709 180.892 189.459 183.575C191.209 186.142 195.292 187.425 201.709 187.425C204.742 187.425 207.542 187.192 210.109 186.725C212.792 186.258 215.126 185.558 217.109 184.625V147.7C215.359 146.883 213.317 146.3 210.984 145.95C208.767 145.6 206.201 145.425 203.284 145.425Z" fill="white"/>
<defs>
<linearGradient id="paint0_linear_4_127" x1="0" y1="0" x2="309" y2="309" gradientUnits="userSpaceOnUse">
<stop offset="0.1875" stop-color="#DD1E12"/>
<stop offset="0.854167" stop-color="#4E008B"/>
</linearGradient>
</defs>
</svg>
