<svg width="309" height="309" viewBox="0 0 309 309" fill="none" xmlns="http://www.w3.org/2000/svg">
<path d="M309 154.5C309 239.828 239.828 309 154.5 309C69.172 309 0 239.828 0 154.5C0 69.172 69.172 0 154.5 0C239.828 0 309 69.172 309 154.5Z" fill="url(#paint0_linear_4_184)"/>
<path d="M92.9547 174.65V210H65.8297V100.275H105.905C122.821 100.275 134.838 103.133 141.955 108.85C149.071 114.567 152.63 124.075 152.63 137.375C152.63 146.358 150.705 153.708 146.855 159.425C143.121 165.025 137.405 169.108 129.705 171.675L156.48 210H123.93L101.18 174.65H92.9547ZM125.155 137.375C125.155 132.708 123.755 129.442 120.955 127.575C118.155 125.708 113.138 124.775 105.905 124.775H92.9547V152.775H105.905C113.138 152.775 118.155 151.667 120.955 149.45C123.755 147.117 125.155 143.092 125.155 137.375ZM203.272 238.35C197.088 238.35 191.138 237.942 185.422 237.125C179.822 236.308 175.213 235.258 171.597 233.975V211.75C174.397 212.567 178.597 213.267 184.197 213.85C189.913 214.433 195.572 214.725 201.172 214.725C207.472 214.725 211.788 213.792 214.122 211.925C216.455 210.058 217.68 206.617 217.797 201.6V197.4C213.13 199.617 208.638 201.308 204.322 202.475C200.005 203.525 195.805 204.05 191.722 204.05C180.638 204.05 172.763 200.958 168.097 194.775C163.547 188.475 161.272 177.858 161.272 162.925C161.272 148.108 164.538 137.55 171.072 131.25C177.722 124.95 188.863 121.8 204.497 121.8C210.68 121.8 217.797 122.15 225.847 122.85C234.013 123.55 240.08 124.308 244.047 125.125V193.375C244.047 210.058 241.013 221.725 234.947 228.375C228.88 235.025 218.322 238.35 203.272 238.35ZM204.497 145.425C196.68 145.425 191.897 146.3 190.147 148.05C188.397 149.8 187.522 154.758 187.522 162.925C187.522 170.275 188.28 174.942 189.797 176.925C191.313 178.792 194.988 179.725 200.822 179.725C203.038 179.725 205.547 179.492 208.347 179.025C211.263 178.558 214.413 177.917 217.797 177.1V146.475C216.047 146.125 214.063 145.892 211.847 145.775C209.63 145.542 207.18 145.425 204.497 145.425Z" fill="white"/>
<defs>
<linearGradient id="paint0_linear_4_184" x1="0" y1="0" x2="309" y2="309" gradientUnits="userSpaceOnUse">
<stop offset="0.1875" stop-color="#DD1E12"/>
<stop offset="0.854167" stop-color="#4E008B"/>
</linearGradient>
</defs>
</svg>
