<svg width="309" height="309" viewBox="0 0 309 309" fill="none" xmlns="http://www.w3.org/2000/svg">
<path d="M309 154.5C309 239.828 239.828 309 154.5 309C69.172 309 0 239.828 0 154.5C0 69.172 69.172 0 154.5 0C239.828 0 309 69.172 309 154.5Z" fill="url(#paint0_linear_4_284)"/>
<path d="M179.09 177.8C179.09 188.883 175.824 197.05 169.29 202.3C162.874 207.433 152.724 210 138.84 210H93.5152V100.275H138.84C151.44 100.275 160.365 102.492 165.615 106.925C170.982 111.242 173.665 118.533 173.665 128.8C173.665 135.333 172.79 140.35 171.04 143.85C169.29 147.233 165.79 149.858 160.54 151.725C166.84 153.008 171.507 155.808 174.54 160.125C177.574 164.442 179.09 170.333 179.09 177.8ZM148.64 132.825C148.64 128.975 147.882 126.292 146.365 124.775C144.965 123.258 142.457 122.5 138.84 122.5H120.64V144.725H138.84C142.457 144.725 144.965 143.85 146.365 142.1C147.882 140.233 148.64 137.142 148.64 132.825ZM152.84 176.05C152.84 171.85 151.79 168.933 149.69 167.3C147.59 165.55 143.974 164.675 138.84 164.675H120.64V186.9H138.84C143.974 186.9 147.59 186.083 149.69 184.45C151.79 182.817 152.84 180.017 152.84 176.05ZM217.002 114.1H189.352V93.625H217.002V114.1ZM216.302 210H190.052V123.55H216.302V210Z" fill="white"/>
<defs>
<linearGradient id="paint0_linear_4_284" x1="0" y1="0" x2="309" y2="309" gradientUnits="userSpaceOnUse">
<stop offset="0.1875" stop-color="#DD1E12"/>
<stop offset="0.854167" stop-color="#4E008B"/>
</linearGradient>
</defs>
</svg>
