<svg width="309" height="309" viewBox="0 0 309 309" fill="none" xmlns="http://www.w3.org/2000/svg">
<path d="M309 154.5C309 239.828 239.828 309 154.5 309C69.172 309 0 239.828 0 154.5C0 69.172 69.172 0 154.5 0C239.828 0 309 69.172 309 154.5Z" fill="url(#paint0_linear_4_236)"/>
<path d="M59.5386 210H31.0136L71.6136 100.275H99.7886L139.339 210H110.989L105.214 191.625H65.3136L59.5386 210ZM85.0886 127.225C84.1552 130.492 83.1052 133.992 81.9386 137.725C80.8886 141.342 79.0802 147.292 76.5136 155.575L71.9636 170.1H98.3886L93.8386 155.575C92.3219 151.142 90.8052 146.475 89.2886 141.575C87.7719 136.558 86.3719 131.775 85.0886 127.225ZM172.98 210H146.73V123.55H171.23L172.105 130.025H172.63C176.946 127.342 181.088 125.3 185.055 123.9C189.021 122.5 192.813 121.8 196.43 121.8C201.213 121.8 205.296 122.558 208.68 124.075C212.063 125.475 214.746 127.633 216.73 130.55H217.43C221.396 127.867 225.83 125.767 230.73 124.25C235.746 122.617 240.53 121.8 245.08 121.8C253.596 121.8 259.896 124.133 263.98 128.8C268.18 133.467 270.28 140.583 270.28 150.15V210H244.03V153.65C244.03 150.733 243.213 148.633 241.58 147.35C239.946 146.067 237.38 145.425 233.88 145.425C232.013 145.425 230.03 145.6 227.93 145.95C225.83 146.3 223.73 146.825 221.63 147.525V210H195.38V153.65C195.38 150.733 194.563 148.633 192.93 147.35C191.296 146.067 188.73 145.425 185.23 145.425C183.363 145.425 181.38 145.6 179.28 145.95C177.18 146.3 175.08 146.825 172.98 147.525V210Z" fill="white"/>
<defs>
<linearGradient id="paint0_linear_4_236" x1="0" y1="0" x2="309" y2="309" gradientUnits="userSpaceOnUse">
<stop offset="0.1875" stop-color="#DD1E12"/>
<stop offset="0.854167" stop-color="#4E008B"/>
</linearGradient>
</defs>
</svg>
