<svg width="309" height="309" viewBox="0 0 309 309" fill="none" xmlns="http://www.w3.org/2000/svg">
<path d="M309 154.5C309 239.828 239.828 309 154.5 309C69.172 309 0 239.828 0 154.5C0 69.172 69.172 0 154.5 0C239.828 0 309 69.172 309 154.5Z" fill="url(#paint0_linear_4_281)"/>
<path d="M91.1603 174.65V210H64.0353V100.275H104.11C121.027 100.275 133.044 103.133 140.16 108.85C147.277 114.567 150.835 124.075 150.835 137.375C150.835 146.358 148.91 153.708 145.06 159.425C141.327 165.025 135.61 169.108 127.91 171.675L154.685 210H122.135L99.3853 174.65H91.1603ZM123.36 137.375C123.36 132.708 121.96 129.442 119.16 127.575C116.36 125.708 111.344 124.775 104.11 124.775H91.1603V152.775H104.11C111.344 152.775 116.36 151.667 119.16 149.45C121.96 147.117 123.36 143.092 123.36 137.375ZM190.411 210H164.161V123.55H186.911L187.961 132.65H188.486C192.22 128.8 196.245 126.058 200.561 124.425C204.995 122.675 210.303 121.8 216.486 121.8C226.286 121.8 233.695 124.192 238.711 128.975C243.728 133.758 246.236 140.817 246.236 150.15V210H219.986V153.65C219.986 150.967 218.878 148.925 216.661 147.525C214.561 146.125 211.411 145.425 207.211 145.425C204.061 145.425 201.028 145.775 198.111 146.475C195.195 147.175 192.628 148.167 190.411 149.45V210Z" fill="white"/>
<defs>
<linearGradient id="paint0_linear_4_281" x1="0" y1="0" x2="309" y2="309" gradientUnits="userSpaceOnUse">
<stop offset="0.1875" stop-color="#DD1E12"/>
<stop offset="0.854167" stop-color="#4E008B"/>
</linearGradient>
</defs>
</svg>
