<svg width="309" height="309" viewBox="0 0 309 309" fill="none" xmlns="http://www.w3.org/2000/svg">
<path d="M309 154.5C309 239.828 239.828 309 154.5 309C69.172 309 0 239.828 0 154.5C0 69.172 69.172 0 154.5 0C239.828 0 309 69.172 309 154.5Z" fill="url(#paint0_linear_4_91)"/>
<path d="M130.775 169.225H111.875V147.35H156.15V205.1C152.883 206.617 147.05 208.133 138.65 209.65C130.25 211.05 122.608 211.75 115.725 211.75C96.7078 211.75 83.4662 207.375 75.9995 198.625C68.6495 189.875 64.9745 175.35 64.9745 155.05C64.9745 135.45 69.2912 121.158 77.9245 112.175C86.5578 103.075 100.325 98.525 119.225 98.525C126.108 98.525 132.233 98.7 137.6 99.05C143.083 99.2833 147.283 99.6917 150.2 100.275V124.075C146.35 123.725 141.741 123.492 136.375 123.375C131.125 123.142 125.408 123.025 119.225 123.025C112.575 123.025 107.616 123.608 104.35 124.775C101.2 125.942 98.8078 127.983 97.1745 130.9C95.6578 133.233 94.5495 136.383 93.8495 140.35C93.2662 144.2 92.9745 149.1 92.9745 155.05C92.9745 160.767 93.2662 165.55 93.8495 169.4C94.4328 173.25 95.3662 176.342 96.6495 178.675C98.2828 181.825 100.558 184.042 103.475 185.325C106.508 186.608 111.175 187.25 117.475 187.25C119.575 187.25 121.733 187.192 123.95 187.075C126.283 186.842 128.558 186.55 130.775 186.2V169.225ZM240.521 184.45V205.275C237.721 207.025 232.996 208.542 226.346 209.825C219.696 211.108 212.696 211.75 205.346 211.75C191.346 211.75 181.255 208.25 175.071 201.25C168.888 194.133 165.796 182.642 165.796 166.775C165.796 151.258 169.063 139.883 175.596 132.65C182.13 125.417 192.455 121.8 206.571 121.8C220.338 121.8 230.021 124.542 235.621 130.025C241.338 135.392 244.196 144.958 244.196 158.725C244.196 162.458 244.138 165.433 244.021 167.65C243.905 169.867 243.671 172.433 243.321 175.35H192.221C192.338 180.133 193.621 183.458 196.071 185.325C198.521 187.192 203.013 188.125 209.546 188.125C215.146 188.125 220.863 187.775 226.696 187.075C232.53 186.258 237.138 185.383 240.521 184.45ZM206.571 144.2C200.971 144.2 197.18 145.192 195.196 147.175C193.213 149.042 192.221 152.775 192.221 158.375H220.396V154.525C220.28 150.442 219.288 147.7 217.421 146.3C215.671 144.9 212.055 144.2 206.571 144.2Z" fill="white"/>
<defs>
<linearGradient id="paint0_linear_4_91" x1="0" y1="0" x2="309" y2="309" gradientUnits="userSpaceOnUse">
<stop offset="0.1875" stop-color="#DD1E12"/>
<stop offset="0.854167" stop-color="#4E008B"/>
</linearGradient>
</defs>
</svg>
