<svg width="309" height="309" viewBox="0 0 309 309" fill="none" xmlns="http://www.w3.org/2000/svg">
<path d="M309 154.5C309 239.828 239.828 309 154.5 309C69.172 309 0 239.828 0 154.5C0 69.172 69.172 0 154.5 0C239.828 0 309 69.172 309 154.5Z" fill="url(#paint0_linear_4_290)"/>
<path d="M136.961 100.275V210H109.836V100.275H136.961ZM179.132 210H152.882V123.55H177.382L178.257 130.2H178.607C182.807 127.633 187.065 125.708 191.382 124.425C195.815 123.025 199.957 122.325 203.807 122.325H205.207V147.7C204.157 147.467 202.99 147.35 201.707 147.35C200.54 147.233 199.024 147.175 197.157 147.175C193.774 147.175 190.565 147.408 187.532 147.875C184.499 148.225 181.699 148.808 179.132 149.625V210Z" fill="white"/>
<defs>
<linearGradient id="paint0_linear_4_290" x1="0" y1="0" x2="309" y2="309" gradientUnits="userSpaceOnUse">
<stop offset="0.1875" stop-color="#DD1E12"/>
<stop offset="0.854167" stop-color="#4E008B"/>
</linearGradient>
</defs>
</svg>
