<svg width="309" height="309" viewBox="0 0 309 309" fill="none" xmlns="http://www.w3.org/2000/svg">
<path d="M309 154.5C309 239.828 239.828 309 154.5 309C69.172 309 0 239.828 0 154.5C0 69.172 69.172 0 154.5 0C239.828 0 309 69.172 309 154.5Z" fill="url(#paint0_linear_4_292)"/>
<path d="M96.7999 174.65V210H69.6749V100.275H109.75C126.667 100.275 138.683 103.133 145.8 108.85C152.917 114.567 156.475 124.075 156.475 137.375C156.475 146.358 154.55 153.708 150.7 159.425C146.967 165.025 141.25 169.108 133.55 171.675L160.325 210H127.775L105.025 174.65H96.7999ZM129 137.375C129 132.708 127.6 129.442 124.8 127.575C122 125.708 116.983 124.775 109.75 124.775H96.7999V152.775H109.75C116.983 152.775 122 151.667 124.8 149.45C127.6 147.117 129 143.092 129 137.375ZM239.496 184.45V205.275C236.696 207.025 231.971 208.542 225.321 209.825C218.671 211.108 211.671 211.75 204.321 211.75C190.321 211.75 180.229 208.25 174.046 201.25C167.863 194.133 164.771 182.642 164.771 166.775C164.771 151.258 168.038 139.883 174.571 132.65C181.104 125.417 191.429 121.8 205.546 121.8C219.313 121.8 228.996 124.542 234.596 130.025C240.313 135.392 243.171 144.958 243.171 158.725C243.171 162.458 243.113 165.433 242.996 167.65C242.879 169.867 242.646 172.433 242.296 175.35H191.196C191.313 180.133 192.596 183.458 195.046 185.325C197.496 187.192 201.988 188.125 208.521 188.125C214.121 188.125 219.838 187.775 225.671 187.075C231.504 186.258 236.113 185.383 239.496 184.45ZM205.546 144.2C199.946 144.2 196.154 145.192 194.171 147.175C192.188 149.042 191.196 152.775 191.196 158.375H219.371V154.525C219.254 150.442 218.263 147.7 216.396 146.3C214.646 144.9 211.029 144.2 205.546 144.2Z" fill="white"/>
<defs>
<linearGradient id="paint0_linear_4_292" x1="0" y1="0" x2="309" y2="309" gradientUnits="userSpaceOnUse">
<stop offset="0.1875" stop-color="#DD1E12"/>
<stop offset="0.854167" stop-color="#4E008B"/>
</linearGradient>
</defs>
</svg>
