<?xml version="1.0" encoding="iso-8859-1"?>
<!-- Generator: Adobe Illustrator 19.0.0, SVG Export Plug-In . SVG Version: 6.00 Build 0)  -->
<svg version="1.1" id="Capa_1" xmlns="http://www.w3.org/2000/svg" xmlns:xlink="http://www.w3.org/1999/xlink" x="0px" y="0px"
	 viewBox="0 0 512 512" style="enable-background:new 0 0 512 512;" xml:space="preserve">
<path style="fill:#00E7F1;" d="M286.187,268.435L112.968,441.677c-6.875,6.876-18.021,6.876-24.897,0.001L45.214,398.82
	c-6.874-6.874-6.875-18.02-0.001-24.894l117.914-117.939l-69.122-69.122l-48.79-48.79c-6.875-6.875-6.875-18.021,0-24.896
	l42.857-42.857c6.875-6.875,18.021-6.875,24.896,0l116.543,116.543l56.675,56.675C293.06,250.414,293.061,261.56,286.187,268.435z"
	/>
<path style="fill:#00A5FF;" d="M230.853,188.261L163.1,256.014l-25.897-25.897l-43.197-43.252l-48.79-48.79
	c-6.875-6.875-6.875-18.021,0-24.896L88.07,70.325c6.876-6.876,18.025-6.875,24.899,0.003l91.987,92.035L230.853,188.261z"/>
<polygon style="fill:#0087FF;" points="230.853,188.261 163.1,256.014 146.67,239.557 214.422,171.804 "/>
<path style="fill:#00A5FF;" d="M466.786,268.435L293.568,441.677c-6.875,6.876-18.022,6.876-24.897,0.001l-42.858-42.858
	c-6.874-6.874-6.875-18.02-0.001-24.894l117.914-117.939l-69.122-69.122l-48.79-48.79c-6.875-6.875-6.875-18.021,0-24.896
	l42.857-42.857c6.875-6.875,18.021-6.875,24.896,0L410.11,186.865l56.675,56.675C473.66,250.414,473.66,261.56,466.786,268.435z"/>
<path style="fill:#00E7F1;" d="M411.452,188.261l-67.753,67.753l-25.897-25.897l-43.197-43.252l-48.79-48.79
	c-6.875-6.875-6.875-18.021,0-24.896l42.854-42.854c6.876-6.876,18.025-6.875,24.899,0.003l91.987,92.035L411.452,188.261z"/>
<polygon style="fill:#00D8DE;" points="411.452,188.261 343.699,256.014 327.269,239.557 395.022,171.804 "/>
<path d="M291.49,238.236L118.272,65.02c-9.787-9.787-25.713-9.788-35.502,0l-42.857,42.856c-4.742,4.742-7.353,11.046-7.353,17.751
	c0,6.705,2.611,13.01,7.353,17.751l112.609,112.609L39.909,368.623c-9.786,9.788-9.786,25.714,0.001,35.5l42.857,42.857
	c4.742,4.742,11.046,7.354,17.752,7.353c6.706,0,13.01-2.612,17.751-7.354l173.22-173.242
	C301.276,263.95,301.276,248.024,291.49,238.236z M107.665,436.374c-1.908,1.908-4.446,2.959-7.145,2.959s-5.236-1.051-7.145-2.959
	l-42.858-42.857c-3.939-3.939-3.939-10.349,0-14.289L168.431,261.29c0.005-0.005,0.01-0.011,0.015-0.017
	c0.006-0.006,0.013-0.011,0.019-0.017c7.256-7.35,14.804-14.914,22.433-22.481c2.941-2.917,2.96-7.666,0.043-10.606
	c-2.917-2.941-7.666-2.96-10.606-0.043c-5.823,5.776-11.597,11.549-17.233,17.229L50.519,132.772
	c-1.909-1.909-2.959-4.446-2.959-7.145s1.051-5.236,2.959-7.145l42.857-42.857c1.97-1.97,4.557-2.955,7.145-2.955
	c2.587,0,5.175,0.985,7.145,2.955l112.578,112.578c-5.828,5.781-11.415,11.387-17.532,17.593c-2.908,2.95-2.874,7.698,0.076,10.606
	c1.461,1.441,3.363,2.159,5.265,2.159c1.938,0,3.874-0.746,5.341-2.235c6.092-6.179,11.653-11.76,17.457-17.516l50.032,50.032
	c3.939,3.939,3.939,10.349,0,14.289L107.665,436.374z"/>
<path d="M494.01,488.583c-4.143,0-7.5,3.358-7.5,7.5v8.417c0,4.142,3.357,7.5,7.5,7.5s7.5-3.358,7.5-7.5v-8.417
	C501.51,491.941,498.153,488.583,494.01,488.583z"/>
<path d="M449.738,488.583c-4.143,0-7.5,3.358-7.5,7.5v8.417c0,4.142,3.357,7.5,7.5,7.5s7.5-3.358,7.5-7.5v-8.417
	C457.238,491.941,453.881,488.583,449.738,488.583z"/>
<path d="M405.466,488.583c-4.143,0-7.5,3.358-7.5,7.5v8.417c0,4.142,3.357,7.5,7.5,7.5s7.5-3.358,7.5-7.5v-8.417
	C412.966,491.941,409.608,488.583,405.466,488.583z"/>
<path d="M106.534,23.417c4.142,0,7.5-3.358,7.5-7.5V7.5c0-4.142-3.358-7.5-7.5-7.5s-7.5,3.358-7.5,7.5v8.417
	C99.034,20.059,102.392,23.417,106.534,23.417z"/>
<path d="M62.262,23.417c4.142,0,7.5-3.358,7.5-7.5V7.5c0-4.142-3.358-7.5-7.5-7.5s-7.5,3.358-7.5,7.5v8.417
	C54.762,20.059,58.12,23.417,62.262,23.417z"/>
<path d="M17.99,0c-4.142,0-7.5,3.358-7.5,7.5v8.417c0,4.142,3.358,7.5,7.5,7.5s7.5-3.358,7.5-7.5V7.5C25.49,3.358,22.132,0,17.99,0z
	"/>
<path d="M471.867,238.236L298.648,65.02c-9.787-9.787-25.713-9.788-35.502,0l-42.857,42.856c-4.742,4.742-7.353,11.046-7.353,17.751
	c0,6.705,2.611,13.01,7.353,17.751l112.609,112.609L220.286,368.623c-9.786,9.788-9.786,25.714,0.001,35.5l42.857,42.857
	c4.742,4.742,11.046,7.354,17.752,7.353c6.706,0,13.01-2.612,17.751-7.354l173.218-173.242
	C481.653,263.95,481.653,248.024,471.867,238.236z M288.042,436.374c-1.908,1.908-4.446,2.959-7.145,2.959
	c-2.699,0-5.236-1.051-7.145-2.959l-42.858-42.857c-3.939-3.939-3.939-10.349,0-14.289L348.808,261.29
	c0.005-0.005,0.01-0.011,0.015-0.017c0.006-0.006,0.013-0.011,0.019-0.017c7.256-7.35,14.804-14.914,22.433-22.481
	c2.941-2.917,2.96-7.666,0.043-10.606c-2.917-2.941-7.666-2.96-10.606-0.043c-5.823,5.776-11.597,11.549-17.233,17.229
	L230.896,132.772c-1.909-1.909-2.959-4.446-2.959-7.145s1.051-5.236,2.959-7.145l42.857-42.857c1.97-1.97,4.557-2.955,7.145-2.955
	c2.587,0,5.175,0.985,7.145,2.955L400.62,188.204c-5.828,5.781-11.415,11.387-17.532,17.593c-2.908,2.95-2.874,7.698,0.076,10.606
	c1.461,1.441,3.363,2.159,5.265,2.159c1.938,0,3.874-0.746,5.341-2.235c6.092-6.179,11.653-11.76,17.457-17.516l50.032,50.032
	c3.939,3.939,3.939,10.349,0,14.289L288.042,436.374z"/>
<g>
</g>
<g>
</g>
<g>
</g>
<g>
</g>
<g>
</g>
<g>
</g>
<g>
</g>
<g>
</g>
<g>
</g>
<g>
</g>
<g>
</g>
<g>
</g>
<g>
</g>
<g>
</g>
<g>
</g>
</svg>
