<svg width="309" height="309" viewBox="0 0 309 309" fill="none" xmlns="http://www.w3.org/2000/svg">
<path d="M309 154.5C309 239.828 239.828 309 154.5 309C69.172 309 0 239.828 0 154.5C0 69.172 69.172 0 154.5 0C239.828 0 309 69.172 309 154.5Z" fill="url(#paint0_linear_4_93)"/>
<path d="M146.919 184.625V210H65.1939V184.625L112.969 124.775H70.2689V100.275H143.594V124.775L95.9939 184.625H146.919ZM184.003 210H157.753V123.55H180.503L181.553 132.65H182.078C185.811 128.8 189.836 126.058 194.153 124.425C198.586 122.675 203.894 121.8 210.078 121.8C219.878 121.8 227.286 124.192 232.303 128.975C237.319 133.758 239.828 140.817 239.828 150.15V210H213.578V153.65C213.578 150.967 212.469 148.925 210.253 147.525C208.153 146.125 205.003 145.425 200.803 145.425C197.653 145.425 194.619 145.775 191.703 146.475C188.786 147.175 186.219 148.167 184.003 149.45V210Z" fill="white"/>
<defs>
<linearGradient id="paint0_linear_4_93" x1="0" y1="0" x2="309" y2="309" gradientUnits="userSpaceOnUse">
<stop offset="0.1875" stop-color="#DD1E12"/>
<stop offset="0.854167" stop-color="#4E008B"/>
</linearGradient>
</defs>
</svg>
