<svg width="309" height="309" viewBox="0 0 309 309" fill="none" xmlns="http://www.w3.org/2000/svg">
<path d="M309 154.5C309 239.828 239.828 309 154.5 309C69.172 309 0 239.828 0 154.5C0 69.172 69.172 0 154.5 0C239.828 0 309 69.172 309 154.5Z" fill="url(#paint0_linear_4_303)"/>
<path d="M127.1 169.225H108.2V147.35H152.475V205.1C149.209 206.617 143.375 208.133 134.975 209.65C126.575 211.05 118.934 211.75 112.05 211.75C93.0335 211.75 79.7919 207.375 72.3252 198.625C64.9752 189.875 61.3002 175.35 61.3002 155.05C61.3002 135.45 65.6169 121.158 74.2502 112.175C82.8835 103.075 96.6502 98.525 115.55 98.525C122.434 98.525 128.559 98.7 133.925 99.05C139.409 99.2833 143.609 99.6917 146.525 100.275V124.075C142.675 123.725 138.067 123.492 132.7 123.375C127.45 123.142 121.734 123.025 115.55 123.025C108.9 123.025 103.942 123.608 100.675 124.775C97.5252 125.942 95.1335 127.983 93.5002 130.9C91.9835 133.233 90.8752 136.383 90.1752 140.35C89.5919 144.2 89.3002 149.1 89.3002 155.05C89.3002 160.767 89.5919 165.55 90.1752 169.4C90.7585 173.25 91.6919 176.342 92.9752 178.675C94.6085 181.825 96.8835 184.042 99.8002 185.325C102.834 186.608 107.5 187.25 113.8 187.25C115.9 187.25 118.059 187.192 120.275 187.075C122.609 186.842 124.884 186.55 127.1 186.2V169.225ZM218.647 93.625H244.897V210H221.622L220.222 201.95H219.697C216.547 205.217 212.814 207.667 208.497 209.3C204.18 210.933 199.28 211.75 193.797 211.75C182.364 211.75 174.197 208.308 169.297 201.425C164.514 194.542 162.122 182.992 162.122 166.775C162.122 151.025 165.155 139.592 171.222 132.475C177.405 125.358 187.38 121.8 201.147 121.8C204.53 121.8 207.68 122.033 210.597 122.5C213.63 122.85 216.314 123.375 218.647 124.075V93.625ZM204.822 145.425C197.822 145.425 193.33 146.767 191.347 149.45C189.364 152.017 188.372 157.792 188.372 166.775C188.372 175.292 189.247 180.892 190.997 183.575C192.747 186.142 196.83 187.425 203.247 187.425C206.28 187.425 209.08 187.192 211.647 186.725C214.33 186.258 216.664 185.558 218.647 184.625V147.7C216.897 146.883 214.855 146.3 212.522 145.95C210.305 145.6 207.739 145.425 204.822 145.425Z" fill="white"/>
<defs>
<linearGradient id="paint0_linear_4_303" x1="0" y1="0" x2="309" y2="309" gradientUnits="userSpaceOnUse">
<stop offset="0.1875" stop-color="#DD1E12"/>
<stop offset="0.854167" stop-color="#4E008B"/>
</linearGradient>
</defs>
</svg>
