<svg width="309" height="309" viewBox="0 0 309 309" fill="none" xmlns="http://www.w3.org/2000/svg">
<path d="M309 154.5C309 239.828 239.828 309 154.5 309C69.172 309 0 239.828 0 154.5C0 69.172 69.172 0 154.5 0C239.828 0 309 69.172 309 154.5Z" fill="url(#paint0_linear_4_135)"/>
<path d="M130.636 169.05L108.411 163.8C99.5448 161.7 93.4781 158.492 90.2114 154.175C87.0614 149.858 85.4864 143.675 85.4864 135.625C85.4864 122.908 88.8114 113.575 95.4614 107.625C102.228 101.558 112.67 98.525 126.786 98.525C132.62 98.525 137.811 98.7583 142.361 99.225C146.911 99.6917 151.111 100.508 154.961 101.675V126C146.095 124.483 139.97 123.608 136.586 123.375C133.32 123.142 129.878 123.025 126.261 123.025C121.361 123.025 117.803 123.842 115.586 125.475C113.37 127.108 112.261 129.85 112.261 133.7C112.261 135.567 112.611 137.025 113.311 138.075C114.011 139.008 115.353 139.708 117.336 140.175L138.336 145.075C144.403 146.475 148.778 147.875 151.461 149.275C154.145 150.558 156.303 152.25 157.936 154.35C159.803 156.567 161.145 159.425 161.961 162.925C162.895 166.425 163.361 170.683 163.361 175.7C163.361 188.417 159.978 197.633 153.211 203.35C146.445 208.95 135.945 211.75 121.711 211.75C114.478 211.75 107.595 211.283 101.061 210.35C94.5281 209.533 89.4531 208.483 85.8364 207.2V181.475C90.5031 182.992 96.0448 184.217 102.461 185.15C108.878 185.967 115.295 186.375 121.711 186.375C126.845 186.375 130.403 185.733 132.386 184.45C134.37 183.167 135.361 180.6 135.361 176.75C135.361 174.3 135.011 172.55 134.311 171.5C133.728 170.333 132.503 169.517 130.636 169.05ZM199.982 210H173.732V123.55H198.232L199.107 130.2H199.457C203.657 127.633 207.915 125.708 212.232 124.425C216.665 123.025 220.807 122.325 224.657 122.325H226.057V147.7C225.007 147.467 223.84 147.35 222.557 147.35C221.39 147.233 219.873 147.175 218.007 147.175C214.623 147.175 211.415 147.408 208.382 147.875C205.348 148.225 202.548 148.808 199.982 149.625V210Z" fill="white"/>
<defs>
<linearGradient id="paint0_linear_4_135" x1="0" y1="0" x2="309" y2="309" gradientUnits="userSpaceOnUse">
<stop offset="0.1875" stop-color="#DD1E12"/>
<stop offset="0.854167" stop-color="#4E008B"/>
</linearGradient>
</defs>
</svg>
