<svg width="309" height="309" viewBox="0 0 309 309" fill="none" xmlns="http://www.w3.org/2000/svg">
<path d="M309 154.5C309 239.828 239.828 309 154.5 309C69.172 309 0 239.828 0 154.5C0 69.172 69.172 0 154.5 0C239.828 0 309 69.172 309 154.5Z" fill="url(#paint0_linear_4_228)"/>
<path d="M161.464 184.625V210H91.4645V100.275H118.589V184.625H161.464ZM197.504 210H171.254V123.55H195.754L196.629 130.2H196.979C201.179 127.633 205.437 125.708 209.754 124.425C214.187 123.025 218.329 122.325 222.179 122.325H223.579V147.7C222.529 147.467 221.362 147.35 220.079 147.35C218.912 147.233 217.395 147.175 215.529 147.175C212.145 147.175 208.937 147.408 205.904 147.875C202.87 148.225 200.07 148.808 197.504 149.625V210Z" fill="white"/>
<defs>
<linearGradient id="paint0_linear_4_228" x1="0" y1="0" x2="309" y2="309" gradientUnits="userSpaceOnUse">
<stop offset="0.1875" stop-color="#DD1E12"/>
<stop offset="0.854167" stop-color="#4E008B"/>
</linearGradient>
</defs>
</svg>
