<svg id="Capa_1" enable-background="new 0 0 512 512" height="512" viewBox="0 0 512 512" width="512" xmlns="http://www.w3.org/2000/svg"><g><path d="m428.08 494.153h-389.598c-16.55 0-29.966-13.416-29.966-29.966v-234.74c0-16.55 13.416-29.966 29.966-29.966h389.598c16.55 0 29.966 13.416 29.966 29.966v234.74c0 16.55-13.416 29.966-29.966 29.966z" fill="#7398d3"/><path d="m428.08 199.482h-11.658c1.109 3.13 1.713 6.5 1.713 10.01v186.032c0 43.451-35.223 78.674-78.674 78.674h-329.232c4.12 11.627 15.213 19.955 28.252 19.955h389.599c16.55 0 29.966-13.416 29.966-29.966v-234.74c0-16.549-13.416-29.965-29.966-29.965z" fill="#4278c3"/><path d="m140.847 319.284h-82.852c-7.345 0-13.299-5.954-13.299-13.299v-57.025c0-7.345 5.954-13.299 13.299-13.299h82.852c7.345 0 13.299 5.954 13.299 13.299v57.024c0 7.346-5.954 13.3-13.299 13.3z" fill="#f4dd45"/><path d="m110.87 295.196h-22.898c-2.781 0-5.036-2.255-5.036-5.036v-25.375c0-2.781 2.255-5.036 5.036-5.036h22.898c2.781 0 5.036 2.255 5.036 5.036v25.375c0 2.781-2.255 5.036-5.036 5.036z" fill="#f6e781"/><g fill="#f1f4f6"><path d="m110.031 415.824h-60.301c-2.578 0-4.669-2.09-4.669-4.669v-18.755c0-2.578 2.09-4.669 4.669-4.669h60.301c2.578 0 4.669 2.09 4.669 4.669v18.755c0 2.579-2.091 4.669-4.669 4.669z"/><path d="m212.42 415.824h-60.301c-2.578 0-4.669-2.09-4.669-4.669v-18.755c0-2.578 2.09-4.669 4.669-4.669h60.301c2.578 0 4.669 2.09 4.669 4.669v18.755c0 2.579-2.091 4.669-4.669 4.669z"/><path d="m314.809 415.824h-60.301c-2.578 0-4.669-2.09-4.669-4.669v-18.755c0-2.578 2.09-4.669 4.669-4.669h60.301c2.578 0 4.669 2.09 4.669 4.669v18.755c-.001 2.579-2.091 4.669-4.669 4.669z"/><path d="m417.198 415.824h-60.301c-2.578 0-4.669-2.09-4.669-4.669v-18.755c0-2.578 2.09-4.669 4.669-4.669h60.301c2.578 0 4.669 2.09 4.669 4.669v18.755c-.001 2.579-2.091 4.669-4.669 4.669z"/></g><path d="m418.498 388.119v7.715c0 7.035-.922 13.855-2.65 20.346h1.711c2.584 0 4.679-2.095 4.679-4.679v-18.797c0-2.263-1.606-4.15-3.74-4.585z" fill="#dfeaef"/><path d="m503.484 266.81-60.756-226.741c-4.283-15.985-20.715-25.472-36.7-21.189l-376.323 100.835c-15.985 4.283-25.472 20.715-21.189 36.7l12.957 48.358c4.832-3.337 10.692-5.292 17.008-5.292h389.599c16.549 0 29.966 13.416 29.966 29.966v80.561l24.249-6.497c15.986-4.284 25.472-20.715 21.189-36.701z" fill="#f4dd45"/><path d="m503.484 266.81-60.755-226.741c-4.283-15.986-20.715-25.472-36.7-21.189l-3.306.886c.032.115.064.231.095.348l53.141 198.326c.824 2.084 1.42 4.283 1.759 6.566l5.855 21.85c2.56 9.556.2 19.271-5.527 26.455v36.698l24.249-6.497c15.986-4.285 25.472-20.716 21.189-36.702z" fill="#f1d333"/><path d="m38.482 199.482h106.015l318.108-85.237-14.533-54.235-434.212 116.347 7.614 28.416c4.831-3.337 10.691-5.291 17.008-5.291z" fill="#617881"/><path d="m422.521 63.374h33.386v56.148h-33.386z" fill="#475959" transform="matrix(.966 -.259 .259 .966 -8.703 116.793)"/><path d="m57.995 326.768h6.919c4.133 0 7.483-3.35 7.483-7.483s-3.35-7.483-7.483-7.483h-6.919c-3.207 0-5.816-2.609-5.816-5.816v-8.342h25.763c2.285 3.055 5.931 5.036 10.03 5.036h22.898c4.099 0 7.745-1.981 10.03-5.036h25.764v8.342c0 3.207-2.609 5.816-5.816 5.816h-41.012c-4.133 0-7.483 3.35-7.483 7.483s3.35 7.483 7.483 7.483h41.012c11.46 0 20.783-9.323 20.783-20.783v-57.025c0-11.46-9.323-20.783-20.783-20.783h-82.853c-11.46 0-20.783 9.323-20.783 20.783v57.025c0 11.46 9.323 20.783 20.783 20.783zm-5.816-54.499h23.274v10.408h-23.274zm38.24-5.037h18.003v20.481h-18.003zm32.97 15.445v-10.408h23.275v10.408zm23.275-33.717v8.342h-25.764c-2.285-3.055-5.931-5.037-10.031-5.037h-3.966v-9.121h33.944c3.207 0 5.817 2.61 5.817 5.816zm-88.669-5.816h33.943v9.121h-3.966c-4.1 0-7.746 1.981-10.031 5.037h-25.762v-8.342c0-3.206 2.609-5.816 5.816-5.816z"/><path d="m49.73 380.249c-6.701 0-12.152 5.452-12.152 12.152v18.755c0 6.701 5.452 12.152 12.152 12.152h60.301c6.701 0 12.152-5.451 12.152-12.152v-18.755c0-6.701-5.451-12.152-12.152-12.152zm57.486 28.092h-54.672v-13.126h54.672z"/><path d="m139.967 392.401v18.755c0 6.701 5.452 12.152 12.152 12.152h60.301c6.701 0 12.152-5.451 12.152-12.152v-18.755c0-6.701-5.451-12.152-12.152-12.152h-60.301c-6.701 0-12.152 5.451-12.152 12.152zm14.966 2.814h54.672v13.126h-54.672z"/><path d="m314.809 380.249h-60.301c-6.701 0-12.152 5.452-12.152 12.152v18.755c0 6.701 5.452 12.152 12.152 12.152h60.301c6.701 0 12.151-5.451 12.151-12.152v-18.755c0-6.701-5.45-12.152-12.151-12.152zm-2.815 28.092h-54.672v-13.126h54.672z"/><path d="m417.198 380.249h-60.301c-6.701 0-12.152 5.452-12.152 12.152v18.755c0 6.701 5.452 12.152 12.152 12.152h60.301c6.701 0 12.152-5.451 12.152-12.152v-18.755c-.001-6.701-5.451-12.152-12.152-12.152zm-2.815 28.092h-54.672v-13.126h54.672z"/><path d="m171.957 450.491h-127.261c-4.133 0-7.483 3.35-7.483 7.483s3.35 7.483 7.483 7.483h127.261c4.133 0 7.483-3.35 7.483-7.483s-3.35-7.483-7.483-7.483z"/><path d="m296.911 450.491h-97.82c-4.133 0-7.483 3.35-7.483 7.483s3.35 7.483 7.483 7.483h97.82c4.133 0 7.483-3.35 7.483-7.483s-3.349-7.483-7.483-7.483z"/><path d="m12.992 202.035c-7.353 6.842-11.96 16.6-11.96 27.413v234.74c0 20.649 16.799 37.448 37.449 37.448h389.599c20.649 0 37.448-16.799 37.448-37.448v-148.438l18.703-5.012c19.993-5.357 31.837-25.871 26.48-45.865-14.782-55.168-55.945-208.788-60.756-226.741-5.357-19.993-25.871-31.837-45.865-26.48l-376.322 100.836c-19.993 5.357-31.837 25.871-26.48 45.865zm467.366 94.247-14.829 3.974v-7.817c0-4.133-3.35-7.483-7.483-7.483s-7.483 3.35-7.483 7.483v171.748c0 12.396-10.085 22.482-22.482 22.482h-389.599c-12.397 0-22.483-10.086-22.483-22.482v-234.74c0-12.397 10.086-22.483 22.483-22.483h389.599c12.397 0 22.482 10.086 22.482 22.483v28.07c0 4.133 3.35 7.483 7.483 7.483s7.483-3.35 7.483-7.483v-28.07c0-20.65-16.799-37.449-37.448-37.449h-226.744l255.976-68.588 38.943 145.337c3.216 12.004-3.894 24.317-15.898 27.535zm-448.716-169.338 376.324-100.836c12.028-3.218 24.325 3.916 27.535 15.898l3.406 12.713-366.039 98.08c-3.992 1.069-6.361 5.173-5.291 9.165 1.072 4.001 5.186 6.36 9.165 5.291l366.039-98.08 10.659 39.779-309.927 83.044h-105.031c-4.248 0-8.334.712-12.143 2.021l-3.315-12.371 19.353-5.186c3.992-1.07 6.361-5.173 5.291-9.165-1.069-3.992-5.172-6.363-9.165-5.291l-19.352 5.186-3.407-12.714c-3.216-12.001 3.895-24.318 15.898-27.534z"/></g></svg>