<svg width="309" height="309" viewBox="0 0 309 309" fill="none" xmlns="http://www.w3.org/2000/svg">
<path d="M309 154.5C309 239.828 239.828 309 154.5 309C69.172 309 0 239.828 0 154.5C0 69.172 69.172 0 154.5 0C239.828 0 309 69.172 309 154.5Z" fill="url(#paint0_linear_4_183)"/>
<path d="M117.702 186.375C122.369 186.375 127.444 185.908 132.927 184.975C138.41 183.925 143.31 182.583 147.627 180.95V204.925C141.21 207.492 135.435 209.242 130.302 210.175C125.169 211.225 119.802 211.75 114.202 211.75C104.052 211.75 95.9438 210.583 89.8772 208.25C83.8105 205.917 78.9688 202.183 75.3521 197.05C72.3188 192.617 70.0438 186.958 68.5271 180.075C67.1271 173.192 66.4271 164.85 66.4271 155.05C66.4271 135.45 70.6271 121.158 79.0271 112.175C87.5438 103.075 101.019 98.525 119.452 98.525C124.819 98.525 129.602 98.6417 133.802 98.875C138.002 99.1083 141.794 99.5167 145.177 100.1V123.725C141.327 123.492 137.302 123.317 133.102 123.2C129.019 123.083 124.469 123.025 119.452 123.025C113.035 123.025 108.252 123.667 105.102 124.95C102.069 126.117 99.7938 128.217 98.2771 131.25C96.8772 133.583 95.8855 136.675 95.3021 140.525C94.7188 144.375 94.4271 149.217 94.4271 155.05C94.4271 160.533 94.6605 165.142 95.1272 168.875C95.7105 172.492 96.5855 175.525 97.7522 177.975C99.2688 181.008 101.485 183.167 104.402 184.45C107.319 185.733 111.752 186.375 117.702 186.375ZM184.344 210H158.094V123.55H180.844L181.894 132.65H182.419C186.153 128.8 190.178 126.058 194.494 124.425C198.928 122.675 204.236 121.8 210.419 121.8C220.219 121.8 227.628 124.192 232.644 128.975C237.661 133.758 240.169 140.817 240.169 150.15V210H213.919V153.65C213.919 150.967 212.811 148.925 210.594 147.525C208.494 146.125 205.344 145.425 201.144 145.425C197.994 145.425 194.961 145.775 192.044 146.475C189.128 147.175 186.561 148.167 184.344 149.45V210Z" fill="white"/>
<defs>
<linearGradient id="paint0_linear_4_183" x1="0" y1="0" x2="309" y2="309" gradientUnits="userSpaceOnUse">
<stop offset="0.1875" stop-color="#DD1E12"/>
<stop offset="0.854167" stop-color="#4E008B"/>
</linearGradient>
</defs>
</svg>
