<svg height="512pt" viewBox="0 -68 512.002 512" width="512pt" xmlns="http://www.w3.org/2000/svg"><path d="m52.742188 14.21875v218.507812h-38.523438c-3.671875 0-6.644531-2.96875-6.644531-6.644531v-211.863281c0-3.675781 2.972656-6.644531 6.644531-6.644531h31.878906c3.664063 0 6.644532 2.96875 6.644532 6.644531zm0 0" fill="#f37141"/><path d="m52.742188 232.726562v-180.675781h38.523437c3.667969 0 6.644531 2.976563 6.644531 6.648438v174.027343zm0 0" fill="#f89a43"/><path d="m7.574219 100.753906h45.167969v38.105469h-45.167969zm0 0" fill="#f37141"/><path d="m97.910156 97.222656h45.167969v135.503906h-45.167969zm0 0" fill="#ffe07e"/><path d="m143.078125 97.222656h45.167969v135.503906h-45.167969zm0 0" fill="#ffe07e"/><path d="m188.246094 97.222656h45.167968v135.503906h-45.167968zm0 0" fill="#ffe07e"/><path d="m233.414062 97.222656h45.171876v135.503906h-45.171876zm0 0" fill="#ffe07e"/><path d="m278.585938 97.222656h45.167968v135.503906h-45.167968zm0 0" fill="#fffd90"/><path d="m323.753906 232.726562v-174.027343c0-3.671875 2.972656-6.648438 6.644532-6.648438h38.523437v180.675781zm0 0" fill="#fffd90"/><path d="m368.921875 52.050781h45.167969v180.675781h-45.167969zm0 0" fill="#b3e59f"/><path d="m414.089844 52.050781h45.167968v180.675781h-45.167968zm0 0" fill="#a9dbf6"/><path d="m459.257812 284.542969v77.042969c0 3.675781-2.976562 6.644531-6.644531 6.644531h-393.226562c-3.667969 0-6.644531-2.96875-6.644531-6.644531v-77.042969c0-3.675781 2.976562-6.644531 6.644531-6.644531h393.226562c3.667969 0 6.644531 2.96875 6.644531 6.644531zm0 0" fill="#ff8086"/><path d="m504.425781 14.21875v211.859375c0 3.667969-2.972656 6.644531-6.644531 6.644531h-38.523438v-218.503906c0-3.675781 2.980469-6.644531 6.644532-6.644531h31.878906c3.671875 0 6.644531 2.96875 6.644531 6.644531zm0 0" fill="#8f93c8"/><path d="m52.742188 138.859375h45.164062v7.070313h-45.164062zm0 0" fill="#f37141"/><path d="m7.574219 138.859375h45.167969v7.070313h-45.167969zm0 0" fill="#dd5e37"/><g fill="#f89a43"><path d="m97.90625 138.859375h45.175781v7.070313h-45.175781zm0 0"/><path d="m188.246094 138.859375h45.164062v7.070313h-45.164062zm0 0"/><path d="m143.082031 138.859375h45.164063v7.070313h-45.164063zm0 0"/><path d="m233.410156 138.859375h45.175782v7.070313h-45.175782zm0 0"/></g><path d="m278.589844 138.859375h45.164062v7.070313h-45.164062zm0 0" fill="#ffe07e"/><path d="m323.753906 138.859375h45.164063v7.070313h-45.164063zm0 0" fill="#ffe07e"/><path d="m368.917969 138.859375h45.175781v7.070313h-45.175781zm0 0" fill="#95d6a5"/><path d="m414.09375 138.859375h45.164062v7.070313h-45.164062zm0 0" fill="#96c1ea"/><path d="m459.257812 138.859375h45.167969v7.070313h-45.167969zm0 0" fill="#7980b5"/><path d="m7.574219 93.683594h45.167969v7.070312h-45.167969zm0 0" fill="#dd5e37"/><path d="m97.90625 93.683594v2.898437c0 2.304688-1.867188 4.171875-4.171875 4.171875h-40.992187v-7.070312zm0 0" fill="#f37141"/><path d="m459.257812 93.683594h45.167969v7.070312h-45.167969zm0 0" fill="#7980b5"/><path d="m414.09375 93.683594h45.164062v7.070312h-45.164062zm0 0" fill="#96c1ea"/><path d="m368.917969 93.683594h45.175781v7.070312h-45.175781zm0 0" fill="#95d6a5"/><path d="m368.917969 93.683594v7.070312h-40.980469c-2.3125 0-4.183594-1.875-4.183594-4.183594v-2.886718zm0 0" fill="#ffe07e"/><path d="m7.574219 184.027344h45.167969v7.066406h-45.167969zm0 0" fill="#dd5e37"/><path d="m52.742188 184.027344h45.164062v7.066406h-45.164062zm0 0" fill="#f37141"/><path d="m143.082031 184.027344h45.164063v7.066406h-45.164063zm0 0" fill="#f89a43"/><path d="m97.90625 184.027344h45.175781v7.066406h-45.175781zm0 0" fill="#f89a43"/><path d="m188.246094 184.027344h45.164062v7.066406h-45.164062zm0 0" fill="#f89a43"/><path d="m278.589844 184.027344h45.164062v7.066406h-45.164062zm0 0" fill="#ffe07e"/><path d="m233.410156 184.027344h45.175782v7.066406h-45.175782zm0 0" fill="#f89a43"/><path d="m323.753906 184.027344h45.164063v7.066406h-45.164063zm0 0" fill="#ffe07e"/><path d="m414.09375 184.027344h45.164062v7.066406h-45.164062zm0 0" fill="#96c1ea"/><path d="m368.917969 184.027344h45.175781v7.066406h-45.175781zm0 0" fill="#95d6a5"/><path d="m459.257812 184.027344h45.167969v7.066406h-45.167969zm0 0" fill="#7980b5"/><path d="m417.628906 319.25v-41.347656h-7.070312v41.347656h-38.105469v-41.347656h-7.070313v41.347656h-38.097656v-41.347656h-7.066406v41.347656h-38.097656v-41.347656h-7.066406v41.347656h-38.109376v-41.347656h-7.066406v41.347656h-38.097656v-41.347656h-7.066406v41.347656h-38.097656v-41.347656h-7.066407v41.347656h-38.109375v-41.347656h-7.066406v41.347656h-41.632812v7.066406h41.628906v41.914063h7.070312v-41.914063h38.105469v41.914063h7.066406v-41.914063h38.097657v41.914063h7.070312v-41.914063h38.097656v41.914063h7.066406v-41.914063h38.105469v41.914063h7.070313v-41.914063h38.097656v41.914063h7.066406v-41.914063h38.097656v41.914063h7.066407v-41.914063h38.109375v41.914063h7.066406v-41.914063h41.632812v-7.066406zm0 0" fill="#e86b6b"/><path d="m52.742188 48.519531v1.832031c0 2.890626-2.34375 5.238282-5.234376 5.238282h-39.933593v-7.070313zm0 0" fill="#dd5e37"/><path d="m504.425781 48.519531v7.070313h-41.394531c-2.085938 0-3.773438-1.691406-3.773438-3.773438v-3.296875zm0 0" fill="#7980b5"/><path d="m464.613281 272.539062c-1.371093-1.367187-3.261719-2.214843-5.355469-2.214843h-406.515624c-4.183594 0-7.574219 3.390625-7.574219 7.570312v90.339844c0 4.179687 3.390625 7.570313 7.574219 7.570313h187.929687c4.179687 0 7.570313-3.390626 7.570313-7.570313 0-4.078125-3.21875-7.390625-7.253907-7.558594v-30.316406h30.023438v30.300781h-1.109375c-4.179688 0-7.574219 3.390625-7.574219 7.574219 0 4.179687 3.394531 7.570313 7.574219 7.570313h189.359375c4.179687 0 7.570312-3.390626 7.570312-7.570313v-90.339844c0-2.089843-.847656-3.984375-2.21875-5.355469zm-103.265625 12.929688v29.746094h-30.023437v-29.746094zm15.148438 0h30.023437v29.746094h-30.023437zm45.167968 0h30.019532v29.746094h-30.019532zm-105.484374 29.746094h-30.023438v-29.746094h30.023438zm-90.335938 0h-30.023438v-29.746094h30.023438zm-45.167969 0h-30.023437v-29.746094h30.023437zm-45.167969 0h-30.023437v-29.746094h30.023437zm-45.171874-29.746094v29.746094h-30.019532v-29.746094zm-30.019532 44.890625h30.023438v30.300781h-30.023438zm45.167969 0h30.023437v30.300781h-30.023437zm45.167969 0h30.023437v30.300781h-30.023437zm75.191406 30.300781h-30.023438v-30.300781h30.023438zm15.144531-45.445312v-29.746094h30.023438v29.746094zm45.167969 15.144531h30.023438v30.300781h-30.023438zm45.167969 0h30.023437v30.300781h-30.023437zm45.171875 0h30.023437v30.300781h-30.023437zm45.167968 30.300781v-30.300781h30.019532v30.300781zm0 0"/><path d="m504.425781 0h-45.167969c-4.183593 0-7.574218 3.390625-7.574218 7.574219v36.90625h-127.929688c-4.183594 0-7.574218 3.390625-7.574218 7.574219v37.59375h-210.699219v-37.59375c0-4.183594-3.390625-7.574219-7.574219-7.574219h-37.589844v-36.90625c0-4.183594-3.390625-7.574219-7.574218-7.574219h-45.167969c-4.183594 0-7.574219 3.390625-7.574219 7.574219v225.152343c0 4.183594 3.390625 7.574219 7.574219 7.574219h496.855469c4.179687 0 7.570312-3.390625 7.570312-7.574219v-97.261718c0-4.183594-3.390625-7.574219-7.570312-7.574219-3.964844 0-7.214844 3.046875-7.542969 6.929687h-30.054688v-30.023437h30.023438v1.488281c0 4.183594 3.390625 7.574219 7.574219 7.574219 4.179687 0 7.574218-3.390625 7.574218-7.574219v-98.710937c-.003906-4.183594-3.394531-7.574219-7.578125-7.574219zm-7.570312 15.148438v29.332031h-30.023438v-29.332031zm-45.171875 74.5h-30.019532v-30.023438h30.019532zm-45.167969 0h-30.023437v-30.023438h30.023437zm-75.191406 105.484374h30.023437v30.019532h-30.023437zm-286.15625-105.484374h-30.023438v-30.023438h30.023438zm0 45.167968h-30.023438v-30.023437h30.023438zm15.148437-30.023437h30.023438v30.023437h-30.023438zm-45.171875 45.171875h30.023438v30.019531h-30.023438zm45.171875 0h30.023438v30.019531h-30.023438zm45.167969 0h30.019531v30.019531h-30.019531zm45.167969 0h30.023437v30.019531h-30.023437zm45.167968 0h30.023438v30.019531h-30.023438zm45.167969 0h30.023438v30.019531h-30.023438zm45.167969 0h30.023438v30.019531h-30.023438zm45.167969 0h30.023437v30.019531h-30.023437zm30.023437-45.171875v30.023437h-30.023437v-30.023437zm15.148438 90.339843h30.023437v30.019532h-30.023437zm120.359375 30.019532h-30.023438v-30.019532h30.023438zm-45.171875 0h-30.019532v-30.019532h30.019532zm-30.019532-45.167969v-30.019531h30.019532v30.019531zm-15.148437 0h-30.023437v-30.019531h30.023437zm-30.019531-45.167969v-30.023437h30.023437v30.023437zm-15.148438-75.191406v30.023438h-30.023437v-30.023438zm-45.167968 75.191406h-30.023438v-30.023437h30.023438zm-45.167969 0h-30.023438v-30.023437h30.023438zm-45.167969 0h-30.023438v-30.023437h30.023438zm-45.167969 0h-30.023437v-30.023437h30.023437zm-45.171875-30.023437v30.023437h-30.019531v-30.023437zm-45.167968-15.144531h-30.019532v-30.023438h30.023438v30.023438zm-45.167969-74.5v29.332031h-30.023438v-29.332031zm-30.023438 179.984374h30.023438v30.019532h-30.023438zm45.171875 0h30.023438v30.019532h-30.023438zm45.167969 0h30.019531v30.019532h-30.019531zm45.167969 0h30.023437v30.019532h-30.023437zm45.167968 0h30.023438v30.019532h-30.023438zm45.167969 0h30.023438v30.019532h-30.023438zm45.167969 0h30.023438v30.019532h-30.023438zm210.699219-45.167968v30.019531h-30.023438v-30.019531zm-45.171875-15.148438h-30.019532v-30.023437h30.019532zm15.148437-45.167968v-30.023438h30.023438v30.023438zm0 0"/></svg>