<svg id="Capa_1" enable-background="new 0 0 512 512" height="25" viewBox="0 0 512 512" width="25" xmlns="http://www.w3.org/2000/svg"><g><g><g fill="#fe646f"><circle cx="301.039" cy="217.392" r="22.046"/><circle cx="210.961" cy="217.392" r="22.046"/><circle cx="210.961" cy="307.47" r="22.046"/><circle cx="301.039" cy="307.47" r="22.046"/></g><circle cx="256" cy="210.608" fill="#99b6ff" r="35.269"/><circle cx="204.178" cy="262.431" fill="#99b6ff" r="35.269"/><circle cx="256" cy="314.253" fill="#99b6ff" r="35.269"/><circle cx="307.822" cy="262.431" fill="#99b6ff" r="35.269"/><g fill="#87e8d0"><circle cx="185.695" cy="140.657" r="28.401"/><circle cx="104.894" cy="448.118" r="28.401"/><circle cx="37.731" cy="323.619" r="16.149"/><circle cx="321.206" cy="41.234" r="16.149"/><circle cx="363.383" cy="329.515" r="16.149"/><circle cx="398.392" cy="464.267" r="16.149"/><circle cx="422.359" cy="169.058" r="28.401"/></g><g><path d="m296.911 262.47c0 25.629-15.28 40.2-40.909 40.2-20.256 0-31.78-10.096-43.812-24.909-1.68-4.8-2.594-9.959-2.594-15.332 0-25.629 20.777-46.406 46.406-46.406 5.374 0 10.534.914 15.334 2.593 16.744 10.282 25.575 23.598 25.575 43.854z" fill="#fd8087"/><path d="m302.404 262.43c0 25.628-20.771 46.409-46.399 46.409-20.264 0-37.487-12.979-43.816-31.078 4.798 1.677 9.958 2.594 15.331 2.594 25.628 0 46.408-20.781 46.408-46.409 0-5.373-.917-10.532-2.594-15.33 18.101 6.329 31.07 23.56 31.07 43.814z" fill="#fe646f"/></g></g><g><path d="m292.879 335.874c2.697.784 5.455 1.183 8.2 1.183 7.627 0 15.138-2.982 20.851-8.695 7.763-7.762 10.46-18.855 7.502-29.045 12.647-7.438 21.159-21.183 21.159-36.885 0-15.703-8.512-29.447-21.159-36.885 2.959-10.19.262-21.282-7.502-29.044-7.769-7.77-18.855-10.466-29.046-7.504-7.438-12.646-21.182-21.158-36.885-21.158-15.702 0-29.446 8.511-36.884 21.157-10.19-2.964-21.277-.266-29.046 7.504-7.695 7.694-10.428 18.851-7.499 29.043-12.649 7.438-21.163 21.183-21.163 36.888 0 15.703 8.512 29.448 21.159 36.886-2.958 10.19-.261 21.282 7.501 29.044 5.714 5.715 13.225 8.696 20.852 8.696 2.745 0 5.503-.399 8.2-1.183 7.439 12.641 21.181 21.149 36.879 21.149s29.442-8.51 36.881-21.151zm18.445-18.119c-3.49 3.49-8.521 4.891-13.217 3.946.427-2.421.663-4.906.663-7.448 0-3.523-.429-6.967-1.257-10.309 3.342.828 6.786 1.256 10.31 1.256 2.548 0 5.041-.237 7.467-.666.982 4.707-.416 9.67-3.966 13.221zm24.268-55.324c0 15.312-12.458 27.77-27.77 27.77-1.816 0-3.596-.18-5.338-.518 4.71-8.003 7.424-17.314 7.424-27.252 0-9.94-2.715-19.253-7.426-27.256 1.741-.337 3.522-.513 5.341-.513 15.311-.001 27.769 12.456 27.769 27.769zm-37.485-59.27c4.696-.946 9.728.456 13.218 3.947 3.55 3.55 4.948 8.513 3.965 13.22-2.427-.429-4.919-.666-7.468-.666-3.483 0-6.953.43-10.319 1.264.831-3.349 1.265-6.795 1.265-10.317.001-2.542-.234-5.027-.661-7.448zm-42.107-20.322c15.312 0 27.769 12.457 27.769 27.77 0 1.814-.18 3.594-.519 5.337-8.002-4.709-17.313-7.423-27.25-7.423-9.938 0-19.249 2.714-27.251 7.424-.338-1.742-.518-3.522-.518-5.338 0-15.313 12.457-27.77 27.769-27.77zm-79.592 79.592c0-15.312 12.458-27.77 27.77-27.77 1.815 0 3.595.181 5.337.519-4.709 8.002-7.423 17.313-7.423 27.251s2.714 19.249 7.424 27.252c-1.742.338-3.522.518-5.338.518-15.312-.001-27.77-12.458-27.77-27.77zm37.489 59.291c-4.706.984-9.668-.413-13.221-3.968-3.55-3.55-4.948-8.513-3.965-13.22 2.427.429 4.919.666 7.467.666 3.524 0 6.967-.428 10.309-1.256-.828 3.342-1.256 6.785-1.256 10.309 0 2.549.237 5.041.666 7.469zm-9.719-102.061c-2.546 0-5.037.236-7.462.665-.97-4.712.441-9.701 3.961-13.22 3.49-3.49 8.521-4.891 13.217-3.945-.427 2.421-.662 4.906-.662 7.447 0 3.526.429 6.971 1.258 10.315-3.346-.829-6.79-1.262-10.312-1.262zm12.914 42.77c0-21.454 17.454-38.908 38.908-38.908s38.908 17.454 38.908 38.908-17.454 38.908-38.908 38.908-38.908-17.454-38.908-38.908zm11.139 51.822c0-1.816.18-3.596.518-5.338 8.002 4.71 17.314 7.424 27.251 7.424 9.938 0 19.249-2.714 27.251-7.424.338 1.741.518 3.522.518 5.338 0 15.312-12.457 27.77-27.769 27.77s-27.769-12.458-27.769-27.77z"/><path d="m456.941 178.672c4.156-14.975-1.806-31.533-15.664-40.126-3.82-2.369-7.917-3.923-12.089-4.727-1.944-44.38-17.888-77.329-45.188-93.09-12.234-7.063-26.261-10.487-41.708-10.201-4.396-8.637-13.878-14.035-24.035-12.759-11.66 1.466-20.283 11.235-20.683 22.621-13.712 5.494-27.664 13.129-41.605 22.725-48.181-33.149-94.565-41.671-127.969-22.388-33.528 18.054-49.747 67.238-44.587 122.054-12.458 5.93-23.809 12.512-33.845 19.663-3.374 2.404-4.16 7.087-1.756 10.461 1.463 2.054 3.771 3.148 6.115 3.148 1.506 0 3.026-.452 4.346-1.393 8.056-5.74 17.053-11.093 26.85-16.018 3.647 26.899 11.193 55.288 22.241 83.903-11.03 28.715-18.54 57.115-22.186 83.716-9.093-4.567-17.513-9.52-25.157-14.825 2.898-8.307 1.06-17.913-5.566-24.539-6.944-6.944-17.165-8.654-25.729-5.139-9.103-12.668-13.726-25.874-13.726-39.326 0-15.699 6.268-31.044 18.628-45.606 2.681-3.158 2.293-7.891-.864-10.571-3.159-2.681-7.892-2.292-10.571.864-14.727 17.349-22.193 35.959-22.193 55.313 0 17.09 5.848 33.624 17.368 49.214-5.324 9.062-4.128 20.926 3.641 28.696 8.091 8.091 20.633 9.078 29.815 2.97 9.761 6.83 20.711 13.103 32.636 18.77-1.61 20.026-.859 38.785 2.43 55.578-16.092 10.027-21.691 31.091-12.398 47.861 9.456 17.062 30.85 23.398 48.04 14.397 13.418 9.746 29.011 14.4 46.406 14.427 22.692 0 48.239-8.122 74.943-24.157 4.38-2.63 8.755-5.462 13.119-8.466 28.755 20.232 62.185 33.132 87.967 32.686 14.996-.01 28.753-3.546 40.882-10.775 9.195 6.436 21.98 5.593 30.214-2.59 8.933-8.879 9.254-23.163.984-32.463 11.266-23.04 15.314-52.905 12.641-86.501 11.918-5.703 22.912-12.037 32.785-18.979 3.389-2.383 4.204-7.061 1.822-10.449-2.381-3.389-7.061-4.203-10.449-1.822-7.818 5.497-16.502 10.608-25.891 15.317-3.63-26.494-11.137-54.88-22.303-83.786 7.448-19.345 13.343-38.652 17.49-57.412 10.493.046 20.796-4.504 27.791-12.909 30.398 20.489 47.067 45.331 47.067 70.393 0 15.993-6.493 31.594-19.297 46.368-2.713 3.13-2.375 7.867.755 10.58 1.419 1.229 3.168 1.832 4.909 1.832 2.1 0 4.188-.877 5.671-2.588 15.236-17.581 22.962-36.486 22.962-56.192 0-30.615-19.513-60.229-55.059-83.76zm-413.093 151.063c-3.373 3.373-8.86 3.373-12.232 0s-3.373-8.859 0-12.232 8.86-3.373 12.232 0 3.372 8.86 0 12.232zm276.279-297.083c4.732-.595 9.066 2.771 9.661 7.503s-2.771 9.066-7.503 9.661-9.066-2.771-9.661-7.503c-.595-4.733 2.771-9.067 7.503-9.661zm-64.086 48.975c5.93 4.453 11.896 9.283 17.875 14.524 3.114 2.73 7.853 2.418 10.583-.695 2.73-3.115 2.419-7.854-.696-10.584-4.965-4.352-9.933-8.446-14.894-12.291 11.15-7.339 22.22-13.316 32.959-17.746 4.88 6.913 13.32 10.99 22.286 9.863 10.468-1.316 18.488-9.324 20.309-19.186 11.932.062 22.695 2.813 32.035 8.207 22.63 13.065 35.914 41.512 37.685 80.399-8.397 1.964-16.092 6.926-21.322 14.473-19.56-6.446-40.567-11.446-62.522-14.895-6.742-8.342-13.705-16.342-20.876-23.972-2.836-3.018-7.583-3.164-10.602-.328-3.018 2.837-3.165 7.583-.328 10.602 3.305 3.516 6.559 7.123 9.772 10.8-17.079-1.839-34.586-2.795-52.307-2.795-12.135 0-24.294.471-36.246 1.348-1.202-3.641-3-7.124-5.396-10.298 13.533-14.285 27.594-26.885 41.685-37.426zm-120.541-27.91c27.309-15.765 66.095-8.596 107.623 18.796-13.534 10.491-26.983 22.779-40.113 36.704-13.638-7.503-31.154-5.491-42.701 6.055-6.819 6.819-10.306 15.721-10.481 24.677-18.521 4.387-35.913 9.902-51.823 16.408-2.555-49.679 10.697-87.168 37.495-102.64zm64.974 101.719c-8.149 8.149-21.409 8.149-29.558 0s-8.149-21.409 0-29.558 21.409-8.149 29.558 0c8.149 8.15 8.149 21.409 0 29.558zm-101.076 16.594c16.133-6.91 34.027-12.75 53.262-17.339 1.487 3.512 3.553 6.834 6.208 9.816-6.734 9.91-13.22 20.203-19.286 30.71-8.905 15.425-16.834 31.106-23.752 46.8-8.216-23.988-13.776-47.587-16.432-69.987zm16.437 110.941c6.93 15.65 14.862 31.277 23.75 46.671 8.886 15.392 18.451 30.073 28.537 43.897-25.018-4.922-48.268-11.92-68.769-20.701 2.652-22.119 8.224-45.737 16.482-69.867zm-.81 183.428c-10.08 5.586-22.826 1.93-28.412-8.15s-1.93-22.826 8.151-28.412c10.08-5.586 22.826-1.93 28.412 8.15 5.585 10.08 1.929 22.826-8.151 28.412zm20.474 4.743c-.697-.402-1.386-.822-2.069-1.255 8.36-10.992 9.977-26.336 2.865-39.17-7.35-13.262-21.914-20.04-36.11-18.179-2.427-13.471-3.129-28.29-2.215-44.056 24.877 10.162 53.255 17.864 83.646 22.658 19.244 23.854 40.041 44.566 61.495 61.163-40.505 26.658-79.676 34.968-107.612 18.839zm120.48-27.894c-18.057-13.491-35.702-30.092-52.356-49.185 6.976.754 14.031 1.365 21.157 1.813.16.01.319.015.478.015 3.927 0 7.228-3.056 7.478-7.029.26-4.134-2.88-7.696-7.015-7.956-12.262-.771-24.301-2.022-36.04-3.708-13.264-16.905-25.743-35.375-37.105-55.056-11.361-19.677-21.115-39.714-29.121-59.65 7.993-19.95 17.734-40.055 29.118-59.775 5.791-10.03 11.976-19.858 18.393-29.327 13.207 5.925 29.286 3.481 40.114-7.348 6.081-6.081 9.516-13.818 10.314-21.772 11.413-.824 23.019-1.267 34.606-1.267 22.64 0 44.9 1.594 66.289 4.662 13.357 16.99 25.787 35.404 37.136 55.057 11.354 19.665 21.104 39.679 29.116 59.644-5.902 14.742-12.734 29.482-20.399 43.983-10.332-2.121-21.206 2.912-26.026 12.822-4.241 8.72-2.615 18.795 3.318 25.735-7.414 11.34-15.148 22.106-23.113 32.239-20.057 2.904-40.935 4.517-62.135 4.698-4.142.035-7.471 3.422-7.436 7.563.035 4.121 3.386 7.437 7.498 7.437h.065c16.325-.139 32.356-1.074 47.951-2.737-16.944 19.385-34.641 35.927-52.285 49.142zm115.182-109.95c-2.086 4.289-7.272 6.081-11.561 3.995s-6.081-7.272-3.995-11.561c2.086-4.288 7.272-6.08 11.561-3.994s6.081 7.272 3.995 11.56zm33.328 137.104c-3.383 3.362-8.87 3.345-12.232-.037-3.362-3.383-3.346-8.87.037-12.232s8.87-3.345 12.232.037c3.363 3.383 3.346 8.87-.037 12.232zm-1.48-29.32c-7.46-1.474-15.501.66-21.288 6.412-6.503 6.463-8.436 15.794-5.827 23.983-26.767 15.368-66.115 7.992-107.019-19.173 21.317-16.512 42.13-37.218 61.412-61.082 30.436-4.746 58.764-12.402 83.704-22.629 1.634 28.72-2.113 53.73-10.982 72.489zm8.083-99.087c.577 3.643 1.072 7.241 1.496 10.797-20.509 8.752-43.744 15.734-68.653 20.657 4.926-6.747 9.725-13.7 14.379-20.839 10.424 2.287 21.468-2.742 26.337-12.752 4.291-8.822 2.579-19.031-3.525-25.976 5.425-10.234 10.45-20.589 15.044-30.992 6.846 20.029 11.874 39.868 14.922 59.105zm-14.939-100.144c-6.892-15.559-14.814-31.172-23.738-46.629-8.891-15.398-18.436-30.062-28.556-43.919 15.033 2.958 29.491 6.705 43.216 11.176-2.617 14.127 3.438 29.075 16.365 37.09 1.32.818 2.675 1.529 4.052 2.157-2.906 13.148-6.71 26.584-11.339 40.125zm43.969-61.779c-6.073 9.794-18.982 12.822-28.777 6.749s-12.823-18.983-6.75-28.777 18.982-12.822 28.777-6.749 12.823 18.982 6.75 28.777z"/></g></g></svg>