<svg width="309" height="309" viewBox="0 0 309 309" fill="none" xmlns="http://www.w3.org/2000/svg">
<path d="M309 154.5C309 239.828 239.828 309 154.5 309C69.172 309 0 239.828 0 154.5C0 69.172 69.172 0 154.5 0C239.828 0 309 69.172 309 154.5Z" fill="url(#paint0_linear_4_122)"/>
<path d="M114.401 169.05L92.1761 163.8C83.3094 161.7 77.2427 158.492 73.9761 154.175C70.8261 149.858 69.2511 143.675 69.2511 135.625C69.2511 122.908 72.5761 113.575 79.2261 107.625C85.9927 101.558 96.4344 98.525 110.551 98.525C116.384 98.525 121.576 98.7583 126.126 99.225C130.676 99.6917 134.876 100.508 138.726 101.675V126C129.859 124.483 123.734 123.608 120.351 123.375C117.084 123.142 113.643 123.025 110.026 123.025C105.126 123.025 101.568 123.842 99.3511 125.475C97.1344 127.108 96.0261 129.85 96.0261 133.7C96.0261 135.567 96.3761 137.025 97.0761 138.075C97.7761 139.008 99.1177 139.708 101.101 140.175L122.101 145.075C128.168 146.475 132.543 147.875 135.226 149.275C137.909 150.558 140.068 152.25 141.701 154.35C143.568 156.567 144.909 159.425 145.726 162.925C146.659 166.425 147.126 170.683 147.126 175.7C147.126 188.417 143.743 197.633 136.976 203.35C130.209 208.95 119.709 211.75 105.476 211.75C98.2427 211.75 91.3594 211.283 84.8261 210.35C78.2927 209.533 73.2177 208.483 69.6011 207.2V181.475C74.2677 182.992 79.8094 184.217 86.2261 185.15C92.6427 185.967 99.0594 186.375 105.476 186.375C110.609 186.375 114.168 185.733 116.151 184.45C118.134 183.167 119.126 180.6 119.126 176.75C119.126 174.3 118.776 172.55 118.076 171.5C117.493 170.333 116.268 169.517 114.401 169.05ZM208.596 121.8C220.146 121.8 228.313 125.183 233.096 131.95C237.88 138.6 240.271 149.975 240.271 166.075C240.271 182.058 237.063 193.667 230.646 200.9C224.23 208.133 213.846 211.75 199.496 211.75C191.213 211.75 183.513 211.342 176.396 210.525C169.28 209.708 162.98 208.483 157.496 206.85V93.625H183.746V128.1C187.713 126.117 191.796 124.6 195.996 123.55C200.313 122.383 204.513 121.8 208.596 121.8ZM214.021 166.075C214.021 157.558 213.146 152.017 211.396 149.45C209.646 146.767 205.563 145.425 199.146 145.425C196.463 145.425 193.78 145.658 191.096 146.125C188.53 146.592 186.08 147.233 183.746 148.05V186.375C185.496 186.725 187.48 187.017 189.696 187.25C191.913 187.367 194.538 187.425 197.571 187.425C204.571 187.425 209.063 186.142 211.046 183.575C213.03 180.892 214.021 175.058 214.021 166.075Z" fill="white"/>
<defs>
<linearGradient id="paint0_linear_4_122" x1="0" y1="0" x2="309" y2="309" gradientUnits="userSpaceOnUse">
<stop offset="0.1875" stop-color="#DD1E12"/>
<stop offset="0.854167" stop-color="#4E008B"/>
</linearGradient>
</defs>
</svg>
