<svg width="309" height="309" viewBox="0 0 309 309" fill="none" xmlns="http://www.w3.org/2000/svg">
<path d="M309 154.5C309 239.828 239.828 309 154.5 309C69.172 309 0 239.828 0 154.5C0 69.172 69.172 0 154.5 0C239.828 0 309 69.172 309 154.5Z" fill="url(#paint0_linear_4_42)"/>
<path d="M145.388 186.375C150.054 186.375 155.129 185.908 160.613 184.975C166.096 183.925 170.996 182.583 175.313 180.95V204.925C168.896 207.492 163.121 209.242 157.988 210.175C152.854 211.225 147.488 211.75 141.888 211.75C131.738 211.75 123.629 210.583 117.563 208.25C111.496 205.917 106.654 202.183 103.038 197.05C100.004 192.617 97.7294 186.958 96.2127 180.075C94.8127 173.192 94.1127 164.85 94.1127 155.05C94.1127 135.45 98.3127 121.158 106.713 112.175C115.229 103.075 128.704 98.525 147.138 98.525C152.504 98.525 157.288 98.6417 161.488 98.875C165.688 99.1083 169.479 99.5167 172.863 100.1V123.725C169.013 123.492 164.988 123.317 160.788 123.2C156.704 123.083 152.154 123.025 147.138 123.025C140.721 123.025 135.938 123.667 132.788 124.95C129.754 126.117 127.479 128.217 125.963 131.25C124.563 133.583 123.571 136.675 122.988 140.525C122.404 144.375 122.113 149.217 122.113 155.05C122.113 160.533 122.346 165.142 122.813 168.875C123.396 172.492 124.271 175.525 125.438 177.975C126.954 181.008 129.171 183.167 132.088 184.45C135.004 185.733 139.438 186.375 145.388 186.375ZM212.03 93.625V210H185.78V93.625H212.03Z" fill="white"/>
<defs>
<linearGradient id="paint0_linear_4_42" x1="0" y1="0" x2="309" y2="309" gradientUnits="userSpaceOnUse">
<stop offset="0.1875" stop-color="#DD1E12"/>
<stop offset="0.854167" stop-color="#4E008B"/>
</linearGradient>
</defs>
</svg>
