<svg width="309" height="309" viewBox="0 0 309 309" fill="none" xmlns="http://www.w3.org/2000/svg">
<path d="M309 154.5C309 239.828 239.828 309 154.5 309C69.172 309 0 239.828 0 154.5C0 69.172 69.172 0 154.5 0C239.828 0 309 69.172 309 154.5Z" fill="url(#paint0_linear_4_230)"/>
<path d="M162.143 100.275V210H136.768V144.2L118.043 189H95.9933L77.6183 144.2V210H52.2433V100.275H85.3183L107.543 155.575L130.293 100.275H162.143ZM231.379 93.625H257.629V210H234.354L232.954 201.95H232.429C229.279 205.217 225.546 207.667 221.229 209.3C216.912 210.933 212.012 211.75 206.529 211.75C195.096 211.75 186.929 208.308 182.029 201.425C177.246 194.542 174.854 182.992 174.854 166.775C174.854 151.025 177.887 139.592 183.954 132.475C190.137 125.358 200.112 121.8 213.879 121.8C217.262 121.8 220.412 122.033 223.329 122.5C226.362 122.85 229.046 123.375 231.379 124.075V93.625ZM217.554 145.425C210.554 145.425 206.062 146.767 204.079 149.45C202.096 152.017 201.104 157.792 201.104 166.775C201.104 175.292 201.979 180.892 203.729 183.575C205.479 186.142 209.562 187.425 215.979 187.425C219.012 187.425 221.812 187.192 224.379 186.725C227.062 186.258 229.396 185.558 231.379 184.625V147.7C229.629 146.883 227.587 146.3 225.254 145.95C223.037 145.6 220.471 145.425 217.554 145.425Z" fill="white"/>
<defs>
<linearGradient id="paint0_linear_4_230" x1="0" y1="0" x2="309" y2="309" gradientUnits="userSpaceOnUse">
<stop offset="0.1875" stop-color="#DD1E12"/>
<stop offset="0.854167" stop-color="#4E008B"/>
</linearGradient>
</defs>
</svg>
