<?xml version="1.0" encoding="UTF-8"?>
<svg xmlns="http://www.w3.org/2000/svg" xmlns:xlink="http://www.w3.org/1999/xlink" version="1.1" width="512" height="512" x="0" y="0" viewBox="0 0 512 512" style="enable-background:new 0 0 512 512" xml:space="preserve" class="">
  <g>
    <g fill-rule="evenodd">
      <path fill="#ff3838" d="M462.122 64.27h-113.2v-31a31.288 31.288 0 0 0-31.259-31.259H194.34a31.288 31.288 0 0 0-31.26 31.261v31H49.882a33.6 33.6 0 0 0-33.573 33.567v40.981a10 10 0 0 0 9.984 10H56.2l37.327 333.156a31.5 31.5 0 0 0 31.32 28.034h262.309a31.5 31.5 0 0 0 31.321-28.034l37.328-333.156h29.906a10 10 0 0 0 9.983-10V97.839a33.6 33.6 0 0 0-33.572-33.569z" opacity="1" data-original="#5eac24" class=""/>
      <path d="M244.019 447.059V189.26a11.983 11.983 0 1 1 23.966 0v257.8a11.983 11.983 0 1 1-23.966 0zM135.84 204.24a12 12 0 1 1 23.872-2.381L182.64 432.08a11.984 11.984 0 0 1-10.709 13.13c-.425.039-.849.06-1.227.06a12.012 12.012 0 0 1-11.936-10.811zm193.476 227.84 22.976-230.221a12 12 0 1 1 23.872 2.381l-22.928 230.219A12.048 12.048 0 0 1 341.3 445.27c-.424 0-.8-.021-1.226-.06a12.021 12.021 0 0 1-10.757-13.13zm144.365-305.259H38.276V97.839A11.59 11.59 0 0 1 49.882 86.27h412.24a11.58 11.58 0 0 1 11.559 11.569zm-77.042 352.708 36.8-328.709H78.519l36.845 328.709a9.428 9.428 0 0 0 9.483 8.481h262.309a9.427 9.427 0 0 0 9.483-8.481zM185.046 33.272a9.278 9.278 0 0 1 9.294-9.261h123.323a9.308 9.308 0 0 1 9.3 9.261v29H185.046zm277.076 29h-111.2v-29A33.288 33.288 0 0 0 317.663.012H194.34a33.288 33.288 0 0 0-33.26 33.26v29H49.882a35.606 35.606 0 0 0-35.573 35.567v40.981a12 12 0 0 0 11.984 12h28.118L91.54 482.2a33.487 33.487 0 0 0 33.307 29.811h262.309a33.487 33.487 0 0 0 33.308-29.811l37.129-331.38h28.118a12 12 0 0 0 11.983-12V97.839a35.6 35.6 0 0 0-35.572-35.569z" fill="#000000" opacity="1" data-original="#000000"/>
    </g>
  </g>
</svg>
