<svg width="309" height="309" viewBox="0 0 309 309" fill="none" xmlns="http://www.w3.org/2000/svg">
<path d="M309 154.5C309 239.828 239.828 309 154.5 309C69.172 309 0 239.828 0 154.5C0 69.172 69.172 0 154.5 0C239.828 0 309 69.172 309 154.5Z" fill="url(#paint0_linear_4_126)"/>
<path d="M82.6953 210H54.1703L94.7703 100.275H122.945L162.495 210H134.145L128.37 191.625H88.4703L82.6953 210ZM108.245 127.225C107.312 130.492 106.262 133.992 105.095 137.725C104.045 141.342 102.237 147.292 99.6703 155.575L95.1203 170.1H121.545L116.995 155.575C115.479 151.142 113.962 146.475 112.445 141.575C110.929 136.558 109.529 131.775 108.245 127.225ZM206.006 238.35C199.823 238.35 193.873 237.942 188.156 237.125C182.556 236.308 177.948 235.258 174.331 233.975V211.75C177.131 212.567 181.331 213.267 186.931 213.85C192.648 214.433 198.306 214.725 203.906 214.725C210.206 214.725 214.523 213.792 216.856 211.925C219.189 210.058 220.414 206.617 220.531 201.6V197.4C215.864 199.617 211.373 201.308 207.056 202.475C202.739 203.525 198.539 204.05 194.456 204.05C183.373 204.05 175.498 200.958 170.831 194.775C166.281 188.475 164.006 177.858 164.006 162.925C164.006 148.108 167.273 137.55 173.806 131.25C180.456 124.95 191.598 121.8 207.231 121.8C213.414 121.8 220.531 122.15 228.581 122.85C236.748 123.55 242.814 124.308 246.781 125.125V193.375C246.781 210.058 243.748 221.725 237.681 228.375C231.614 235.025 221.056 238.35 206.006 238.35ZM207.231 145.425C199.414 145.425 194.631 146.3 192.881 148.05C191.131 149.8 190.256 154.758 190.256 162.925C190.256 170.275 191.014 174.942 192.531 176.925C194.048 178.792 197.723 179.725 203.556 179.725C205.773 179.725 208.281 179.492 211.081 179.025C213.998 178.558 217.148 177.917 220.531 177.1V146.475C218.781 146.125 216.798 145.892 214.581 145.775C212.364 145.542 209.914 145.425 207.231 145.425Z" fill="white"/>
<defs>
<linearGradient id="paint0_linear_4_126" x1="0" y1="0" x2="309" y2="309" gradientUnits="userSpaceOnUse">
<stop offset="0.1875" stop-color="#DD1E12"/>
<stop offset="0.854167" stop-color="#4E008B"/>
</linearGradient>
</defs>
</svg>
