<svg width="309" height="309" viewBox="0 0 309 309" fill="none" xmlns="http://www.w3.org/2000/svg">
<path d="M309 154.5C309 239.828 239.828 309 154.5 309C69.172 309 0 239.828 0 154.5C0 69.172 69.172 0 154.5 0C239.828 0 309 69.172 309 154.5Z" fill="url(#paint0_linear_4_291)"/>
<path d="M167.626 155.05C167.626 175 163.543 189.467 155.376 198.45C147.326 207.317 134.201 211.75 116.001 211.75C96.9847 211.75 83.6264 207.55 75.9264 199.15C68.2264 190.75 64.3764 176.05 64.3764 155.05C64.3764 135.1 68.4014 120.692 76.4514 111.825C84.618 102.958 97.8014 98.525 116.001 98.525C135.018 98.525 148.376 102.725 156.076 111.125C163.776 119.525 167.626 134.167 167.626 155.05ZM95.1764 178.5C96.693 181.417 98.9097 183.458 101.826 184.625C104.86 185.792 109.585 186.375 116.001 186.375C122.418 186.375 127.085 185.792 130.001 184.625C133.035 183.458 135.31 181.417 136.826 178.5C137.993 176.167 138.81 173.133 139.276 169.4C139.86 165.667 140.151 160.883 140.151 155.05C140.151 149.1 139.86 144.258 139.276 140.525C138.81 136.675 137.993 133.583 136.826 131.25C135.426 128.217 133.21 126.117 130.176 124.95C127.26 123.667 122.535 123.025 116.001 123.025C109.468 123.025 104.685 123.667 101.651 124.95C98.7347 126.117 96.5764 128.217 95.1764 131.25C94.0097 133.583 93.1347 136.675 92.5514 140.525C92.0847 144.258 91.8514 149.1 91.8514 155.05C91.8514 160.883 92.0847 165.667 92.5514 169.4C93.1347 173.133 94.0097 176.167 95.1764 178.5ZM214.973 144.025C210.073 144.025 206.748 144.433 204.998 145.25C203.365 145.95 202.548 147.642 202.548 150.325C202.548 151.375 202.84 152.25 203.423 152.95C204.123 153.533 205.057 153.883 206.223 154L227.048 156.8C233.815 157.733 238.54 159.95 241.223 163.45C244.023 166.833 245.423 172.258 245.423 179.725C245.423 190.925 242.915 199.092 237.898 204.225C232.882 209.242 224.132 211.75 211.648 211.75C204.765 211.75 198.523 211.458 192.923 210.875C187.44 210.408 182.773 209.708 178.923 208.775V186.025C181.84 186.725 185.865 187.367 190.998 187.95C196.248 188.417 201.557 188.65 206.923 188.65C211.707 188.65 214.915 188.183 216.548 187.25C218.298 186.2 219.173 184.275 219.173 181.475C219.173 180.542 218.882 179.783 218.298 179.2C217.715 178.5 216.957 178.092 216.023 177.975L194.498 175.175C188.198 174.358 183.59 172.083 180.673 168.35C177.873 164.5 176.473 158.842 176.473 151.375C176.473 141.575 179.565 134.225 185.748 129.325C191.932 124.308 201.09 121.8 213.223 121.8C218.007 121.8 222.44 121.917 226.523 122.15C230.607 122.383 234.923 122.85 239.473 123.55V145.425C236.557 144.958 232.94 144.608 228.623 144.375C224.307 144.142 219.757 144.025 214.973 144.025Z" fill="white"/>
<defs>
<linearGradient id="paint0_linear_4_291" x1="0" y1="0" x2="309" y2="309" gradientUnits="userSpaceOnUse">
<stop offset="0.1875" stop-color="#DD1E12"/>
<stop offset="0.854167" stop-color="#4E008B"/>
</linearGradient>
</defs>
</svg>
