<svg width="309" height="309" viewBox="0 0 309 309" fill="none" xmlns="http://www.w3.org/2000/svg">
<path d="M309 154.5C309 239.828 239.828 309 154.5 309C69.172 309 0 239.828 0 154.5C0 69.172 69.172 0 154.5 0C239.828 0 309 69.172 309 154.5Z" fill="url(#paint0_linear_4_96)"/>
<path d="M118.984 186.375C123.651 186.375 128.726 185.908 134.209 184.975C139.692 183.925 144.592 182.583 148.909 180.95V204.925C142.492 207.492 136.717 209.242 131.584 210.175C126.451 211.225 121.084 211.75 115.484 211.75C105.334 211.75 97.2256 210.583 91.1589 208.25C85.0922 205.917 80.2506 202.183 76.6339 197.05C73.6006 192.617 71.3256 186.958 69.8089 180.075C68.4089 173.192 67.7089 164.85 67.7089 155.05C67.7089 135.45 71.9089 121.158 80.3089 112.175C88.8256 103.075 102.301 98.525 120.734 98.525C126.101 98.525 130.884 98.6417 135.084 98.875C139.284 99.1083 143.076 99.5167 146.459 100.1V123.725C142.609 123.492 138.584 123.317 134.384 123.2C130.301 123.083 125.751 123.025 120.734 123.025C114.317 123.025 109.534 123.667 106.384 124.95C103.351 126.117 101.076 128.217 99.5589 131.25C98.1589 133.583 97.1672 136.675 96.5839 140.525C96.0006 144.375 95.7089 149.217 95.7089 155.05C95.7089 160.533 95.9422 165.142 96.4089 168.875C96.9922 172.492 97.8672 175.525 99.0339 177.975C100.551 181.008 102.767 183.167 105.684 184.45C108.601 185.733 113.034 186.375 118.984 186.375ZM241.626 166.775C241.626 182.992 238.359 194.542 231.826 201.425C225.293 208.308 214.326 211.75 198.926 211.75C183.526 211.75 172.559 208.308 166.026 201.425C159.493 194.542 156.226 182.992 156.226 166.775C156.226 150.558 159.493 139.008 166.026 132.125C172.559 125.242 183.526 121.8 198.926 121.8C214.326 121.8 225.293 125.242 231.826 132.125C238.359 139.008 241.626 150.558 241.626 166.775ZM182.476 166.425C182.476 175.292 183.409 181.008 185.276 183.575C187.259 186.142 191.809 187.425 198.926 187.425C206.043 187.425 210.534 186.142 212.401 183.575C214.384 181.008 215.376 175.292 215.376 166.425C215.376 157.558 214.384 151.842 212.401 149.275C210.534 146.708 206.043 145.425 198.926 145.425C191.809 145.425 187.259 146.708 185.276 149.275C183.409 151.842 182.476 157.558 182.476 166.425Z" fill="white"/>
<defs>
<linearGradient id="paint0_linear_4_96" x1="0" y1="0" x2="309" y2="309" gradientUnits="userSpaceOnUse">
<stop offset="0.1875" stop-color="#DD1E12"/>
<stop offset="0.854167" stop-color="#4E008B"/>
</linearGradient>
</defs>
</svg>
