<svg width="309" height="309" viewBox="0 0 309 309" fill="none" xmlns="http://www.w3.org/2000/svg">
<path d="M309 154.5C309 239.828 239.828 309 154.5 309C69.172 309 0 239.828 0 154.5C0 69.172 69.172 0 154.5 0C239.828 0 309 69.172 309 154.5Z" fill="url(#paint0_linear_4_243)"/>
<path d="M97.4835 174.65V210H70.3585V100.275H110.433C127.35 100.275 139.367 103.133 146.483 108.85C153.6 114.567 157.159 124.075 157.159 137.375C157.159 146.358 155.234 153.708 151.384 159.425C147.65 165.025 141.934 169.108 134.233 171.675L161.009 210H128.459L105.708 174.65H97.4835ZM129.684 137.375C129.684 132.708 128.283 129.442 125.483 127.575C122.683 125.708 117.667 124.775 110.433 124.775H97.4835V152.775H110.433C117.667 152.775 122.683 151.667 125.483 149.45C128.283 147.117 129.684 143.092 129.684 137.375ZM189.775 211.75C180.909 211.75 174.375 209.533 170.175 205.1C166.092 200.667 164.05 193.667 164.05 184.1C164.05 174.3 166.5 167.417 171.4 163.45C176.417 159.483 184.992 157.5 197.125 157.5C199.925 157.5 202.784 157.675 205.7 158.025C208.734 158.258 211.359 158.608 213.575 159.075V152.775C213.575 149.975 212.35 147.933 209.9 146.65C207.567 145.25 203.95 144.55 199.05 144.55C193.45 144.55 188.434 144.725 184 145.075C179.684 145.308 175.717 145.775 172.1 146.475V124.95C176.417 123.9 181.434 123.142 187.15 122.675C192.867 122.092 199.517 121.8 207.1 121.8C217.834 121.8 225.942 124.192 231.425 128.975C237.025 133.758 239.825 140.817 239.825 150.15V210H215.325L214.45 202.65H213.925C210.309 205.45 206.342 207.667 202.025 209.3C197.709 210.933 193.625 211.75 189.775 211.75ZM200.625 174.825C195.959 174.825 192.809 175.35 191.175 176.4C189.542 177.333 188.725 179.375 188.725 182.525C188.725 185.442 189.367 187.483 190.65 188.65C192.05 189.7 194.442 190.225 197.825 190.225C200.392 190.225 203.075 189.875 205.875 189.175C208.675 188.475 211.242 187.6 213.575 186.55V175.875C212.175 175.525 210.425 175.292 208.325 175.175C206.225 174.942 203.659 174.825 200.625 174.825Z" fill="white"/>
<defs>
<linearGradient id="paint0_linear_4_243" x1="0" y1="0" x2="309" y2="309" gradientUnits="userSpaceOnUse">
<stop offset="0.1875" stop-color="#DD1E12"/>
<stop offset="0.854167" stop-color="#4E008B"/>
</linearGradient>
</defs>
</svg>
