<svg id="Layer_1" enable-background="new 0 0 512 512" height="512" viewBox="0 0 512 512" width="512" xmlns="http://www.w3.org/2000/svg"><g><g><g><path d="m398.472 475.434h-44.16v-27.38-16.406c0-12.194 9.885-22.08 22.08-22.08 12.194 0 22.08 9.885 22.08 22.08v17.406z" fill="#fee438"/><g><g><g><g><path d="m401.843 321.137c-98.049 60.843-202.536 60.843-293.46 0v-114.46h293.46z" fill="#686380"/><path d="m361.843 206.676v114.46c-42.452 26.343-86.11 41.271-129.353 44.803 56.09 4.625 113.756-10.303 169.353-44.803v-114.46z" fill="#5f5a78"/><path d="m244.167 99.799-229.425 86.506c-9.656 3.641-9.656 17.308 0 20.949l229.425 86.505c7.627 2.876 16.04 2.876 23.667 0l229.425-86.505c9.656-3.641 9.656-17.308 0-20.949l-229.426-86.506c-7.627-2.876-16.039-2.876-23.666 0z" fill="#787294"/><path d="m497.258 186.305-229.425-86.506c-7.627-2.876-16.04-2.876-23.667 0l-40.733 15.358c7.627-2.876 16.772-2.234 24.4.642l229.425 86.505c8.153 3.074 9.421 13.297 3.806 18.596l36.194-13.647c9.656-3.64 9.656-17.308 0-20.948z" fill="#706a8a"/></g></g></g></g></g><g><path d="m59.947 27.121c.111-11.151 26.181-19.932 58.229-19.612 32.048.319 57.937 9.618 57.826 20.77l-31.216 234.89 26.658 221.71c-.111 11.151-26.181 19.932-58.229 19.613s-57.937-9.618-57.826-20.77l31.047-217.917z" fill="#e8ebeb"/><path d="m176.002 28.278-31.216 234.89 26.658 221.71c-.111 11.151-26.181 19.932-58.229 19.613l.403-40.383 4.155-416.218c32.048.321 58.118-8.46 58.229-19.612z" fill="#f7fafa"/><ellipse cx="118.305" cy="27.86" fill="#edf0f0" rx="20.349" ry="58.362" transform="matrix(.01 -1 1 .01 89.267 145.882)"/><path d="m150.423 270.849-69.08-.689c-7.477-.075-13.479-6.197-13.404-13.674l.018-1.768c.075-7.477 6.197-13.478 13.674-13.404l69.08.689c7.477.075 13.479 6.197 13.404 13.674l-.018 1.768c-.075 7.477-6.197 13.478-13.674 13.404z" fill="#c061e8"/></g></g><path d="m499.904 179.287-229.424-86.505c-9.336-3.521-19.621-3.521-28.959 0l-70.034 26.406s12.656-88.508 12.677-90.671c.063-6.275-3.688-15.133-21.909-21.69-11.754-4.23-27.264-6.65-43.681-6.814h-.136c-.051-.001-.154-.003-.187-.003-31.379-.32-65.164 7.91-65.78 26.679-.77 19.181 4.323 40.013 6.441 59.097 1.07 9.638 15.978 7.984 14.908-1.654l-4.117-37.099c12.589 5.617 25.05 7.665 38.712 8.417v178.451h-17.974l-12.077-108.83c-1.07-9.637-15.978-7.984-14.908 1.654l3.536 31.862-54.895 20.699c-15.799 5.957-15.799 29.027 0 34.983l59.059 22.269c-15.932 9.341-12.672 37.079 6.074 40.716l-29.266 205.41c-3.788 26.555 50.912 29.336 66.897 29.336 15.246 0 67.105-2.313 64.029-28.017l-15.136-125.885c67.198 25.069 140.506 19.33 205.138-10.622v55.557c-12.69 3.329-22.08 14.894-22.08 28.614v43.787c0 4.142 3.358 7.5 7.5 7.5h44.16c4.142 0 7.5-3.358 7.5-7.5v-43.787c0-13.72-9.39-25.285-22.08-28.614v-62.978c7.341-3.863 14.645-8.04 21.906-12.546 2.205-1.368 3.545-3.778 3.545-6.373v-72.72l90.561-34.146c15.799-5.956 15.799-29.026 0-34.983zm-108.932 252.361v36.287h-29.16v-36.287c0-8.04 6.541-14.58 14.58-14.58s14.58 6.54 14.58 14.58zm-267.559-197.746v-178.266c13.641-.414 29.623-2.177 42.36-7.321l-10.8 81.266c-.003.022-.006.044-.009.066l-13.922 104.255zm45.755-205.569c-3.394 10.334-39.988 12.49-51.066 12.375-9.292-.096-53.987-4.697-50.633-13.376 3.864-9.997 44.352-12.449 50.964-12.32 8.994.089 48.9 3.655 50.735 13.321zm-154.168 168.446c0-.769.232-2.644 2.388-3.457l51.311-19.347 5.282 47.599-56.593-21.339c-2.156-.812-2.388-2.688-2.388-3.456zm66.474 52.724c23.052 0 46.111-.229 69.162 0 7.723.077 7.126 13.929-.138 13.847h-69.081c-7.436-.001-7.436-13.847.057-13.847zm-18.543 234.456 29.376-206.189 15.669.156v218.819c-26.502-1.504-43.915-9.246-45.045-12.786zm60.045 12.935v-218.819l16.068.161 24.853 206.7c-1.249 3.566-14.437 10.984-40.921 11.958zm371.636-296.659-144.116 54.339c-8.944 3.372-3.446 17.332 5.292 14.035l38.555-14.537v62.863c-70.494 42.605-155.101 55.92-232.621 24.268l-7.594-63.157c4.344-.731 8.192-2.807 11.163-6.013l76.23 28.743c9.153 3.45 19.796 3.475 28.963-.002l44.196-16.665c9.073-3.421 3.781-17.458-5.292-14.035l-44.201 16.666c-5.925 2.235-12.451 2.234-18.376 0l-75.642-28.521c.851-10.141-4.94-20.44-15.1-23.035l13.173-99.121 77.569-29.247c5.925-2.233 12.45-2.233 18.375 0l97.311 36.691-110.291 46.357c-8.8 3.699-2.83 17.46 5.813 13.828l124.884-52.49 111.708 42.12c3.17 1.195 3.17 5.719.001 6.913z" fill="#060606"/></g></svg>