<svg width="309" height="309" viewBox="0 0 309 309" fill="none" xmlns="http://www.w3.org/2000/svg">
<path d="M309 154.5C309 239.828 239.828 309 154.5 309C69.172 309 0 239.828 0 154.5C0 69.172 69.172 0 154.5 0C239.828 0 309 69.172 309 154.5Z" fill="url(#paint0_linear_4_298)"/>
<path d="M129.586 100.275V124.775H99.6607V210H72.5357V124.775H42.6107V100.275H129.586ZM164.007 210H137.757V123.55H162.257L163.132 130.025H163.657C167.974 127.342 172.116 125.3 176.082 123.9C180.049 122.5 183.841 121.8 187.457 121.8C192.241 121.8 196.324 122.558 199.707 124.075C203.091 125.475 205.774 127.633 207.757 130.55H208.457C212.424 127.867 216.857 125.767 221.757 124.25C226.774 122.617 231.557 121.8 236.107 121.8C244.624 121.8 250.924 124.133 255.007 128.8C259.207 133.467 261.307 140.583 261.307 150.15V210H235.057V153.65C235.057 150.733 234.241 148.633 232.607 147.35C230.974 146.067 228.407 145.425 224.907 145.425C223.041 145.425 221.057 145.6 218.957 145.95C216.857 146.3 214.757 146.825 212.657 147.525V210H186.407V153.65C186.407 150.733 185.591 148.633 183.957 147.35C182.324 146.067 179.757 145.425 176.257 145.425C174.391 145.425 172.407 145.6 170.307 145.95C168.207 146.3 166.107 146.825 164.007 147.525V210Z" fill="white"/>
<defs>
<linearGradient id="paint0_linear_4_298" x1="0" y1="0" x2="309" y2="309" gradientUnits="userSpaceOnUse">
<stop offset="0.1875" stop-color="#DD1E12"/>
<stop offset="0.854167" stop-color="#4E008B"/>
</linearGradient>
</defs>
</svg>
