<svg width="309" height="309" viewBox="0 0 309 309" fill="none" xmlns="http://www.w3.org/2000/svg">
<path d="M309 154.5C309 239.828 239.828 309 154.5 309C69.172 309 0 239.828 0 154.5C0 69.172 69.172 0 154.5 0C239.828 0 309 69.172 309 154.5Z" fill="url(#paint0_linear_4_68)"/>
<path d="M138.292 210L100.317 100.275H130.592L146.867 154.525C147.917 158.142 149.2 162.983 150.717 169.05C152.234 175 153.692 180.95 155.092 186.9C157.659 176.283 159.467 168.817 160.517 164.5C161.684 160.183 162.559 156.917 163.142 154.7L179.242 100.275H208.642L170.842 210H138.292Z" fill="white"/>
<defs>
<linearGradient id="paint0_linear_4_68" x1="0" y1="0" x2="309" y2="309" gradientUnits="userSpaceOnUse">
<stop offset="0.1875" stop-color="#DD1E12"/>
<stop offset="0.854167" stop-color="#4E008B"/>
</linearGradient>
</defs>
</svg>
