<svg width="309" height="309" viewBox="0 0 309 309" fill="none" xmlns="http://www.w3.org/2000/svg">
<path d="M309 154.5C309 239.828 239.828 309 154.5 309C69.172 309 0 239.828 0 154.5C0 69.172 69.172 0 154.5 0C239.828 0 309 69.172 309 154.5Z" fill="url(#paint0_linear_4_232)"/>
<path d="M155.785 184.625V210H80.1852V100.275H154.21V124.775H107.31V142.975H147.735V165.725H107.31V184.625H155.785ZM202.84 144.025C197.94 144.025 194.615 144.433 192.865 145.25C191.231 145.95 190.415 147.642 190.415 150.325C190.415 151.375 190.706 152.25 191.29 152.95C191.99 153.533 192.923 153.883 194.09 154L214.915 156.8C221.681 157.733 226.406 159.95 229.09 163.45C231.89 166.833 233.29 172.258 233.29 179.725C233.29 190.925 230.781 199.092 225.765 204.225C220.748 209.242 211.998 211.75 199.515 211.75C192.631 211.75 186.39 211.458 180.79 210.875C175.306 210.408 170.64 209.708 166.79 208.775V186.025C169.706 186.725 173.731 187.367 178.865 187.95C184.115 188.417 189.423 188.65 194.79 188.65C199.573 188.65 202.781 188.183 204.415 187.25C206.165 186.2 207.04 184.275 207.04 181.475C207.04 180.542 206.748 179.783 206.165 179.2C205.581 178.5 204.823 178.092 203.89 177.975L182.365 175.175C176.065 174.358 171.456 172.083 168.54 168.35C165.74 164.5 164.34 158.842 164.34 151.375C164.34 141.575 167.431 134.225 173.615 129.325C179.798 124.308 188.956 121.8 201.09 121.8C205.873 121.8 210.306 121.917 214.39 122.15C218.473 122.383 222.79 122.85 227.34 123.55V145.425C224.423 144.958 220.806 144.608 216.49 144.375C212.173 144.142 207.623 144.025 202.84 144.025Z" fill="white"/>
<defs>
<linearGradient id="paint0_linear_4_232" x1="0" y1="0" x2="309" y2="309" gradientUnits="userSpaceOnUse">
<stop offset="0.1875" stop-color="#DD1E12"/>
<stop offset="0.854167" stop-color="#4E008B"/>
</linearGradient>
</defs>
</svg>
