<svg width="309" height="309" viewBox="0 0 309 309" fill="none" xmlns="http://www.w3.org/2000/svg">
<path d="M309 154.5C309 239.828 239.828 309 154.5 309C69.172 309 0 239.828 0 154.5C0 69.172 69.172 0 154.5 0C239.828 0 309 69.172 309 154.5Z" fill="url(#paint0_linear_4_113)"/>
<path d="M136.906 153.475L178.031 210H143.731L113.806 165.2H106.456V210H79.3307V100.275H106.456V143.5H113.806L144.081 100.275H176.631L136.906 153.475ZM209.637 210H183.387V123.55H207.887L208.762 130.2H209.112C213.312 127.633 217.571 125.708 221.887 124.425C226.321 123.025 230.462 122.325 234.312 122.325H235.712V147.7C234.662 147.467 233.496 147.35 232.212 147.35C231.046 147.233 229.529 147.175 227.662 147.175C224.279 147.175 221.071 147.408 218.037 147.875C215.004 148.225 212.204 148.808 209.637 149.625V210Z" fill="white"/>
<defs>
<linearGradient id="paint0_linear_4_113" x1="0" y1="0" x2="309" y2="309" gradientUnits="userSpaceOnUse">
<stop offset="0.1875" stop-color="#DD1E12"/>
<stop offset="0.854167" stop-color="#4E008B"/>
</linearGradient>
</defs>
</svg>
