<svg width="309" height="309" viewBox="0 0 309 309" fill="none" xmlns="http://www.w3.org/2000/svg">
<path d="M309 154.5C309 239.828 239.828 309 154.5 309C69.172 309 0 239.828 0 154.5C0 69.172 69.172 0 154.5 0C239.828 0 309 69.172 309 154.5Z" fill="url(#paint0_linear_4_233)"/>
<path d="M134.365 186.375C139.031 186.375 144.106 185.908 149.59 184.975C155.073 183.925 159.973 182.583 164.29 180.95V204.925C157.873 207.492 152.098 209.242 146.965 210.175C141.831 211.225 136.465 211.75 130.865 211.75C120.715 211.75 112.606 210.583 106.54 208.25C100.473 205.917 95.6314 202.183 92.0147 197.05C88.9814 192.617 86.7064 186.958 85.1897 180.075C83.7897 173.192 83.0897 164.85 83.0897 155.05C83.0897 135.45 87.2897 121.158 95.6897 112.175C104.206 103.075 117.681 98.525 136.115 98.525C141.481 98.525 146.265 98.6417 150.465 98.875C154.665 99.1083 158.456 99.5167 161.84 100.1V123.725C157.99 123.492 153.965 123.317 149.765 123.2C145.681 123.083 141.131 123.025 136.115 123.025C129.698 123.025 124.915 123.667 121.765 124.95C118.731 126.117 116.456 128.217 114.94 131.25C113.54 133.583 112.548 136.675 111.965 140.525C111.381 144.375 111.09 149.217 111.09 155.05C111.09 160.533 111.323 165.142 111.79 168.875C112.373 172.492 113.248 175.525 114.415 177.975C115.931 181.008 118.148 183.167 121.065 184.45C123.981 185.733 128.415 186.375 134.365 186.375ZM181.232 145.425H171.082V123.55H181.232C181.349 113.05 184.207 105.175 189.807 99.925C195.524 94.5583 203.865 91.875 214.832 91.875C217.399 91.875 220.14 92.05 223.057 92.4C226.09 92.6333 228.949 93.0417 231.632 93.625V113.75C230.115 113.517 228.249 113.342 226.032 113.225C223.815 112.992 221.832 112.875 220.082 112.875C214.482 112.875 210.982 113.4 209.582 114.45C208.182 115.5 207.482 117.717 207.482 121.1V123.55H229.007V145.425H207.482V210H181.232V145.425Z" fill="white"/>
<defs>
<linearGradient id="paint0_linear_4_233" x1="0" y1="0" x2="309" y2="309" gradientUnits="userSpaceOnUse">
<stop offset="0.1875" stop-color="#DD1E12"/>
<stop offset="0.854167" stop-color="#4E008B"/>
</linearGradient>
</defs>
</svg>
