<svg width="309" height="309" viewBox="0 0 309 309" fill="none" xmlns="http://www.w3.org/2000/svg">
<path d="M309 154.5C309 239.828 239.828 309 154.5 309C69.172 309 0 239.828 0 154.5C0 69.172 69.172 0 154.5 0C239.828 0 309 69.172 309 154.5Z" fill="url(#paint0_linear_4_46)"/>
<path d="M107.988 210H79.4633L120.063 100.275H148.238L187.788 210H159.438L153.663 191.625H113.763L107.988 210ZM133.538 127.225C132.605 130.492 131.555 133.992 130.388 137.725C129.338 141.342 127.53 147.292 124.963 155.575L120.413 170.1H146.838L142.288 155.575C140.772 151.142 139.255 146.475 137.738 141.575C136.222 136.558 134.822 131.775 133.538 127.225ZM221.429 93.625V210H195.179V93.625H221.429Z" fill="white"/>
<defs>
<linearGradient id="paint0_linear_4_46" x1="0" y1="0" x2="309" y2="309" gradientUnits="userSpaceOnUse">
<stop offset="0.1875" stop-color="#DD1E12"/>
<stop offset="0.854167" stop-color="#4E008B"/>
</linearGradient>
</defs>
</svg>
