<svg width="309" height="309" viewBox="0 0 309 309" fill="none" xmlns="http://www.w3.org/2000/svg">
<path d="M309 154.5C309 239.828 239.828 309 154.5 309C69.172 309 0 239.828 0 154.5C0 69.172 69.172 0 154.5 0C239.828 0 309 69.172 309 154.5Z" fill="url(#paint0_linear_4_43)"/>
<path d="M161.74 169.05L139.515 163.8C130.648 161.7 124.582 158.492 121.315 154.175C118.165 149.858 116.59 143.675 116.59 135.625C116.59 122.908 119.915 113.575 126.565 107.625C133.332 101.558 143.773 98.525 157.89 98.525C163.723 98.525 168.915 98.7583 173.465 99.225C178.015 99.6917 182.215 100.508 186.065 101.675V126C177.198 124.483 171.073 123.608 167.69 123.375C164.423 123.142 160.982 123.025 157.365 123.025C152.465 123.025 148.907 123.842 146.69 125.475C144.473 127.108 143.365 129.85 143.365 133.7C143.365 135.567 143.715 137.025 144.415 138.075C145.115 139.008 146.457 139.708 148.44 140.175L169.44 145.075C175.507 146.475 179.882 147.875 182.565 149.275C185.248 150.558 187.407 152.25 189.04 154.35C190.907 156.567 192.248 159.425 193.065 162.925C193.998 166.425 194.465 170.683 194.465 175.7C194.465 188.417 191.082 197.633 184.315 203.35C177.548 208.95 167.048 211.75 152.815 211.75C145.582 211.75 138.698 211.283 132.165 210.35C125.632 209.533 120.557 208.483 116.94 207.2V181.475C121.607 182.992 127.148 184.217 133.565 185.15C139.982 185.967 146.398 186.375 152.815 186.375C157.948 186.375 161.507 185.733 163.49 184.45C165.473 183.167 166.465 180.6 166.465 176.75C166.465 174.3 166.115 172.55 165.415 171.5C164.832 170.333 163.607 169.517 161.74 169.05Z" fill="white"/>
<defs>
<linearGradient id="paint0_linear_4_43" x1="0" y1="0" x2="309" y2="309" gradientUnits="userSpaceOnUse">
<stop offset="0.1875" stop-color="#DD1E12"/>
<stop offset="0.854167" stop-color="#4E008B"/>
</linearGradient>
</defs>
</svg>
