<svg id="Capa_1" enable-background="new 0 0 512 512" height="512" viewBox="0 0 512 512" width="512" xmlns="http://www.w3.org/2000/svg"><g><path d="m112.5 362h317v90h-317z" fill="#ff8053"/><path d="m82.5 362h317v90h-317z" fill="#ffa061"/><path d="m305.25 437-64.25 15 34.25-45h30c8.284 0 15 6.716 15 15s-6.716 15-15 15z" fill="#fff5de"/><path d="m275.25 407h-68.5c-8.284 0-15 6.716-15 15s6.716 15 15 15l34.25 15 34.25-15c8.284 0 15-6.716 15-15s-6.716-15-15-15z" fill="#fff"/><path d="m504.5 377-90-30v-272l90-30z" fill="#ffa061"/><path d="m7.5 377 90-30v-272l-90-30z" fill="#ffd478"/><path d="m7.5 45 90 90h317l90-90z" fill="#ffbb6e"/><path d="m7.5 377 90-90h317l90 90z" fill="#ffbb6e"/><path d="m474.5 347h-30l-90-136 90-136h30z" fill="#358059"/><path d="m37.5 75h407v272h-407z" fill="#47965c"/><path d="m444.5 467h-30l-45-15 45-15h30z" fill="#ffbb6e"/><path d="m67.5 437h347v30h-347z" fill="#ffd478"/><path d="m504.5 37.5h-497c-4.142 0-7.5 3.357-7.5 7.5v332c0 4.143 3.358 7.5 7.5 7.5h67.5v45h-7.5c-4.142 0-7.5 3.357-7.5 7.5v30c0 4.143 3.358 7.5 7.5 7.5h377c4.142 0 7.5-3.357 7.5-7.5v-30c0-4.143-3.358-7.5-7.5-7.5h-7.5v-45h67.5c4.142 0 7.5-3.357 7.5-7.5v-332c0-4.143-3.358-7.5-7.5-7.5zm-33.107 30h-430.786l-15-15h460.786zm-441.393 10.607v117.893c0 4.143 3.358 7.5 7.5 7.5s7.5-3.357 7.5-7.5v-113.5h422v257h-422v-113.5c0-4.143-3.358-7.5-7.5-7.5s-7.5 3.357-7.5 7.5v117.893l-15 15v-295.786zm10.607 276.393h430.786l15 15h-460.786zm441.393-10.607v-265.786l15-15v295.786zm-45 115.607h-362v-15h362zm-237.75-37.5c0-4.136 3.364-7.5 7.5-7.5h98.5c4.136 0 7.5 3.364 7.5 7.5s-3.364 7.5-7.5 7.5h-98.5c-4.136 0-7.5-3.364-7.5-7.5zm222.75 7.5h-95.54c.833-2.347 1.29-4.871 1.29-7.5 0-12.406-10.093-22.5-22.5-22.5h-98.5c-12.407 0-22.5 10.094-22.5 22.5 0 2.629.458 5.153 1.29 7.5h-95.54v-45h332z"/></g></svg>