<svg width="309" height="309" viewBox="0 0 309 309" fill="none" xmlns="http://www.w3.org/2000/svg">
<path d="M309 154.5C309 239.828 239.828 309 154.5 309C69.172 309 0 239.828 0 154.5C0 69.172 69.172 0 154.5 0C239.828 0 309 69.172 309 154.5Z" fill="url(#paint0_linear_3_35)"/>
<path d="M158.198 100.275V210H132.298L88.8976 146.65V210H63.5226V100.275H89.2476L132.823 166.075V100.275H158.198ZM245.648 184.45V205.275C242.848 207.025 238.123 208.542 231.473 209.825C224.823 211.108 217.823 211.75 210.473 211.75C196.473 211.75 186.382 208.25 180.198 201.25C174.015 194.133 170.923 182.642 170.923 166.775C170.923 151.258 174.19 139.883 180.723 132.65C187.257 125.417 197.582 121.8 211.698 121.8C225.465 121.8 235.148 124.542 240.748 130.025C246.465 135.392 249.323 144.958 249.323 158.725C249.323 162.458 249.265 165.433 249.148 167.65C249.032 169.867 248.798 172.433 248.448 175.35H197.348C197.465 180.133 198.748 183.458 201.198 185.325C203.648 187.192 208.14 188.125 214.673 188.125C220.273 188.125 225.99 187.775 231.823 187.075C237.657 186.258 242.265 185.383 245.648 184.45ZM211.698 144.2C206.098 144.2 202.307 145.192 200.323 147.175C198.34 149.042 197.348 152.775 197.348 158.375H225.523V154.525C225.407 150.442 224.415 147.7 222.548 146.3C220.798 144.9 217.182 144.2 211.698 144.2Z" fill="white"/>
<defs>
<linearGradient id="paint0_linear_3_35" x1="0" y1="0" x2="309" y2="309" gradientUnits="userSpaceOnUse">
<stop offset="0.1875" stop-color="#DD1E12"/>
<stop offset="0.854167" stop-color="#4E008B"/>
</linearGradient>
</defs>
</svg>
