<svg width="309" height="309" viewBox="0 0 309 309" fill="none" xmlns="http://www.w3.org/2000/svg">
<path d="M309 154.5C309 239.828 239.828 309 154.5 309C69.172 309 0 239.828 0 154.5C0 69.172 69.172 0 154.5 0C239.828 0 309 69.172 309 154.5Z" fill="url(#paint0_linear_4_188)"/>
<path d="M151.405 177.8C151.405 188.883 148.138 197.05 141.605 202.3C135.188 207.433 125.038 210 111.155 210H65.8297V100.275H111.155C123.755 100.275 132.68 102.492 137.93 106.925C143.296 111.242 145.98 118.533 145.98 128.8C145.98 135.333 145.105 140.35 143.355 143.85C141.605 147.233 138.105 149.858 132.855 151.725C139.155 153.008 143.821 155.808 146.855 160.125C149.888 164.442 151.405 170.333 151.405 177.8ZM120.955 132.825C120.955 128.975 120.196 126.292 118.68 124.775C117.28 123.258 114.771 122.5 111.155 122.5H92.9547V144.725H111.155C114.771 144.725 117.28 143.85 118.68 142.1C120.196 140.233 120.955 137.142 120.955 132.825ZM125.155 176.05C125.155 171.85 124.105 168.933 122.005 167.3C119.905 165.55 116.288 164.675 111.155 164.675H92.9547V186.9H111.155C116.288 186.9 119.905 186.083 122.005 184.45C124.105 182.817 125.155 180.017 125.155 176.05ZM188.617 210H162.367V93.625H188.617V129.675C192.933 127.225 197.367 125.3 201.917 123.9C206.583 122.5 211.017 121.8 215.217 121.8C225.017 121.8 232.308 124.133 237.092 128.8C241.992 133.467 244.442 140.583 244.442 150.15V210H218.192V153.65C218.192 150.733 217.317 148.633 215.567 147.35C213.817 146.067 211.017 145.425 207.167 145.425C204.25 145.425 201.158 145.717 197.892 146.3C194.625 146.767 191.533 147.408 188.617 148.225V210Z" fill="white"/>
<defs>
<linearGradient id="paint0_linear_4_188" x1="0" y1="0" x2="309" y2="309" gradientUnits="userSpaceOnUse">
<stop offset="0.1875" stop-color="#DD1E12"/>
<stop offset="0.854167" stop-color="#4E008B"/>
</linearGradient>
</defs>
</svg>
