<svg width="309" height="309" viewBox="0 0 309 309" fill="none" xmlns="http://www.w3.org/2000/svg">
<path d="M309 154.5C309 239.828 239.828 309 154.5 309C69.172 309 0 239.828 0 154.5C0 69.172 69.172 0 154.5 0C239.828 0 309 69.172 309 154.5Z" fill="url(#paint0_linear_3_26)"/>
<path d="M199.769 177.8C199.769 188.883 196.502 197.05 189.969 202.3C183.552 207.433 173.402 210 159.519 210H114.194V100.275H159.519C172.119 100.275 181.044 102.492 186.294 106.925C191.661 111.242 194.344 118.533 194.344 128.8C194.344 135.333 193.469 140.35 191.719 143.85C189.969 147.233 186.469 149.858 181.219 151.725C187.519 153.008 192.186 155.808 195.219 160.125C198.252 164.442 199.769 170.333 199.769 177.8ZM169.319 132.825C169.319 128.975 168.561 126.292 167.044 124.775C165.644 123.258 163.136 122.5 159.519 122.5H141.319V144.725H159.519C163.136 144.725 165.644 143.85 167.044 142.1C168.561 140.233 169.319 137.142 169.319 132.825ZM173.519 176.05C173.519 171.85 172.469 168.933 170.369 167.3C168.269 165.55 164.652 164.675 159.519 164.675H141.319V186.9H159.519C164.652 186.9 168.269 186.083 170.369 184.45C172.469 182.817 173.519 180.017 173.519 176.05Z" fill="white"/>
<defs>
<linearGradient id="paint0_linear_3_26" x1="0" y1="0" x2="309" y2="309" gradientUnits="userSpaceOnUse">
<stop offset="0.1875" stop-color="#DD1E12"/>
<stop offset="0.854167" stop-color="#4E008B"/>
</linearGradient>
</defs>
</svg>
